<svg width="148" height="50" fill="none" xmlns="http://www.w3.org/2000/svg"><rect y=".857" width="147.429" height="49.143" rx="6.143" fill="#fff"/><path d="M100.16 24.447v2.815h-1.764v1.846h1.764v6.271c0 2.142.969 2.999 3.407 2.999.428 0 .836-.051 1.193-.112V36.44c-.306.03-.5.051-.837.051-1.091 0-1.57-.51-1.57-1.672v-5.711h2.407v-1.846h-2.407v-2.815h-2.193Zm10.809 14.083c3.243 0 5.231-2.172 5.231-5.771 0-3.58-1.998-5.762-5.231-5.762-3.243 0-5.242 2.182-5.242 5.762 0 3.6 1.989 5.772 5.242 5.772Zm0-1.947c-1.907 0-2.978-1.397-2.978-3.824 0-2.407 1.071-3.814 2.978-3.814 1.897 0 2.978 1.407 2.978 3.814 0 2.416-1.081 3.824-2.978 3.824Zm6.933 1.733h2.192V31.76c0-1.56 1.173-2.61 2.835-2.61.388 0 1.041.07 1.224.132V27.12c-.234-.061-.652-.092-.979-.092-1.448 0-2.682.796-2.998 1.887h-.163V27.21h-2.111v11.105Zm11.695-9.453c1.622 0 2.682 1.132 2.733 2.876h-5.608c.122-1.734 1.254-2.876 2.875-2.876Zm2.723 6.455c-.408.867-1.315 1.346-2.641 1.346-1.754 0-2.886-1.233-2.957-3.181v-.123h7.842v-.765c0-3.487-1.866-5.598-4.956-5.598-3.131 0-5.12 2.253-5.12 5.802 0 3.55 1.948 5.732 5.13 5.732 2.539 0 4.314-1.224 4.813-3.213h-2.111Zm-46.538-1.103c.169 2.727 2.441 4.471 5.824 4.471 3.615 0 5.877-1.828 5.877-4.745 0-2.294-1.29-3.563-4.419-4.292l-1.68-.412c-1.987-.465-2.79-1.089-2.79-2.177 0-1.375 1.247-2.273 3.118-2.273 1.775 0 3.001.877 3.223 2.283h2.305c-.138-2.569-2.4-4.376-5.497-4.376-3.33 0-5.55 1.808-5.55 4.524 0 2.24 1.259 3.573 4.017 4.217l1.967.476c2.018.476 2.906 1.173 2.906 2.336 0 1.353-1.395 2.336-3.298 2.336-2.04 0-3.456-.92-3.657-2.368h-2.346Zm-22.713-7.188c-1.51 0-2.815.755-3.488 2.02h-.163V27.21h-2.111v14.797h2.192v-5.374h.174c.581 1.173 1.835 1.866 3.416 1.866 2.805 0 4.59-2.213 4.59-5.741 0-3.529-1.785-5.732-4.61-5.732Zm-.622 9.505c-1.836 0-2.989-1.448-2.989-3.763 0-2.325 1.153-3.773 2.999-3.773 1.856 0 2.967 1.417 2.967 3.763 0 2.355-1.111 3.773-2.977 3.773Zm12.903-9.505c-1.509 0-2.814.755-3.487 2.02H71.7V27.21h-2.112v14.797h2.193v-5.374h.173c.582 1.173 1.836 1.866 3.417 1.866 2.804 0 4.589-2.213 4.589-5.741 0-3.529-1.785-5.732-4.61-5.732Zm-.622 9.505c-1.835 0-2.988-1.448-2.988-3.763 0-2.325 1.153-3.773 2.999-3.773 1.856 0 2.967 1.417 2.967 3.763 0 2.355-1.111 3.773-2.978 3.773Zm-21.355 1.784h2.516L50.38 23.064h-2.547l-5.507 15.252h2.431l1.406-4.048h5.814l1.395 4.048Zm-4.387-12.483h.18l2.21 6.448h-4.61l2.22-6.448ZM43.8 11.56v7.357h2.657c2.192 0 3.462-1.35 3.462-3.702 0-2.315-1.28-3.655-3.462-3.655H43.8Zm1.142 1.04h1.387c1.525 0 2.427.969 2.427 2.63 0 1.689-.887 2.647-2.427 2.647h-1.387V12.6Zm8.865 6.424c1.622 0 2.616-1.086 2.616-2.886 0-1.79-1-2.88-2.616-2.88-1.621 0-2.62 1.09-2.62 2.88 0 1.8.994 2.886 2.62 2.886Zm0-.973c-.953 0-1.489-.699-1.489-1.913 0-1.203.536-1.907 1.49-1.907.948 0 1.488.704 1.488 1.907 0 1.209-.54 1.913-1.489 1.913Zm11.083-4.687h-1.096l-.989 4.238h-.087l-1.142-4.238h-1.05l-1.142 4.238h-.082l-.994-4.238h-1.112l1.53 5.553h1.127l1.142-4.089h.087l1.147 4.09h1.137l1.525-5.553Zm1.263 5.553h1.096V15.67c0-.867.515-1.407 1.326-1.407.81 0 1.198.444 1.198 1.336v3.32h1.097v-3.595c0-1.321-.684-2.066-1.923-2.066-.836 0-1.386.373-1.657.99h-.081v-.883h-1.056v5.553Zm6.443 0h1.097v-7.72h-1.097v7.72Zm5.22.107c1.621 0 2.615-1.086 2.615-2.886 0-1.79-.999-2.88-2.615-2.88-1.622 0-2.621 1.09-2.621 2.88 0 1.8.994 2.886 2.62 2.886Zm0-.973c-.954 0-1.49-.699-1.49-1.913 0-1.203.536-1.907 1.49-1.907.948 0 1.489.704 1.489 1.907 0 1.209-.54 1.913-1.49 1.913Zm5.882.035c-.597 0-1.03-.29-1.03-.79 0-.49.347-.75 1.111-.8l1.357-.087v.464c0 .688-.612 1.213-1.438 1.213Zm-.28.923c.729 0 1.335-.316 1.667-.872h.087v.78h1.055v-3.793c0-1.173-.785-1.867-2.177-1.867-1.26 0-2.157.612-2.27 1.566h1.061c.123-.393.546-.617 1.158-.617.75 0 1.137.331 1.137.918v.479l-1.504.087c-1.321.081-2.065.658-2.065 1.657 0 1.015.78 1.662 1.85 1.662Zm6.529.001c.765 0 1.413-.363 1.744-.97h.087v.877h1.05v-7.72h-1.096v3.05h-.082c-.3-.612-.943-.974-1.703-.974-1.402 0-2.304 1.111-2.304 2.865 0 1.76.892 2.871 2.304 2.871Zm.311-4.753c.918 0 1.494.729 1.494 1.886 0 1.163-.57 1.882-1.494 1.882-.928 0-1.483-.709-1.483-1.887 0-1.167.56-1.881 1.483-1.881Zm9.679 4.767c1.622 0 2.616-1.086 2.616-2.886 0-1.79-.999-2.88-2.616-2.88-1.621 0-2.62 1.09-2.62 2.88 0 1.8.994 2.886 2.62 2.886Zm0-.973c-.953 0-1.489-.699-1.489-1.913 0-1.203.536-1.907 1.49-1.907.948 0 1.488.704 1.488 1.907 0 1.209-.54 1.913-1.489 1.913Zm4.067.866h1.097V15.67c0-.867.515-1.407 1.325-1.407.811 0 1.199.444 1.199 1.336v3.32h1.096v-3.595c0-1.321-.683-2.066-1.922-2.066-.837 0-1.387.373-1.657.99h-.082v-.883h-1.056v5.553Zm9.766-6.934v1.407h-.882v.923h.882v3.136c0 1.07.485 1.499 1.703 1.499.214 0 .418-.026.597-.056v-.913c-.153.015-.25.026-.418.026-.546 0-.786-.255-.786-.837v-2.855h1.204v-.923h-1.204v-1.407h-1.096Zm3.771 6.934h1.097v-3.243c0-.84.499-1.407 1.397-1.407.775 0 1.188.449 1.188 1.336v3.314h1.096v-3.584c0-1.32-.729-2.07-1.912-2.07-.836 0-1.423.372-1.693.994h-.087v-3.06h-1.086v7.72Zm8.733-4.727c.811 0 1.341.567 1.367 1.439h-2.805c.061-.867.627-1.438 1.438-1.438Zm1.361 3.228c-.203.434-.657.673-1.32.673-.877 0-1.443-.617-1.479-1.59v-.062h3.921v-.382c0-1.744-.933-2.8-2.478-2.8-1.565 0-2.56 1.127-2.56 2.902 0 1.774.974 2.866 2.565 2.866 1.27 0 2.157-.612 2.407-1.607h-1.056ZM30.43 25.799a6.129 6.129 0 0 1 2.896-5.102 6.3 6.3 0 0 0-4.904-2.65c-2.063-.217-4.063 1.234-5.114 1.234-1.072 0-2.69-1.213-4.433-1.177a6.584 6.584 0 0 0-5.496 3.351c-2.376 4.114-.604 10.16 1.673 13.485 1.138 1.628 2.47 3.447 4.21 3.383 1.705-.07 2.341-1.087 4.398-1.087 2.038 0 2.635 1.087 4.412 1.046 1.829-.03 2.98-1.636 4.08-3.28a13.468 13.468 0 0 0 1.865-3.799A5.927 5.927 0 0 1 30.43 25.8Zm-3.356-9.939a5.986 5.986 0 0 0 1.37-4.289 6.09 6.09 0 0 0-3.941 2.04 5.748 5.748 0 0 0-1.405 4.129 5.095 5.095 0 0 0 3.976-1.88Z" fill="#001D26"/></svg>