<svg width="25" height="25" fill="none" xmlns="http://www.w3.org/2000/svg"><path d="M12.572 5.645V3.612m-2.035 13.212-.508-3.05m4.575 3.05.508-3.05M2.408 9.71h20.326v0c-1.287 0-1.93 0-2.422.304-.163.1-.31.224-.439.366-.387.43-.503 1.063-.733 2.33l-.88 4.841c-.29 1.596-.435 2.394-1.001 2.866-.566.472-1.377.472-2.999.472h-3.377c-1.623 0-2.434 0-3-.472-.565-.472-.71-1.27-1-2.866l-.88-4.842c-.23-1.266-.346-1.9-.734-2.329a2.032 2.032 0 0 0-.438-.366c-.492-.304-1.135-.304-2.423-.304v0Z" stroke="#fff" stroke-width="2.033" stroke-linecap="round"/></svg>