<svg width="18" height="18" fill="none" xmlns="http://www.w3.org/2000/svg"><path d="M7.328 15.926c0 .311-.085.616-.245.874-.16.26-.387.461-.653.58a1.35 1.35 0 0 1-.84.09 1.425 1.425 0 0 1-.745-.431c-.204-.22-.342-.5-.398-.806a1.694 1.694 0 0 1 .082-.91c.11-.287.297-.533.536-.706.24-.173.52-.265.808-.265.386.002.754.168 1.027.463.272.295.426.694.428 1.11Zm6.11-1.574c-.288 0-.57.092-.809.265a1.553 1.553 0 0 0-.535.707c-.11.287-.14.604-.083.909.056.305.195.586.398.806.203.22.463.37.745.43.282.061.575.03.84-.089.266-.119.493-.32.653-.58a1.667 1.667 0 0 0-.183-1.985 1.408 1.408 0 0 0-1.026-.463Zm3.585-9.5-1.76 6.643c-.123.46-.38.863-.732 1.151a1.944 1.944 0 0 1-1.224.447H6.004a1.944 1.944 0 0 1-1.224-.447 2.223 2.223 0 0 1-.732-1.151L2.295 4.868c0-.008-.007-.024-.007-.031L1.64 2.389H.927a.84.84 0 0 1-.617-.277.985.985 0 0 1-.255-.668c0-.25.092-.49.255-.667A.84.84 0 0 1 .927.5h.931c.317.003.623.115.876.32.253.206.438.493.528.821l.524 2.007H16.18a.827.827 0 0 1 .388.1.9.9 0 0 1 .308.277 1.028 1.028 0 0 1 .147.827Zm-2 .685H4.288l1.433 5.439a.324.324 0 0 0 .107.164.284.284 0 0 0 .176.064h7.303a.283.283 0 0 0 .176-.064.323.323 0 0 0 .107-.165l1.433-5.438Z" fill="#fff"/></svg>