<svg width="32" height="30" fill="none" xmlns="http://www.w3.org/2000/svg"><g clip-path="url(#a)"><mask id="b" style="mask-type:luminance" maskUnits="userSpaceOnUse" x="0" y="0" width="33" height="30"><path d="M32 0H0v30h32V0Z" fill="#fff"/></mask><g mask="url(#b)" fill="#444"><path d="M12.055 9.947c-1.481 0-2.666-1.238-2.666-2.732 0-1.518 1.208-2.732 2.666-2.732 1.459 0 2.69 1.214 2.69 2.732 0 1.518-1.209 2.732-2.69 2.732Zm0-3.83c-.592 0-1.07.49-1.07 1.098 0 .607.478 1.097 1.07 1.097.593 0 1.071-.49 1.071-1.097s-.478-1.098-1.07-1.098Zm3.852 10.111c-1.8 0-3.282-1.495-3.282-3.362 0-1.868 1.459-3.363 3.282-3.363s3.281 1.518 3.281 3.386-1.458 3.339-3.281 3.339Zm0-5.067c-.934 0-1.687.77-1.687 1.728 0 .957.752 1.728 1.687 1.728.934 0 1.686-.77 1.686-1.728 0-.957-.752-1.728-1.686-1.728Zm7.953 5.067c-1.8 0-3.282-1.495-3.282-3.362 0-1.868 1.459-3.363 3.282-3.363 1.8 0 3.282 1.495 3.282 3.363 0 1.867-1.482 3.362-3.282 3.362Zm0-5.067c-.934 0-1.686.77-1.686 1.728 0 .957.752 1.728 1.686 1.728.934 0 1.686-.77 1.686-1.728 0-.957-.775-1.728-1.686-1.728ZM7.794 16.228c-1.8 0-3.282-1.495-3.282-3.363 0-1.867 1.458-3.362 3.282-3.362 1.823 0 3.281 1.518 3.281 3.386s-1.458 3.339-3.281 3.339Zm0-5.067c-.935 0-1.687.77-1.687 1.728 0 .957.752 1.728 1.687 1.728.934 0 1.686-.77 1.686-1.728 0-.957-.752-1.728-1.686-1.728Zm3.966 12.165c-1.8 0-3.282-1.494-3.282-3.362s1.458-3.339 3.281-3.339c1.8 0 3.282 1.494 3.282 3.362s-1.481 3.34-3.282 3.34Zm0-5.067c-.935 0-1.687.771-1.687 1.728 0 .958.752 1.728 1.686 1.728.935 0 1.687-.77 1.687-1.728 0-.957-.775-1.728-1.687-1.728Zm8.294 5.067c-1.8 0-3.281-1.494-3.281-3.362s1.48-3.34 3.281-3.34c1.8 0 3.282 1.495 3.282 3.363 0 1.868-1.459 3.34-3.282 3.34Zm0-5.067c-.934 0-1.686.77-1.686 1.728s.752 1.728 1.686 1.728c.934 0 1.687-.77 1.687-1.728 0-.957-.753-1.728-1.687-1.728Zm-.068-8.312c-1.482 0-2.666-1.238-2.666-2.732 0-1.518 1.207-2.732 2.666-2.732 1.458 0 2.666 1.238 2.666 2.732 0 1.518-1.208 2.732-2.666 2.732Zm0-3.83c-.593 0-1.071.49-1.071 1.098 0 .607.478 1.097 1.07 1.097.593 0 1.072-.49 1.072-1.097s-.479-1.098-1.071-1.098Z"/><path d="M15.907 29.607C7.133 29.607 0 22.3 0 13.31 0 8.126 2.325 3.362 6.381.233L6.677 0h18.436l.297.233c4.056 3.106 6.38 7.87 6.38 13.076.046 8.99-7.11 16.298-15.883 16.298ZM7.452 2.335C4.148 4.997 2.28 8.99 2.28 13.309c0 7.706 6.107 13.963 13.628 13.963 7.52 0 13.627-6.257 13.627-13.963 0-4.32-1.891-8.289-5.173-10.974H7.452Z"/></g></g><defs><clipPath id="a"><path fill="#fff" d="M0 0h32v30H0z"/></clipPath></defs></svg>