<svg width="25" height="24" fill="none" xmlns="http://www.w3.org/2000/svg"><g clip-path="url(#a)"><path fill-rule="evenodd" clip-rule="evenodd" d="M18.838 4a1 1 0 0 0-2 0v1h-12a1 1 0 0 0 0 2h12v1a1 1 0 1 0 2 0V7h2a1 1 0 1 0 0-2h-2V4Zm-14 7a1 1 0 0 0 0 2h2v1a1 1 0 1 0 2 0v-1h12a1 1 0 0 0 0-2h-12v-1a1 1 0 0 0-2 0v1h-2Zm-1 7a1 1 0 0 1 1-1h12v-1a1 1 0 1 1 2 0v1h2a1 1 0 0 1 0 2h-2v1a1 1 0 0 1-2 0v-1h-12a1 1 0 0 1-1-1Z" fill="#F98418"/></g><defs><clipPath id="a"><path fill="#fff" transform="translate(.838)" d="M0 0h24v24H0z"/></clipPath></defs></svg>