<svg width="55" height="55" fill="none" xmlns="http://www.w3.org/2000/svg"><path d="M26.285 8.802a1.719 1.719 0 0 1 2.43 0l19.914 19.915a1.718 1.718 0 1 0 2.43-2.432L31.145 6.371a5.157 5.157 0 0 0-7.292 0L3.939 26.285a1.72 1.72 0 1 0 2.432 2.43L26.285 8.802Z" fill="#E78512"/><path d="m27.5 12.448 18.698 18.698c.069.067.138.133.208.197v14.204a4.298 4.298 0 0 1-4.297 4.297h-7.734a1.719 1.719 0 0 1-1.719-1.719V37.812a1.718 1.718 0 0 0-1.718-1.718h-6.875a1.719 1.719 0 0 0-1.72 1.718v10.313a1.719 1.719 0 0 1-1.718 1.719h-7.734a4.297 4.297 0 0 1-4.297-4.297V31.343l.208-.197L27.5 12.448Z" fill="#E78512"/></svg>