<svg width="33" height="33" fill="none" xmlns="http://www.w3.org/2000/svg"><path d="M23.454 7.947a1.6 1.6 0 1 0 0 3.2 1.6 1.6 0 0 0 0-3.2Zm6.133 3.227a10.12 10.12 0 0 0-.613-3.24 6.586 6.586 0 0 0-1.547-2.36 6.266 6.266 0 0 0-2.36-1.534 9.733 9.733 0 0 0-3.24-.626c-1.413-.08-1.866-.08-5.493-.08-3.627 0-4.08 0-5.493.08a9.733 9.733 0 0 0-3.24.626 6.373 6.373 0 0 0-2.36 1.534 6.267 6.267 0 0 0-1.534 2.36 9.733 9.733 0 0 0-.626 3.24C3 12.587 3 13.04 3 16.667c0 3.627 0 4.08.08 5.493a9.733 9.733 0 0 0 .626 3.24c.326.893.85 1.7 1.534 2.36a6.372 6.372 0 0 0 2.36 1.534 9.732 9.732 0 0 0 3.24.626c1.413.08 1.866.08 5.493.08 3.627 0 4.08 0 5.493-.08a9.732 9.732 0 0 0 3.24-.626c.893-.326 1.7-.85 2.36-1.534a6.466 6.466 0 0 0 1.547-2.36c.38-1.039.587-2.133.613-3.24 0-1.413.08-1.866.08-5.493 0-3.627 0-4.08-.08-5.493ZM27.187 22a7.48 7.48 0 0 1-.453 2.48 4.079 4.079 0 0 1-1 1.534 4.27 4.27 0 0 1-1.533 1 7.479 7.479 0 0 1-2.48.453c-1.334.067-1.827.08-5.334.08-3.506 0-4 0-5.333-.08a7.642 7.642 0 0 1-2.587-.4 4.36 4.36 0 0 1-1.466-1 4 4 0 0 1-.987-1.533A7.386 7.386 0 0 1 5.481 22c0-1.333-.08-1.826-.08-5.333s0-4 .08-5.333A7.387 7.387 0 0 1 5.947 8.8a4 4 0 0 1 1.054-1.466 4.187 4.187 0 0 1 1.466-1.067 7.64 7.64 0 0 1 2.534-.453c1.333 0 1.826-.08 5.333-.08s4 0 5.333.08a7.48 7.48 0 0 1 2.48.453 4.08 4.08 0 0 1 1.587 1.067c.437.41.778.91 1 1.466a7.48 7.48 0 0 1 .453 2.534c.067 1.333.08 1.826.08 5.333s-.013 4-.08 5.333ZM16.334 9.827a6.84 6.84 0 1 0 6.853 6.84 6.827 6.827 0 0 0-6.853-6.84Zm0 11.28a4.44 4.44 0 1 1 0-8.88 4.44 4.44 0 0 1 0 8.88Z" fill="#fff"/></svg>