<svg width="183" height="51" fill="none" xmlns="http://www.w3.org/2000/svg"><path fill-rule="evenodd" clip-rule="evenodd" d="M30.779 46.304V41.77l4.804-6.063 4.805-6.062.24-2.275c.131-1.252.261-5.38.288-9.174.046-6.51.008-6.94-.665-7.612-.952-.952-1.568-.899-2.44.209-.665.845-.726 1.387-.726 6.475 0 3.14.14 5.552.322 5.552.177 0 .674.57 1.104 1.265.596.963.707 1.46.467 2.083-.433 1.118-7.086 8.201-7.703 8.201-1.183 0-.274-1.46 2.832-4.55 1.83-1.82 3.328-3.554 3.328-3.852 0-.816-1.015-2.097-1.661-2.097-.602 0-1.422.645-8.59 6.762-2.812 2.4-4.566 4.157-4.73 4.738-.142.508-.259 4.153-.259 8.099v7.174l4.292.099 4.292.098v-4.535ZM19.785 50.31c.335-.873-.023-14.682-.397-15.31-.592-.994-12.89-11.13-13.504-11.13-.755 0-1.732 1.105-1.732 1.96 0 .392 1.406 2.077 3.328 3.99 2.99 2.974 4.154 4.8 2.86 4.487-.258-.062-2.071-1.8-4.03-3.86-4.09-4.308-4.284-4.873-2.333-6.822L5.203 22.4v-5.405c0-5.273-.021-5.427-.86-6.265-1.043-1.042-1.719-1.083-2.644-.16-.664.664-.7 1.167-.7 9.657v8.957l4.967 6.15c2.733 3.383 5.006 6.48 5.051 6.88.046.402.097 2.502.113 4.667l.029 3.937h4.215c3.365 0 4.255-.102 4.41-.508Z" fill="#43A765"/><path fill-rule="evenodd" clip-rule="evenodd" d="M23.204 19.505c2.169-3.502 4.05-6.622 4.18-6.933.376-.903-.355-1.196-3.058-1.225-1.327-.014-2.446-.042-2.489-.063-.057-.027.988-7.774 1.411-10.465.028-.175-.059-.364-.192-.419-.29-.12-8.545 13.133-8.47 13.597.1.6.824.782 3.224.807 1.314.014 2.416.037 2.45.051.034.014-.283 2.423-.703 5.354-.42 2.93-.66 5.403-.53 5.496.128.092 2.008-2.698 4.177-6.2Z" fill="#FA5507"/><path d="M58.431 42.589V25.457h-1.97v17.132h1.97Zm-1-23.585c-1.084 0-1.541.542-1.541 1.342 0 .77.457 1.313 1.542 1.313 1.113 0 1.57-.542 1.57-1.313 0-.8-.457-1.342-1.57-1.342ZM84.84 35.708c-.685 3.169-3.57 5.367-9.623 5.367-7.052 0-9.793-2.998-9.793-7.052 0-4.055 2.74-7.053 9.793-7.053 6.054 0 8.938 2.199 9.623 5.368h1.999c-.714-4.283-4.197-7.224-11.621-7.224-8.367 0-11.764 3.74-11.764 8.909 0 5.168 3.397 8.908 11.763 8.908 7.425 0 10.908-2.94 11.622-7.223H84.84Zm17.317-10.594c-7.88 0-11.193 3.74-11.193 8.909 0 5.168 3.312 8.908 11.193 8.908 5.654 0 8.937-1.913 10.365-4.882v4.54h1.97V25.457h-1.97v4.54c-1.428-2.97-4.711-4.883-10.365-4.883Zm.571 15.961c-7.053 0-9.794-2.998-9.794-7.052 0-4.055 2.741-7.053 9.794-7.053 7.053 0 9.794 2.998 9.794 7.053 0 4.054-2.741 7.052-9.794 7.052Zm30.197-15.96c-5.625 0-8.938 1.912-10.365 4.882v-4.54h-1.97V48.3h1.97V38.049c1.427 2.97 4.74 4.883 10.365 4.883 7.909 0 11.221-3.741 11.221-8.91 0-5.167-3.312-8.908-11.221-8.908Zm-.543 15.96c-7.053 0-9.822-2.998-9.822-7.052 0-4.055 2.769-7.053 9.822-7.053 7.053 0 9.794 2.998 9.794 7.053 0 4.054-2.741 7.052-9.794 7.052Zm18.832 1.514V25.457h-1.97v17.132h1.97Zm-.999-23.585c-1.085 0-1.542.542-1.542 1.342 0 .77.457 1.313 1.542 1.313 1.114 0 1.57-.542 1.57-1.313 0-.8-.456-1.342-1.57-1.342Zm17.214 6.11c-7.881 0-11.193 3.74-11.193 8.909 0 5.168 3.312 8.908 11.193 8.908 5.653 0 8.937-1.913 10.365-4.882v4.54h1.97V25.457h-1.97v4.54c-1.428-2.97-4.712-4.883-10.365-4.883ZM168 41.075c-7.053 0-9.794-2.998-9.794-7.052 0-4.055 2.741-7.053 9.794-7.053 7.053 0 9.794 2.998 9.794 7.053 0 4.054-2.741 7.052-9.794 7.052Z" fill="#000"/><path d="M58.431 42.589v.645h.645v-.645h-.645Zm0-17.132h.645v-.645h-.645v.645Zm-1.97 0v-.645h-.645v.645h.645Zm0 17.132h-.645v.645h.645v-.645Zm2.615 0V25.457h-1.29v17.132h1.29Zm-.645-17.777h-1.97v1.29h1.97v-1.29Zm-2.615.645v17.132h1.29V25.457h-1.29Zm.645 17.777h1.97v-1.29h-1.97v1.29Zm.97-24.875c-.642 0-1.21.16-1.62.546-.415.392-.566.92-.566 1.44h1.29c0-.278.077-.421.161-.5.09-.086.293-.196.736-.196v-1.29Zm-2.186 1.987c0 .513.155 1.033.57 1.418.408.38.974.54 1.617.54v-1.29c-.443 0-.648-.11-.74-.195-.084-.079-.157-.215-.157-.473h-1.29Zm2.187 1.958c.653 0 1.225-.159 1.638-.537.422-.386.577-.908.577-1.421h-1.29c0 .257-.073.392-.158.47-.094.086-.307.198-.767.198v1.29Zm2.215-1.958c0-.522-.152-1.052-.573-1.444-.414-.385-.99-.543-1.642-.543v1.29c.46 0 .67.112.763.198.086.08.162.22.162.499h1.29ZM84.84 35.708v-.645h-.52l-.11.508.63.137Zm0-3.37-.63.136.11.51h.52v-.646Zm1.999 0v.645h.761l-.125-.75-.636.105Zm0 3.37.636.105.125-.75h-.761v.645Zm-2.63-.137c-.305 1.415-1.093 2.605-2.501 3.457-1.428.864-3.533 1.403-6.49 1.403v1.29c3.095 0 5.459-.561 7.158-1.59 1.718-1.039 2.715-2.533 3.094-4.287l-1.26-.273Zm-8.992 4.86c-3.448 0-5.73-.735-7.138-1.865-1.385-1.11-2.01-2.672-2.01-4.543h-1.29c0 2.183.745 4.148 2.493 5.55 1.726 1.383 4.341 2.148 7.945 2.148v-1.29Zm-9.148-6.408c0-1.872.625-3.433 2.01-4.544 1.409-1.129 3.69-1.864 7.138-1.864v-1.29c-3.604 0-6.22.764-7.945 2.148-1.748 1.402-2.493 3.367-2.493 5.55h1.29Zm9.148-6.408c2.958 0 5.063.539 6.49 1.402 1.41.853 2.197 2.043 2.503 3.457l1.26-.272c-.379-1.755-1.376-3.249-3.094-4.288-1.7-1.028-4.063-1.589-7.159-1.589v1.29Zm9.623 5.368h1.999v-1.29H84.84v1.29Zm2.635-.75c-.383-2.3-1.522-4.27-3.57-5.648-2.031-1.367-4.9-2.116-8.688-2.116v1.29c3.636 0 6.222.721 7.967 1.896 1.728 1.163 2.688 2.806 3.019 4.79l1.272-.213Zm-12.258-7.764c-4.267 0-7.378.953-9.432 2.666-2.072 1.729-2.977 4.155-2.977 6.888h1.29c0-2.435.795-4.464 2.513-5.897 1.737-1.45 4.508-2.367 8.606-2.367v-1.29Zm-12.408 9.554c0 2.733.904 5.159 2.976 6.887 2.054 1.714 5.165 2.667 9.432 2.667v-1.29c-4.098 0-6.869-.918-8.606-2.367-1.718-1.434-2.513-3.462-2.513-5.897h-1.29Zm12.408 9.553c3.789 0 6.657-.749 8.688-2.115 2.049-1.38 3.187-3.348 3.57-5.648l-1.272-.212c-.331 1.984-1.291 3.627-3.019 4.79-1.745 1.174-4.33 1.895-7.967 1.895v1.29Zm11.622-8.514H84.84v1.29h1.999v-1.29Zm25.683 2.987h.645l-1.226-.28.581.28Zm0 4.54h-.645v.645h.645v-.645Zm1.97 0v.645h.645v-.645h-.645Zm0-17.132h.645v-.645h-.645v.645Zm-1.97 0v-.645h-.645v.645h.645Zm0 4.54-.581.28 1.226-.28h-.645Zm-10.365-5.528c-4.033 0-7.005.957-8.976 2.675-1.983 1.73-2.862 4.152-2.862 6.879h1.29c0-2.442.777-4.474 2.42-5.907 1.656-1.443 4.28-2.357 8.128-2.357v-1.29Zm-11.838 9.554c0 2.726.879 5.149 2.862 6.878 1.971 1.719 4.943 2.675 8.976 2.675v-1.29c-3.848 0-6.472-.913-8.128-2.357-1.643-1.433-2.42-3.465-2.42-5.906h-1.29Zm11.838 9.553c5.793 0 9.371-1.971 10.946-5.248l-1.162-.559c-1.28 2.663-4.269 4.517-9.784 4.517v1.29Zm9.72-5.527v4.54h1.29v-4.54h-1.29Zm.645 5.185h1.97v-1.29h-1.97v1.29Zm2.615-.645V25.457h-1.29v17.132h1.29Zm-.645-17.777h-1.97v1.29h1.97v-1.29Zm-2.615.645v4.54h1.29v-4.54h-1.29Zm1.226 4.26c-1.575-3.276-5.153-5.248-10.946-5.248v1.29c5.515 0 8.504 1.855 9.784 4.517l1.162-.559Zm-10.375 10.714c-3.448 0-5.73-.735-7.138-1.865-1.385-1.11-2.01-2.672-2.01-4.543h-1.29c0 2.183.745 4.148 2.493 5.55 1.725 1.383 4.34 2.148 7.945 2.148v-1.29Zm-9.149-6.408c0-1.872.626-3.433 2.011-4.544 1.408-1.129 3.69-1.864 7.138-1.864v-1.29c-3.604 0-6.22.764-7.945 2.148-1.748 1.402-2.494 3.367-2.494 5.55h1.29Zm9.149-6.408c3.449 0 5.73.735 7.138 1.864 1.386 1.111 2.011 2.672 2.011 4.544h1.29c0-2.183-.745-4.149-2.494-5.55-1.725-1.384-4.341-2.148-7.945-2.148v1.29Zm9.149 6.408c0 1.871-.625 3.432-2.011 4.543-1.408 1.13-3.689 1.864-7.138 1.864v1.29c3.604 0 6.22-.764 7.945-2.147 1.749-1.402 2.494-3.367 2.494-5.55h-1.29Zm10.683-4.026h-.645l1.226.28-.581-.28Zm0-4.54h.645v-.645h-.645v.645Zm-1.97 0v-.645h-.645v.645h.645Zm0 22.843h-.645v.645h.645V48.3Zm1.97 0v.645h.645V48.3h-.645Zm0-10.251.581-.28-1.226.28h.645Zm10.365-13.58c-5.764 0-9.371 1.971-10.947 5.248l1.163.56c1.28-2.663 4.297-4.518 9.784-4.518v-1.29Zm-9.72 5.528v-4.54h-1.29v4.54h1.29Zm-.645-5.185h-1.97v1.29h1.97v-1.29Zm-2.615.645V48.3h1.29V25.457h-1.29Zm.645 23.488h1.97v-1.29h-1.97v1.29Zm2.615-.645V38.049h-1.29v10.25h1.29Zm-1.227-9.972c1.576 3.278 5.183 5.248 10.947 5.248v-1.29c-5.487 0-8.504-1.855-9.784-4.517l-1.163.56Zm10.947 5.248c4.047 0 7.025-.956 9-2.674 1.987-1.73 2.866-4.152 2.866-6.88h-1.29c0 2.442-.777 4.474-2.423 5.907-1.659 1.444-4.291 2.357-8.153 2.357v1.29Zm11.866-9.553c0-2.727-.879-5.15-2.866-6.88-1.975-1.718-4.953-2.674-9-2.674v1.29c3.862 0 6.494.914 8.153 2.358 1.646 1.432 2.423 3.464 2.423 5.906h1.29Zm-12.409 6.407c-3.448 0-5.738-.734-7.153-1.864-1.393-1.112-2.024-2.674-2.024-4.543h-1.29c0 2.185.754 4.15 2.509 5.55 1.732 1.383 4.354 2.148 7.958 2.148v-1.29Zm-9.177-6.407c0-1.87.631-3.431 2.024-4.543 1.415-1.13 3.705-1.865 7.153-1.865v-1.29c-3.604 0-6.226.764-7.958 2.147-1.755 1.4-2.509 3.366-2.509 5.55h1.29Zm9.177-6.408c3.449 0 5.73.735 7.138 1.864 1.386 1.111 2.011 2.672 2.011 4.544h1.29c0-2.183-.745-4.149-2.494-5.55-1.725-1.384-4.341-2.148-7.945-2.148v1.29Zm9.149 6.408c0 1.871-.625 3.432-2.011 4.543-1.408 1.13-3.689 1.864-7.138 1.864v1.29c3.604 0 6.22-.764 7.945-2.147 1.749-1.402 2.494-3.367 2.494-5.55h-1.29Zm9.683 8.566v.645h.645v-.645h-.645Zm0-17.132h.645v-.645h-.645v.645Zm-1.97 0v-.645h-.645v.645h.645Zm0 17.132h-.645v.645h.645v-.645Zm2.615 0V25.457h-1.29v17.132h1.29Zm-.645-17.777h-1.97v1.29h1.97v-1.29Zm-2.615.645v17.132h1.29V25.457h-1.29Zm.645 17.777h1.97v-1.29h-1.97v1.29Zm.971-24.875c-.643 0-1.211.16-1.62.546-.415.392-.567.92-.567 1.44h1.29c0-.278.077-.421.162-.5.09-.086.292-.196.735-.196v-1.29Zm-2.187 1.987c0 .513.155 1.033.57 1.418.408.38.974.54 1.617.54v-1.29c-.442 0-.648-.11-.739-.195-.085-.079-.158-.215-.158-.473h-1.29Zm2.187 1.958c.653 0 1.225-.159 1.638-.537.422-.386.577-.908.577-1.421h-1.29c0 .257-.072.392-.158.47-.094.086-.306.198-.767.198v1.29Zm2.215-1.958c0-.522-.151-1.052-.573-1.444-.414-.385-.989-.543-1.642-.543v1.29c.461 0 .671.112.764.198.085.08.161.22.161.499h1.29Zm25.364 17.703h.645l-1.227-.28.582.28Zm0 4.54h-.645v.645h.645v-.645Zm1.97 0v.645h.645v-.645h-.645Zm0-17.132h.645v-.645h-.645v.645Zm-1.97 0v-.645h-.645v.645h.645Zm0 4.54-.582.28 1.227-.28h-.645Zm-10.365-5.528c-4.033 0-7.005.957-8.976 2.675-1.984 1.73-2.862 4.152-2.862 6.879h1.29c0-2.442.777-4.474 2.42-5.907 1.655-1.443 4.28-2.357 8.128-2.357v-1.29Zm-11.838 9.554c0 2.726.878 5.149 2.862 6.878 1.971 1.719 4.943 2.675 8.976 2.675v-1.29c-3.848 0-6.473-.913-8.128-2.357-1.643-1.433-2.42-3.465-2.42-5.906h-1.29Zm11.838 9.553c5.792 0 9.371-1.971 10.946-5.248l-1.163-.559c-1.28 2.663-4.269 4.517-9.783 4.517v1.29Zm9.72-5.527v4.54h1.29v-4.54h-1.29Zm.645 5.185h1.97v-1.29h-1.97v1.29Zm2.615-.645V25.457h-1.29v17.132h1.29Zm-.645-17.777h-1.97v1.29h1.97v-1.29Zm-2.615.645v4.54h1.29v-4.54h-1.29Zm1.226 4.26c-1.575-3.276-5.154-5.248-10.946-5.248v1.29c5.514 0 8.503 1.855 9.783 4.517l1.163-.559ZM168 40.431c-3.449 0-5.73-.735-7.138-1.865-1.386-1.11-2.011-2.672-2.011-4.543h-1.29c0 2.183.745 4.148 2.494 5.55 1.725 1.383 4.341 2.148 7.945 2.148v-1.29Zm-9.149-6.408c0-1.872.625-3.433 2.011-4.544 1.408-1.129 3.689-1.864 7.138-1.864v-1.29c-3.604 0-6.22.764-7.945 2.148-1.749 1.402-2.494 3.367-2.494 5.55h1.29ZM168 27.615c3.448 0 5.73.735 7.138 1.864 1.386 1.111 2.011 2.672 2.011 4.544h1.29c0-2.183-.746-4.149-2.494-5.55-1.725-1.384-4.341-2.148-7.945-2.148v1.29Zm9.149 6.408c0 1.871-.625 3.432-2.011 4.543-1.408 1.13-3.69 1.864-7.138 1.864v1.29c3.604 0 6.22-.764 7.945-2.147 1.748-1.402 2.494-3.367 2.494-5.55h-1.29Z" fill="#000"/><ellipse cx="57.459" cy="20.022" rx="2.419" ry="2.258" fill="#FA5507"/></svg>