<svg width="167" height="50" fill="none" xmlns="http://www.w3.org/2000/svg"><rect x=".714" y=".857" width="165.857" height="49.143" rx="6.143" fill="#fff"/><path d="M84.424 27.58c-2.89 0-5.245 2.198-5.245 5.225 0 3.01 2.355 5.226 5.245 5.226s5.246-2.217 5.246-5.226c-.002-3.027-2.357-5.225-5.246-5.225Zm0 8.394c-1.584 0-2.949-1.306-2.949-3.167 0-1.881 1.366-3.168 2.949-3.168 1.583 0 2.948 1.287 2.948 3.168 0 1.86-1.365 3.167-2.948 3.167ZM72.98 27.58c-2.89 0-5.245 2.198-5.245 5.225 0 3.01 2.355 5.226 5.245 5.226s5.246-2.217 5.246-5.226c0-3.027-2.356-5.225-5.246-5.225Zm0 8.394c-1.584 0-2.949-1.306-2.949-3.167 0-1.881 1.366-3.168 2.949-3.168 1.583 0 2.948 1.287 2.948 3.168.001 1.86-1.365 3.167-2.948 3.167Zm-13.61-6.79v2.217h5.305c-.159 1.247-.574 2.158-1.208 2.79-.772.772-1.98 1.623-4.097 1.623-3.266 0-5.819-2.633-5.819-5.898 0-3.266 2.553-5.899 5.819-5.899 1.761 0 3.048.693 3.997 1.584l1.564-1.564c-1.327-1.267-3.087-2.236-5.561-2.236-4.474 0-8.234 3.642-8.234 8.115 0 4.473 3.76 8.115 8.234 8.115 2.414 0 4.236-.793 5.66-2.277 1.464-1.465 1.92-3.524 1.92-5.186 0-.513-.04-.989-.12-1.385h-7.46v.002Zm55.664 1.722c-.435-1.167-1.762-3.326-4.474-3.326-2.691 0-4.929 2.118-4.929 5.225 0 2.93 2.218 5.226 5.186 5.226 2.395 0 3.781-1.465 4.356-2.316l-1.782-1.188c-.593.87-1.405 1.444-2.574 1.444-1.167 0-1.999-.534-2.533-1.583l6.987-2.89-.237-.592Zm-7.126 1.742c-.059-2.02 1.564-3.048 2.732-3.048.911 0 1.682.456 1.94 1.108l-4.672 1.94Zm-5.68 5.067h2.295V22.356h-2.295v15.359Zm-3.762-8.966h-.078c-.515-.615-1.505-1.169-2.751-1.169-2.613 0-5.008 2.296-5.008 5.246 0 2.93 2.395 5.206 5.008 5.206 1.247 0 2.236-.554 2.75-1.187h.08v.752c0 1.999-1.07 3.067-2.79 3.067-1.406 0-2.277-1.008-2.633-1.86l-2 .832c.574 1.385 2.098 3.088 4.632 3.088 2.692 0 4.969-1.584 4.969-5.444v-9.382h-2.177v.85h-.002Zm-2.631 7.225c-1.584 0-2.91-1.327-2.91-3.148 0-1.841 1.326-3.187 2.91-3.187 1.563 0 2.79 1.346 2.79 3.187 0 1.821-1.227 3.148-2.79 3.148Zm29.954-13.618h-5.493v15.359h2.291v-5.819h3.2c2.541 0 5.04-1.839 5.04-4.77 0-2.93-2.498-4.77-5.038-4.77Zm.059 7.402h-3.261v-5.264h3.261c1.713 0 2.686 1.42 2.686 2.633 0 1.19-.973 2.632-2.686 2.632Zm14.167-2.205c-1.659 0-3.378.731-4.089 2.352l2.034.849c.435-.85 1.246-1.127 2.095-1.127 1.185 0 2.391.711 2.41 1.976v.158c-.415-.237-1.304-.592-2.391-.592-2.193 0-4.426 1.205-4.426 3.457 0 2.056 1.799 3.379 3.813 3.379 1.541 0 2.391-.692 2.924-1.503h.079v1.186h2.214v-5.889c.001-2.725-2.036-4.246-4.663-4.246Zm-.277 8.417c-.75 0-1.798-.376-1.798-1.305 0-1.185 1.305-1.64 2.432-1.64 1.006 0 1.481.218 2.093.514a2.779 2.779 0 0 1-2.727 2.431Zm13.002-8.081-2.628 6.659h-.079l-2.727-6.66h-2.47l4.09 9.307-2.332 5.177h2.391l6.304-14.483h-2.549Zm-20.648 9.826h2.292V22.356h-2.292v15.359ZM58.97 13.442c0 1.03-.304 1.849-.915 2.46-.693.728-1.597 1.091-2.708 1.091-1.064 0-1.97-.368-2.712-1.105-.745-.739-1.117-1.653-1.117-2.744 0-1.092.372-2.006 1.117-2.743.743-.738 1.648-1.107 2.712-1.107.528 0 1.033.103 1.512.308.48.207.865.48 1.153.823l-.648.65c-.487-.584-1.16-.876-2.018-.876-.776 0-1.447.273-2.014.819-.566.545-.849 1.254-.849 2.125s.283 1.58.85 2.125a2.804 2.804 0 0 0 2.013.819c.823 0 1.51-.274 2.059-.823.356-.358.563-.855.618-1.493h-2.677v-.886h3.571c.037.193.053.379.053.557Zm5.664-3.079h-3.356V12.7h3.027v.885h-3.027v2.337h3.356v.907H60.33V9.457h4.304v.906Zm3.994 6.466h-.947v-6.466h-2.06v-.906h5.066v.906h-2.059v6.466Zm5.724 0V9.457h.947v7.372h-.947Zm5.148 0h-.948v-6.466h-2.059v-.906h5.066v.906h-2.06v6.466Zm11.648-.952c-.725.744-1.626 1.117-2.703 1.117-1.078 0-1.978-.373-2.702-1.117-.725-.745-1.086-1.656-1.086-2.734 0-1.077.361-1.989 1.086-2.733.724-.745 1.624-1.118 2.702-1.118 1.071 0 1.97.374 2.698 1.123.727.748 1.09 1.657 1.09 2.728 0 1.078-.362 1.99-1.085 2.734Zm-4.706-.618c.546.553 1.213.828 2.003.828s1.458-.277 2.002-.828c.546-.553.82-1.258.82-2.116 0-.857-.274-1.563-.82-2.116-.544-.552-1.212-.827-2.002-.827-.79 0-1.457.276-2.003.828-.544.552-.818 1.258-.818 2.115 0 .858.274 1.563.818 2.116Zm7.121 1.57V9.457h1.152l3.583 5.734h.04l-.04-1.42V9.457h.947v7.372h-.989l-3.748-6.013h-.04l.04 1.42v4.593h-.945Z" fill="#001D26"/><path d="M58.97 13.442c0 1.03-.304 1.849-.915 2.46-.693.728-1.597 1.091-2.708 1.091-1.064 0-1.97-.368-2.712-1.105-.745-.739-1.117-1.653-1.117-2.744 0-1.092.372-2.006 1.117-2.743.743-.738 1.648-1.107 2.712-1.107.528 0 1.033.103 1.512.308.48.207.865.48 1.153.823l-.648.65c-.487-.584-1.16-.876-2.018-.876-.776 0-1.447.273-2.014.819-.566.545-.849 1.254-.849 2.125s.283 1.58.85 2.125a2.804 2.804 0 0 0 2.013.819c.823 0 1.51-.274 2.059-.823.356-.358.563-.855.618-1.493h-2.677v-.886h3.571c.037.193.053.379.053.557Zm5.664-3.079h-3.356V12.7h3.027v.885h-3.027v2.337h3.356v.907H60.33V9.457h4.304v.906Zm3.994 6.466h-.947v-6.466h-2.06v-.906h5.066v.906h-2.059v6.466Zm5.724 0V9.457h.947v7.372h-.947Zm5.148 0h-.948v-6.466h-2.059v-.906h5.066v.906h-2.06v6.466Zm11.648-.952c-.725.744-1.626 1.117-2.703 1.117-1.078 0-1.978-.373-2.702-1.117-.725-.745-1.086-1.656-1.086-2.734 0-1.077.361-1.989 1.086-2.733.724-.745 1.624-1.118 2.702-1.118 1.071 0 1.97.374 2.698 1.123.727.748 1.09 1.657 1.09 2.728 0 1.078-.362 1.99-1.085 2.734Zm-4.706-.618c.546.553 1.213.828 2.003.828s1.458-.277 2.002-.828c.546-.553.82-1.258.82-2.116 0-.857-.274-1.563-.82-2.116-.544-.552-1.212-.827-2.002-.827-.79 0-1.457.276-2.003.828-.544.552-.818 1.258-.818 2.115 0 .858.274 1.563.818 2.116Zm7.121 1.57V9.457h1.152l3.583 5.734h.04l-.04-1.42V9.457h.947v7.372h-.989l-3.748-6.013h-.04l.04 1.42v4.593h-.945Z" stroke="#001D26" stroke-width=".307" stroke-miterlimit="10"/><g filter="url(#a)"><path d="M13.535 10.118c-.357.379-.568.966-.568 1.726v27.172c0 .761.21 1.347.568 1.726l.091.088 15.221-15.22v-.36l-15.22-15.22-.092.09Z" fill="url(#b)"/><path d="m33.92 30.685-5.073-5.075v-.36l5.074-5.073.114.065 6.012 3.415c1.716.976 1.716 2.572 0 3.548l-6.012 3.416-.115.064Z" fill="url(#c)"/><g filter="url(#d)"><path d="m34.036 30.62-5.19-5.19-15.31 15.312c.565.6 1.5.673 2.553.076L34.036 30.62Z" fill="url(#e)"/></g><path d="M34.036 20.24 16.089 10.045c-1.053-.599-1.988-.524-2.553.076L28.847 25.43l5.189-5.19Z" fill="url(#f)"/></g><defs><linearGradient id="b" x1="27.498" y1="11.557" x2="6.88" y2="32.175" gradientUnits="userSpaceOnUse"><stop stop-color="#00A0FF"/><stop offset=".007" stop-color="#00A1FF"/><stop offset=".26" stop-color="#00BEFF"/><stop offset=".512" stop-color="#00D2FF"/><stop offset=".76" stop-color="#00DFFF"/><stop offset="1" stop-color="#00E3FF"/></linearGradient><linearGradient id="c" x1="42.281" y1="25.43" x2="12.555" y2="25.43" gradientUnits="userSpaceOnUse"><stop stop-color="#FFE000"/><stop offset=".409" stop-color="#FFBD00"/><stop offset=".775" stop-color="orange"/><stop offset="1" stop-color="#FF9C00"/></linearGradient><linearGradient id="e" x1="31.217" y1="28.248" x2="3.257" y2="56.209" gradientUnits="userSpaceOnUse"><stop stop-color="#FF3A44"/><stop offset="1" stop-color="#C31162"/></linearGradient><linearGradient id="f" x1="9.68" y1="1.075" x2="22.165" y2="13.56" gradientUnits="userSpaceOnUse"><stop stop-color="#32A071"/><stop offset=".069" stop-color="#2DA771"/><stop offset=".476" stop-color="#15CF74"/><stop offset=".801" stop-color="#06E775"/><stop offset="1" stop-color="#00F076"/></linearGradient><filter id="a" x="12.967" y="9.631" width="28.367" height="31.6" filterUnits="userSpaceOnUse" color-interpolation-filters="sRGB"><feFlood flood-opacity="0" result="BackgroundImageFix"/><feBlend in="SourceGraphic" in2="BackgroundImageFix" result="shape"/><feColorMatrix in="SourceAlpha" values="0 0 0 0 0 0 0 0 0 0 0 0 0 0 0 0 0 0 127 0" result="hardAlpha"/><feOffset dy="-.23"/><feComposite in2="hardAlpha" operator="arithmetic" k2="-1" k3="1"/><feColorMatrix values="0 0 0 0 0 0 0 0 0 0 0 0 0 0 0 0 0 0 0.12 0"/><feBlend in2="shape" result="effect1_innerShadow_37_1078"/><feColorMatrix in="SourceAlpha" values="0 0 0 0 0 0 0 0 0 0 0 0 0 0 0 0 0 0 127 0" result="hardAlpha"/><feOffset dy=".23"/><feComposite in2="hardAlpha" operator="arithmetic" k2="-1" k3="1"/><feColorMatrix values="0 0 0 0 1 0 0 0 0 1 0 0 0 0 1 0 0 0 0.25 0"/><feBlend in2="effect1_innerShadow_37_1078" result="effect2_innerShadow_37_1078"/></filter><filter id="d" x="13.536" y="25.43" width="20.5" height="15.8" filterUnits="userSpaceOnUse" color-interpolation-filters="sRGB"><feFlood flood-opacity="0" result="BackgroundImageFix"/><feBlend in="SourceGraphic" in2="BackgroundImageFix" result="shape"/><feColorMatrix in="SourceAlpha" values="0 0 0 0 0 0 0 0 0 0 0 0 0 0 0 0 0 0 127 0" result="hardAlpha"/><feOffset dy="-.23"/><feComposite in2="hardAlpha" operator="arithmetic" k2="-1" k3="1"/><feColorMatrix values="0 0 0 0 0 0 0 0 0 0 0 0 0 0 0 0 0 0 0.08 0"/><feBlend in2="shape" result="effect1_innerShadow_37_1078"/></filter></defs></svg>