<svg width="63" height="63" fill="none" xmlns="http://www.w3.org/2000/svg"><path fill-rule="evenodd" clip-rule="evenodd" d="m62.827 31.876-.001 3.093-.003 1.281-.004.983-.005.828-.007.73-.008.66-.01.605-.012.564-.013.529-.015.5-.016.475-.018.454-.02.435-.02.417-.023.403-.024.389-.025.377-.027.365-.03.354-.03.345-.031.335-.033.328-.035.319-.037.311-.038.305-.04.298-.041.292-.043.285-.044.28-.046.275-.048.269-.049.264-.05.26-.053.254-.054.25-.055.246-.058.242-.058.238-.06.234-.063.23-.063.227-.065.222-.067.22-.069.216-.07.213-.071.21-.074.206-.075.203-.076.2-.079.198-.08.195-.081.191-.084.19-.085.186-.086.184-.089.18-.09.18-.092.175-.093.174-.095.17-.097.17-.1.166-.1.164-.102.161-.104.16-.106.157-.107.155-.11.153-.11.15-.114.148-.115.147-.116.144-.119.142-.12.14-.123.138-.124.137-.126.134-.128.132-.13.13-.132.128-.134.126-.136.124-.138.123-.14.12-.142.12-.144.116-.146.115-.148.113-.15.112-.153.11-.155.107-.157.106-.159.104-.161.102-.164.1-.166.1-.169.097-.17.095-.174.094-.176.092-.178.09-.181.089-.183.087-.187.085-.188.083-.192.082-.194.08-.198.079-.2.076-.203.075-.206.074-.21.072-.212.07-.216.069-.219.067-.222.065-.227.063-.23.063-.233.06-.238.059-.241.057-.246.056-.25.054-.254.052-.259.051-.264.05-.269.047-.274.046-.28.045-.284.043-.291.041-.298.04-.304.038-.311.037-.319.035-.326.033-.335.032-.344.03-.354.03-.364.027-.375.025-.388.024-.402.023-.416.021-.434.02-.452.017-.473.017-.498.015-.527.013-.56.012-.603.01-.654.008-.724.008-.819.005-.967.004-1.246.002-2.341.001h-3.84l-1.32-.002-.999-.004-.838-.005-.736-.007-.664-.009-.61-.01-.567-.011-.531-.013-.503-.015-.477-.016-.455-.018-.436-.019-.42-.02-.403-.023-.39-.024-.377-.025-.366-.027-.356-.029-.345-.03-.336-.032-.328-.033-.32-.035-.312-.036-.305-.038-.299-.04-.292-.04-.286-.043-.28-.045-.276-.046-.27-.047-.264-.049-.26-.05-.255-.053-.25-.053-.247-.056-.242-.057-.238-.059-.234-.06-.23-.062-.227-.063-.223-.065-.22-.067-.216-.068-.213-.07-.21-.072-.207-.073-.204-.075-.2-.076-.198-.078-.195-.08-.192-.082-.189-.083-.186-.085-.184-.086-.182-.089-.178-.09-.177-.091-.173-.094-.172-.095-.168-.097-.167-.098-.164-.1-.162-.103-.16-.103-.157-.106-.155-.108-.153-.109-.15-.11-.15-.114-.146-.114-.144-.117-.142-.118-.14-.12-.139-.123-.136-.124-.134-.126-.133-.128-.13-.13-.128-.131-.127-.134-.124-.136-.123-.138-.12-.14-.12-.141-.116-.144-.115-.146-.114-.148-.111-.15-.11-.153-.108-.154-.106-.157-.104-.16-.103-.16-.1-.164-.1-.166-.097-.168-.095-.171-.094-.173-.092-.176-.09-.178-.09-.18-.086-.184-.085-.186-.084-.188-.082-.192-.08-.194-.079-.197-.077-.2-.075-.203-.074-.206-.072-.209-.07-.212-.069-.215-.067-.22-.065-.222-.064-.225-.062-.23-.06-.233-.06-.238-.057-.24-.056-.246-.054-.25-.053-.254-.05-.258-.05-.264-.048-.268-.046-.274-.045-.279-.043-.284-.041-.291-.04-.297-.038-.304-.037-.31-.035-.318-.034-.326-.032-.334-.03-.343-.03-.353-.027-.364-.026-.374-.024-.387-.023-.4-.02-.416-.02-.432-.019-.45-.016-.472-.015-.495-.013-.525-.012-.558-.01-.598-.01-.65-.007-.717-.005-.81-.004-.952-.003-1.215V29.04l.002-1.36.003-1.017.006-.848.006-.743.008-.67.01-.613.012-.57.013-.534.014-.505.016-.479.018-.457.019-.437.02-.42.023-.405.023-.392.026-.378.027-.367.028-.356.03-.346.032-.337.033-.329.034-.32.037-.313.038-.306.039-.299.04-.292.043-.287.045-.28.045-.276.048-.27.049-.265.05-.26.052-.255.054-.252.055-.246.057-.243.058-.238.06-.235.062-.23.063-.227.065-.224.067-.22.068-.216.07-.214.071-.21.073-.207.075-.204.077-.2.078-.198.08-.195.08-.193.084-.189.085-.187.086-.184.088-.181.09-.18.091-.176.094-.174.095-.171.096-.17.099-.166.1-.164.102-.162.104-.16.105-.157.108-.156.109-.153.11-.15.113-.15.115-.146.116-.145.118-.142.12-.14.123-.139.123-.136.126-.135.128-.132.13-.13.131-.13.134-.126.135-.124.138-.123.14-.121.141-.119.144-.117.146-.115.148-.114.15-.111.152-.11.155-.108.156-.106.159-.105.161-.103.164-.1.165-.1.168-.097.17-.096.174-.094.175-.092.178-.09.18-.09.184-.086.185-.086.189-.083.19-.083.195-.08.197-.079.2-.077.202-.075.206-.074.208-.072.212-.07.216-.07.218-.066.222-.066.226-.064.23-.062.232-.061.237-.06.24-.057.246-.056.25-.054.253-.053.258-.05.263-.05.268-.048.273-.046.279-.045.284-.043.29-.042.297-.04.303-.038.31-.037.317-.036.325-.033.334-.033.342-.03.352-.03.363-.027.373-.026.386-.024.4-.023.414-.021.43-.02.449-.018.47-.017.494-.015.521-.013.555-.012.595-.01.646-.01.71-.007.801-.006.939-.004 1.185-.003H36l1.035.004.859.005.75.007.674.008.618.01.573.01.536.013.507.015.48.016.46.017.438.02.422.02.406.022.392.023.38.026.367.026.357.029.347.03.338.031.33.033.32.035.314.036.306.037.3.04.293.04.287.043.281.044.276.046.27.047.266.049.26.05.256.052.251.053.247.055.243.057.239.059.235.06.23.061.228.063.224.065.22.066.217.068.213.07.21.071.208.073.204.075.201.076.198.078.195.08.193.081.19.083.187.085.184.086.182.088.179.09.176.091.174.093.172.095.17.097.166.098.165.1.162.102.16.103.157.106.156.107.153.109.151.11.15.113.146.115.145.116.142.118.141.12.139.122.136.123.135.126.132.128.13.13.13.13.126.134.125.136.123.137.121.14.12.14.116.144.116.146.113.148.112.15.11.152.108.154.107.157.104.158.103.161.101.163.1.166.097.168.096.17.094.173.092.175.09.178.09.18.087.183.085.185.084.189.083.19.08.194.079.197.077.2.076.202.074.205.072.209.07.211.07.215.067.219.065.221.064.226.063.229.06.232.06.237.058.24.056.245.054.249.053.253.051.258.05.263.048.267.046.273.045.278.044.284.041.29.04.296.039.302.037.31.035.316.034.325.033.333.03.342.03.35.027.363.026.372.025.385.023.398.021.413.02.43.018.447.017.467.015.492.014.52.012.552.01.591.01.641.007.705.006.792.004.925.003 1.158.001 1.806v1.746Z" fill="#F2F2F2"/><path d="m22.873 31.876-.911-.912-.911.912.911.911.911-.911Zm19.333 1.289a1.289 1.289 0 0 0 0-2.578v2.578Zm-12.511-9.933-7.733 7.732 1.823 1.823 7.732-7.733-1.822-1.822Zm-7.733 9.555 7.733 7.733 1.822-1.823-7.732-7.733-1.823 1.823Zm.911.378h19.333v-2.578H22.873v2.578Z" fill="#001D26"/></svg>