<svg width="58" height="59" fill="none" xmlns="http://www.w3.org/2000/svg"><g filter="url(#a)" clip-rule="evenodd"><path fill-rule="evenodd" d="m.56 29.526.002-2.852.002-1.182.003-.906.005-.764.007-.673.008-.608.009-.56.01-.519.013-.488.013-.461.015-.438.017-.419.017-.4.02-.386.02-.371.023-.359.023-.347.025-.337.027-.327.028-.318.029-.31.03-.3.033-.295.034-.288.035-.28.036-.275.038-.27.04-.263.04-.258.043-.253.044-.248.045-.244.047-.24.048-.234.05-.23.051-.228.053-.223.054-.219.056-.216.057-.212.059-.209.06-.205.061-.203.063-.199.065-.196.066-.193.068-.19.069-.188.07-.185.073-.182.074-.18.075-.177.077-.174.078-.172.08-.17.082-.166.083-.165.084-.162.087-.16.088-.158.089-.156.091-.153.093-.151.094-.15.096-.146.098-.145.099-.143.1-.14.103-.14.104-.137.106-.135.108-.133.11-.13.11-.13.113-.127.115-.126.116-.123.118-.122.12-.12.121-.118.124-.117.125-.114.127-.113.13-.112.13-.109.133-.108.135-.106.137-.104.139-.103.14-.1.143-.1.145-.098.147-.096.149-.094.15-.093.154-.091.155-.09.158-.088.16-.086.162-.085.164-.083.167-.082.17-.08.17-.079.175-.077.177-.075.179-.074.182-.072.184-.071.188-.07.19-.067.193-.066.196-.065.199-.063.202-.062.205-.06.209-.059.212-.057.215-.056.22-.054.222-.053.226-.051.23-.05.236-.049.238-.047.244-.045.248-.044.252-.042.258-.041.263-.04.268-.038.275-.037.28-.035.287-.034.294-.032.301-.031.31-.03.316-.028.326-.026.336-.025.347-.024.357-.022.37-.021.385-.02.4-.018.416-.016.437-.015.459-.014.486-.012.517-.01.555-.01.604-.008.667-.007.755-.005.892-.004 1.15-.002h5.7l1.216.002.922.003.773.005.679.007.612.007.563.01.522.01.49.012.464.014.44.014.42.017.402.017.386.02.373.02.36.022.347.024.338.025.328.026.318.028.31.029.303.03.295.033.288.033.281.035.275.037.27.038.264.04.258.04.254.042.248.044.244.045.24.047.235.048.231.05.227.05.224.053.22.054.215.056.213.057.209.058.206.06.202.062.2.063.196.064.194.066.19.068.188.069.185.07.183.073.18.073.176.075.175.077.172.078.17.08.167.082.165.083.162.084.16.086.158.088.156.09.153.09.152.093.149.094.147.096.145.097.143.1.141.1.14.102.136.104.136.106.133.108.13.109.13.11.128.113.125.115.124.116.122.118.12.12.119.121.116.124.115.125.113.127.111.129.11.13.108.133.106.135.105.136.102.139.102.14.099.143.098.145.096.146.095.149.093.15.09.154.09.155.089.158.086.16.085.161.083.164.082.167.08.169.079.171.077.174.076.177.074.179.072.182.071.184.07.187.067.19.067.193.065.196.063.198.062.202.06.205.06.209.056.211.056.215.055.22.053.222.051.226.05.23.048.234.047.239.046.243.044.247.043.252.04.258.04.262.039.268.037.274.035.28.034.287.032.293.031.3.03.309.028.316.027.326.025.335.024.345.022.357.021.37.02.382.018.398.017.416.015.435.014.457.012.483.01.515.01.552.008.6.007.66.005.747.004.878.002 1.12.001 1.934v3.754l-.002 1.254-.003.938-.005.782-.006.685-.008.617-.01.566-.01.526-.011.492-.014.465-.014.442-.017.421-.017.404-.02.388-.02.373-.022.36-.023.35-.025.338-.026.328-.028.32-.029.31-.03.303-.032.296-.034.288-.035.282-.036.276-.038.27-.04.264-.04.26-.042.253-.044.25-.045.244-.046.24-.048.235-.05.231-.05.228-.053.224-.054.22-.056.216-.057.212-.058.21-.06.206-.061.203-.063.2-.064.196-.066.194-.068.19-.069.189-.07.185-.072.183-.074.18-.075.177-.076.175-.078.172-.08.17-.081.167-.083.165-.085.163-.086.16-.087.158-.09.156-.09.154-.093.151-.094.15-.095.147-.098.145-.099.144-.1.14-.102.14-.104.137-.106.135-.107.134-.11.131-.11.13-.113.127-.114.126-.116.124-.118.122-.12.12-.12.119-.124.117-.125.114-.127.114-.129.111-.13.11-.133.108-.134.106-.137.105-.138.103-.14.101-.143.1-.144.098-.147.096-.148.095-.151.093-.153.091-.155.09-.157.088-.16.087-.161.085-.165.083-.166.082-.169.08-.171.08-.174.076-.176.076-.179.074-.181.073-.184.071-.187.07-.19.068-.193.066-.195.065-.199.064-.201.061-.205.06-.208.06-.212.057-.215.056-.218.055-.222.053-.226.051-.23.05-.234.05-.238.046-.242.046-.248.044-.252.043-.256.041-.263.04-.267.038-.274.037-.28.036-.285.034-.293.032-.3.032-.307.03-.316.027-.325.027-.334.026-.345.023-.355.023-.369.021-.381.02-.397.018-.414.017-.434.015-.455.014-.481.012-.512.011-.549.01-.595.008-.655.007-.74.005-.864.004-1.093.003h-5.664l-1.297-.001-.954-.004-.792-.004-.692-.006-.621-.008-.57-.009-.528-.01-.495-.012-.468-.013-.443-.015-.423-.016-.405-.017-.389-.02-.374-.02-.362-.022-.35-.023-.339-.024-.329-.027-.32-.027-.311-.03-.304-.03-.296-.032-.289-.033-.283-.035-.276-.036-.27-.038-.265-.039-.26-.04-.254-.042-.249-.044-.245-.045-.24-.046-.236-.048-.232-.05-.227-.05-.224-.053-.22-.053-.217-.056-.213-.056-.21-.059-.206-.06-.203-.06-.2-.063-.197-.065-.194-.066-.191-.067-.188-.069-.186-.07-.183-.072-.18-.073-.177-.075-.175-.077-.172-.078-.17-.08-.168-.08-.165-.083-.163-.084-.16-.086-.159-.088-.156-.089-.154-.09-.152-.093-.15-.094-.147-.095-.145-.097-.143-.1-.142-.1-.14-.102-.137-.104-.135-.105-.133-.107-.132-.11-.13-.11-.127-.112-.126-.114-.124-.116-.123-.118-.12-.12-.119-.12-.117-.124-.115-.124-.113-.127-.112-.129-.11-.13-.108-.133-.106-.134-.105-.136-.103-.139-.101-.14-.1-.142-.098-.144-.097-.147-.094-.148-.094-.15-.091-.153-.09-.155-.088-.157-.087-.16-.085-.161-.084-.164-.082-.166-.08-.169-.08-.17-.077-.174-.076-.176-.074-.18-.073-.18-.07-.184-.07-.187-.068-.19-.067-.192-.065-.195-.064-.198-.062-.202-.06-.204-.06-.208-.057-.211-.056-.215-.055-.218-.053-.222-.052-.225-.05-.23-.049-.233-.047-.238-.046-.242-.044-.247-.043-.252-.041-.256-.04-.262-.039-.267-.037-.273-.035-.28-.034-.285-.033-.292-.031-.299-.03-.307-.029-.315-.026-.324-.026-.334-.024-.343-.023-.355-.02-.367-.02-.381-.019-.396-.017-.412-.015-.432-.014-.453-.013-.48-.01-.508-.01-.546-.009-.59-.007-.65-.005-.732-.004-.853-.003-1.068-.001-1.665v-1.61Z" fill="#767676"/><path d="m.56 29.526.002-2.852.002-1.182.003-.906.005-.764.007-.673.008-.608.009-.56.01-.519.013-.488.013-.461.015-.438.017-.419.017-.4.02-.386.02-.371.023-.359.023-.347.025-.337.027-.327.028-.318.029-.31.03-.3.033-.295.034-.288.035-.28.036-.275.038-.27.04-.263.04-.258.043-.253.044-.248.045-.244.047-.24.048-.234.05-.23.051-.228.053-.223.054-.219.056-.216.057-.212.059-.209.06-.205.061-.203.063-.199.065-.196.066-.193.068-.19.069-.188.07-.185.073-.182.074-.18.075-.177.077-.174.078-.172.08-.17.082-.166.083-.165.084-.162.087-.16.088-.158.089-.156.091-.153.093-.151.094-.15.096-.146.098-.145.099-.143.1-.14.103-.14.104-.137.106-.135.108-.133.11-.13.11-.13.113-.127.115-.126.116-.123.118-.122.12-.12.121-.118.124-.117.125-.114.127-.113.13-.112.13-.109.133-.108.135-.106.137-.104.139-.103.14-.1.143-.1.145-.098.147-.096.149-.094.15-.093.154-.091.155-.09.158-.088.16-.086.162-.085.164-.083.167-.082.17-.08.17-.079.175-.077.177-.075.179-.074.182-.072.184-.071.188-.07.19-.067.193-.066.196-.065.199-.063.202-.062.205-.06.209-.059.212-.057.215-.056.22-.054.222-.053.226-.051.23-.05.236-.049.238-.047.244-.045.248-.044.252-.042.258-.041.263-.04.268-.038.275-.037.28-.035.287-.034.294-.032.301-.031.31-.03.316-.028.326-.026.336-.025.347-.024.357-.022.37-.021.385-.02.4-.018.416-.016.437-.015.459-.014.486-.012.517-.01.555-.01.604-.008.667-.007.755-.005.892-.004 1.15-.002h5.7l1.216.002.922.003.773.005.679.007.612.007.563.01.522.01.49.012.464.014.44.014.42.017.402.017.386.02.373.02.36.022.347.024.338.025.328.026.318.028.31.029.303.03.295.033.288.033.281.035.275.037.27.038.264.04.258.04.254.042.248.044.244.045.24.047.235.048.231.05.227.05.224.053.22.054.215.056.213.057.209.058.206.06.202.062.2.063.196.064.194.066.19.068.188.069.185.07.183.073.18.073.176.075.175.077.172.078.17.08.167.082.165.083.162.084.16.086.158.088.156.09.153.09.152.093.149.094.147.096.145.097.143.1.141.1.14.102.136.104.136.106.133.108.13.109.13.11.128.113.125.115.124.116.122.118.12.12.119.121.116.124.115.125.113.127.111.129.11.13.108.133.106.135.105.136.102.139.102.14.099.143.098.145.096.146.095.149.093.15.09.154.09.155.089.158.086.16.085.161.083.164.082.167.08.169.079.171.077.174.076.177.074.179.072.182.071.184.07.187.067.19.067.193.065.196.063.198.062.202.06.205.06.209.056.211.056.215.055.22.053.222.051.226.05.23.048.234.047.239.046.243.044.247.043.252.04.258.04.262.039.268.037.274.035.28.034.287.032.293.031.3.03.309.028.316.027.326.025.335.024.345.022.357.021.37.02.382.018.398.017.416.015.435.014.457.012.483.01.515.01.552.008.6.007.66.005.747.004.878.002 1.12.001 1.934v3.754l-.002 1.254-.003.938-.005.782-.006.685-.008.617-.01.566-.01.526-.011.492-.014.465-.014.442-.017.421-.017.404-.02.388-.02.373-.022.36-.023.35-.025.338-.026.328-.028.32-.029.31-.03.303-.032.296-.034.288-.035.282-.036.276-.038.27-.04.264-.04.26-.042.253-.044.25-.045.244-.046.24-.048.235-.05.231-.05.228-.053.224-.054.22-.056.216-.057.212-.058.21-.06.206-.061.203-.063.2-.064.196-.066.194-.068.19-.069.189-.07.185-.072.183-.074.18-.075.177-.076.175-.078.172-.08.17-.081.167-.083.165-.085.163-.086.16-.087.158-.09.156-.09.154-.093.151-.094.15-.095.147-.098.145-.099.144-.1.14-.102.14-.104.137-.106.135-.107.134-.11.131-.11.13-.113.127-.114.126-.116.124-.118.122-.12.12-.12.119-.124.117-.125.114-.127.114-.129.111-.13.11-.133.108-.134.106-.137.105-.138.103-.14.101-.143.1-.144.098-.147.096-.148.095-.151.093-.153.091-.155.09-.157.088-.16.087-.161.085-.165.083-.166.082-.169.08-.171.08-.174.076-.176.076-.179.074-.181.073-.184.071-.187.07-.19.068-.193.066-.195.065-.199.064-.201.061-.205.06-.208.06-.212.057-.215.056-.218.055-.222.053-.226.051-.23.05-.234.05-.238.046-.242.046-.248.044-.252.043-.256.041-.263.04-.267.038-.274.037-.28.036-.285.034-.293.032-.3.032-.307.03-.316.027-.325.027-.334.026-.345.023-.355.023-.369.021-.381.02-.397.018-.414.017-.434.015-.455.014-.481.012-.512.011-.549.01-.595.008-.655.007-.74.005-.864.004-1.093.003h-5.664l-1.297-.001-.954-.004-.792-.004-.692-.006-.621-.008-.57-.009-.528-.01-.495-.012-.468-.013-.443-.015-.423-.016-.405-.017-.389-.02-.374-.02-.362-.022-.35-.023-.339-.024-.329-.027-.32-.027-.311-.03-.304-.03-.296-.032-.289-.033-.283-.035-.276-.036-.27-.038-.265-.039-.26-.04-.254-.042-.249-.044-.245-.045-.24-.046-.236-.048-.232-.05-.227-.05-.224-.053-.22-.053-.217-.056-.213-.056-.21-.059-.206-.06-.203-.06-.2-.063-.197-.065-.194-.066-.191-.067-.188-.069-.186-.07-.183-.072-.18-.073-.177-.075-.175-.077-.172-.078-.17-.08-.168-.08-.165-.083-.163-.084-.16-.086-.159-.088-.156-.089-.154-.09-.152-.093-.15-.094-.147-.095-.145-.097-.143-.1-.142-.1-.14-.102-.137-.104-.135-.105-.133-.107-.132-.11-.13-.11-.127-.112-.126-.114-.124-.116-.123-.118-.12-.12-.119-.12-.117-.124-.115-.124-.113-.127-.112-.129-.11-.13-.108-.133-.106-.134-.105-.136-.103-.139-.101-.14-.1-.142-.098-.144-.097-.147-.094-.148-.094-.15-.091-.153-.09-.155-.088-.157-.087-.16-.085-.161-.084-.164-.082-.166-.08-.169-.08-.17-.077-.174-.076-.176-.074-.18-.073-.18-.07-.184-.07-.187-.068-.19-.067-.192-.065-.195-.064-.198-.062-.202-.06-.204-.06-.208-.057-.211-.056-.215-.055-.218-.053-.222-.052-.225-.05-.23-.049-.233-.047-.238-.046-.242-.044-.247-.043-.252-.041-.256-.04-.262-.039-.267-.037-.273-.035-.28-.034-.285-.033-.292-.031-.299-.03-.307-.029-.315-.026-.324-.026-.334-.024-.343-.023-.355-.02-.367-.02-.381-.019-.396-.017-.412-.015-.432-.014-.453-.013-.48-.01-.508-.01-.546-.009-.59-.007-.65-.005-.732-.004-.853-.003-1.068-.001-1.665v-1.61Z" stroke="#000" stroke-opacity=".04" stroke-width=".594"/></g><path d="m19.577 29.526-.84.84-.84-.84.84-.84.84.84Zm17.829-1.189a1.189 1.189 0 0 1 0 2.377v-2.377Zm-11.538 9.16-7.131-7.13 1.68-1.682 7.132 7.132-1.68 1.68Zm-7.131-8.812 7.131-7.131 1.681 1.68-7.131 7.132-1.681-1.68Zm.84-.348h17.829v2.377H19.577v-2.377Z" fill="#fff"/><defs><filter id="a" x="-4.491" y="-4.051" width="67.154" height="67.154" filterUnits="userSpaceOnUse" color-interpolation-filters="sRGB"><feFlood flood-opacity="0" result="BackgroundImageFix"/><feGaussianBlur in="BackgroundImageFix" stdDeviation="2.377"/><feComposite in2="SourceAlpha" operator="in" result="effect1_backgroundBlur_155_4839"/><feBlend in="SourceGraphic" in2="effect1_backgroundBlur_155_4839" result="shape"/></filter></defs></svg>