<svg width="182" height="51" viewBox="0 0 182 51" fill="none" xmlns="http://www.w3.org/2000/svg">
<path fill-rule="evenodd" clip-rule="evenodd" d="M29.7788 46.304L29.7788 41.7693L34.5835 35.7062L39.3883 29.6435L39.6279 27.3686C39.7596 26.1174 39.8896 21.9891 39.9162 18.1946C39.9621 11.6856 39.9243 11.2548 39.2513 10.5825C38.299 9.63126 37.6835 9.68411 36.8114 10.7918C36.1461 11.6366 36.0852 12.1791 36.0852 17.2664C36.0852 20.4061 36.2249 22.8189 36.4068 22.8189C36.5841 22.8189 37.0809 23.3883 37.5114 24.0841C38.107 25.0469 38.2184 25.5445 37.9781 26.1668C37.5458 27.2846 30.8926 34.3682 30.2753 34.3682C29.0925 34.3682 30.0013 32.9081 33.1072 29.8185C34.9378 27.9975 36.4355 26.2637 36.4355 25.9659C36.4355 25.1497 35.4205 23.8688 34.7741 23.8688C34.1719 23.8688 33.3528 24.5135 26.1846 30.6308C23.372 33.031 21.6185 34.7879 21.4549 35.3692C21.3123 35.8773 21.1952 39.5217 21.1952 43.4677L21.1952 50.6423L25.487 50.7407L29.7788 50.839L29.7788 46.304ZM18.7852 50.3085C19.1205 49.4356 18.7628 35.6268 18.3886 34.9989C17.7965 34.0053 5.49813 23.8688 4.88431 23.8688C4.12931 23.8688 3.15217 24.9741 3.15217 25.828C3.15217 26.2207 4.55778 27.9058 6.48051 29.8185C9.4711 32.7933 10.6339 34.6185 9.33973 34.3063C9.08187 34.244 7.2688 32.5067 5.31069 30.4453C1.21964 26.1384 1.0259 25.5729 2.977 23.6238L4.20323 22.3989L4.20323 16.9935C4.20323 11.7206 4.18221 11.5666 3.34312 10.7288C2.30013 9.68655 1.6243 9.64595 0.699722 10.5696C0.0354573 11.2331 -0.000980773 11.736 -0.000981516 20.2259L-0.000982299 29.1826L4.96664 35.3331C7.69902 38.716 9.97176 41.8123 10.0177 42.2134C10.0635 42.6145 10.114 44.7144 10.1301 46.88L10.1592 50.8173L14.3743 50.8173C17.7394 50.8173 18.6289 50.7148 18.7852 50.3085Z" fill="#43A765"/>
<path fill-rule="evenodd" clip-rule="evenodd" d="M22.2038 19.5046C24.373 16.0024 26.2537 12.8825 26.3834 12.5714C26.7605 11.6684 26.0292 11.3757 23.3259 11.3469C21.9997 11.3329 20.8799 11.3046 20.8376 11.2843C20.7801 11.2568 21.8247 3.50987 22.2487 0.818603C22.2764 0.643425 22.1898 0.455207 22.0565 0.400189C21.7653 0.280427 13.5108 13.5324 13.5871 13.9971C13.6857 14.5974 14.4104 14.7789 16.8104 14.8043C18.1239 14.8181 19.2265 14.841 19.2601 14.8551C19.294 14.8691 18.9772 17.2782 18.5569 20.2085C18.1363 23.1389 17.8973 25.6118 18.0264 25.7045C18.1551 25.7969 20.035 23.0069 22.2038 19.5046Z" fill="#FA5507"/>
<path d="M57.4313 42.589V25.4568H55.4611V42.589H57.4313ZM56.4319 19.0037C55.3469 19.0037 54.8901 19.5463 54.8901 20.3458C54.8901 21.1167 55.3469 21.6592 56.4319 21.6592C57.5455 21.6592 58.0024 21.1167 58.0024 20.3458C58.0024 19.5463 57.5455 19.0037 56.4319 19.0037ZM83.8393 35.7076C83.154 38.877 80.2701 41.0756 74.2168 41.0756C67.1641 41.0756 64.4229 38.0775 64.4229 34.0229C64.4229 29.9683 67.1641 26.9702 74.2168 26.9702C80.2701 26.9702 83.154 29.1688 83.8393 32.3382H85.8381C85.1242 28.0552 81.6407 25.1142 74.2168 25.1142C65.8506 25.1142 62.4527 28.8547 62.4527 34.0229C62.4527 39.1911 65.8506 42.9316 74.2168 42.9316C81.6407 42.9316 85.1242 39.9906 85.8381 35.7076H83.8393ZM101.156 25.1142C93.2756 25.1142 89.9634 28.8547 89.9634 34.0229C89.9634 39.1911 93.2756 42.9316 101.156 42.9316C106.81 42.9316 110.094 41.0185 111.521 38.0489V42.589H113.491V25.4568H111.521V29.9969C110.094 27.0273 106.81 25.1142 101.156 25.1142ZM101.727 41.0756C94.6747 41.0756 91.9336 38.0775 91.9336 34.0229C91.9336 29.9683 94.6747 26.9702 101.727 26.9702C108.78 26.9702 111.521 29.9683 111.521 34.0229C111.521 38.0775 108.78 41.0756 101.727 41.0756ZM131.924 25.1142C126.299 25.1142 122.987 27.0273 121.559 29.9969V25.4568H119.589V48.2997H121.559V38.0489C122.987 41.0185 126.299 42.9316 131.924 42.9316C139.833 42.9316 143.145 39.1911 143.145 34.0229C143.145 28.8547 139.833 25.1142 131.924 25.1142ZM131.381 41.0756C124.329 41.0756 121.559 38.0775 121.559 34.0229C121.559 29.9683 124.329 26.9702 131.381 26.9702C138.434 26.9702 141.175 29.9683 141.175 34.0229C141.175 38.0775 138.434 41.0756 131.381 41.0756ZM150.214 42.589V25.4568H148.243V42.589H150.214ZM149.214 19.0037C148.129 19.0037 147.672 19.5463 147.672 20.3458C147.672 21.1167 148.129 21.6592 149.214 21.6592C150.328 21.6592 150.785 21.1167 150.785 20.3458C150.785 19.5463 150.328 19.0037 149.214 19.0037ZM166.428 25.1142C158.547 25.1142 155.235 28.8547 155.235 34.0229C155.235 39.1911 158.547 42.9316 166.428 42.9316C172.082 42.9316 175.365 41.0185 176.793 38.0489V42.589H178.763V25.4568H176.793V29.9969C175.365 27.0273 172.082 25.1142 166.428 25.1142ZM166.999 41.0756C159.946 41.0756 157.205 38.0775 157.205 34.0229C157.205 29.9683 159.946 26.9702 166.999 26.9702C174.052 26.9702 176.793 29.9683 176.793 34.0229C176.793 38.0775 174.052 41.0756 166.999 41.0756Z" fill="black"/>
<path d="M57.4313 42.589V43.234H58.0763V42.589H57.4313ZM57.4313 25.4568H58.0763V24.8118H57.4313V25.4568ZM55.4611 25.4568V24.8118H54.8161V25.4568H55.4611ZM55.4611 42.589H54.8161V43.234H55.4611V42.589ZM58.0763 42.589V25.4568H56.7863V42.589H58.0763ZM57.4313 24.8118H55.4611V26.1019H57.4313V24.8118ZM54.8161 25.4568V42.589H56.1061V25.4568H54.8161ZM55.4611 43.234H57.4313V41.9439H55.4611V43.234ZM56.4319 18.3587C55.7894 18.3587 55.221 18.5196 54.8116 18.9056C54.3966 19.2969 54.245 19.8246 54.245 20.3458H55.5351C55.5351 20.0674 55.6119 19.9241 55.6966 19.8442C55.7869 19.7591 55.9895 19.6488 56.4319 19.6488V18.3587ZM54.245 20.3458C54.245 20.8588 54.4003 21.3789 54.8152 21.7643C55.2234 22.1433 55.7892 22.3042 56.4319 22.3042V21.0142C55.9897 21.0142 55.7845 20.9039 55.693 20.8189C55.6083 20.7403 55.5351 20.6037 55.5351 20.3458H54.245ZM56.4319 22.3042C57.0849 22.3042 57.6574 22.1454 58.0703 21.7673C58.4918 21.3815 58.6474 20.8592 58.6474 20.3458H57.3574C57.3574 20.6033 57.2845 20.7377 57.1992 20.8158C57.1053 20.9018 56.8926 21.0142 56.4319 21.0142V22.3042ZM58.6474 20.3458C58.6474 19.8243 58.4955 19.2944 58.0739 18.9025C57.6598 18.5176 57.0847 18.3587 56.4319 18.3587V19.6488C56.8928 19.6488 57.1029 19.7612 57.1956 19.8474C57.2808 19.9266 57.3574 20.0677 57.3574 20.3458H58.6474ZM83.8393 35.7076V35.0625H83.3189L83.2089 35.5712L83.8393 35.7076ZM83.8393 32.3382L83.2089 32.4746L83.3189 32.9833H83.8393V32.3382ZM85.8381 32.3382V32.9833H86.5995L86.4743 32.2322L85.8381 32.3382ZM85.8381 35.7076L86.4743 35.8136L86.5995 35.0625H85.8381V35.7076ZM83.2089 35.5712C82.903 36.9862 82.1156 38.1762 80.7072 39.0283C79.2794 39.8921 77.1744 40.4306 74.2168 40.4306V41.7206C77.3125 41.7206 79.6762 41.1598 81.375 40.132C83.0932 39.0924 84.0904 37.5984 84.4698 35.8439L83.2089 35.5712ZM74.2168 40.4306C70.7683 40.4306 68.4869 39.6957 67.0786 38.5665C65.6931 37.4556 65.0679 35.8945 65.0679 34.0229H63.7779C63.7779 36.2059 64.5233 38.1712 66.2716 39.573C67.997 40.9565 70.6125 41.7206 74.2168 41.7206V40.4306ZM65.0679 34.0229C65.0679 32.1513 65.6931 30.5902 67.0786 29.4793C68.4869 28.3501 70.7683 27.6152 74.2168 27.6152V26.3252C70.6125 26.3252 67.997 27.0893 66.2716 28.4728C64.5233 29.8746 63.7779 31.8399 63.7779 34.0229H65.0679ZM74.2168 27.6152C77.1744 27.6152 79.2794 28.1537 80.7072 29.0175C82.1156 29.8696 82.903 31.0596 83.2089 32.4746L84.4698 32.2019C84.0904 30.4474 83.0932 28.9534 81.375 27.9138C79.6762 26.886 77.3125 26.3252 74.2168 26.3252V27.6152ZM83.8393 32.9833H85.8381V31.6932H83.8393V32.9833ZM86.4743 32.2322C86.0911 29.9327 84.9527 27.9638 82.9038 26.585C80.8731 25.2184 78.0052 24.4692 74.2168 24.4692V25.7592C77.8523 25.7592 80.4381 26.4805 82.1836 27.6552C83.9109 28.8176 84.8712 30.4607 85.2018 32.4443L86.4743 32.2322ZM74.2168 24.4692C69.9493 24.4692 66.8379 25.4218 64.7842 27.1352C62.7124 28.8637 61.8077 31.2899 61.8077 34.0229H63.0977C63.0977 31.5877 63.892 29.5596 65.6106 28.1258C67.3474 26.6768 70.1181 25.7592 74.2168 25.7592V24.4692ZM61.8077 34.0229C61.8077 36.7559 62.7124 39.1821 64.7842 40.9106C66.8379 42.624 69.9493 43.5766 74.2168 43.5766V42.2866C70.1181 42.2866 67.3474 41.369 65.6106 39.92C63.892 38.4862 63.0977 36.4581 63.0977 34.0229H61.8077ZM74.2168 43.5766C78.0052 43.5766 80.8731 42.8274 82.9038 41.4608C84.9527 40.082 86.0911 38.1131 86.4743 35.8136L85.2018 35.6015C84.8712 37.5851 83.9109 39.2281 82.1836 40.3906C80.4381 41.5653 77.8523 42.2866 74.2168 42.2866V43.5766ZM85.8381 35.0625H83.8393V36.3526H85.8381V35.0625ZM111.521 38.0489H112.166L110.94 37.7695L111.521 38.0489ZM111.521 42.589H110.876V43.234H111.521V42.589ZM113.491 42.589V43.234H114.137V42.589H113.491ZM113.491 25.4568H114.137V24.8118H113.491V25.4568ZM111.521 25.4568V24.8118H110.876V25.4568H111.521ZM111.521 29.9969L110.94 30.2763L112.166 29.9969H111.521ZM101.156 24.4692C97.1232 24.4692 94.1514 25.4258 92.1807 27.1443C90.1971 28.8741 89.3184 31.2962 89.3184 34.0229H90.6084C90.6084 31.5814 91.3858 29.5492 93.0285 28.1166C94.6841 26.6729 97.3088 25.7592 101.156 25.7592V24.4692ZM89.3184 34.0229C89.3184 36.7496 90.1971 39.1717 92.1807 40.9015C94.1514 42.62 97.1232 43.5766 101.156 43.5766V42.2866C97.3088 42.2866 94.6841 41.3729 93.0285 39.9292C91.3858 38.4966 90.6084 36.4644 90.6084 34.0229H89.3184ZM101.156 43.5766C106.949 43.5766 110.527 41.6051 112.103 38.3284L110.94 37.7695C109.66 40.432 106.671 42.2866 101.156 42.2866V43.5766ZM110.876 38.0489V42.589H112.166V38.0489H110.876ZM111.521 43.234H113.491V41.9439H111.521V43.234ZM114.137 42.589V25.4568H112.846V42.589H114.137ZM113.491 24.8118H111.521V26.1019H113.491V24.8118ZM110.876 25.4568V29.9969H112.166V25.4568H110.876ZM112.103 29.7174C110.527 26.4407 106.949 24.4692 101.156 24.4692V25.7592C106.671 25.7592 109.66 27.6138 110.94 30.2763L112.103 29.7174ZM101.727 40.4306C98.279 40.4306 95.9975 39.6957 94.5892 38.5665C93.2037 37.4556 92.5786 35.8945 92.5786 34.0229H91.2886C91.2886 36.2059 92.034 38.1712 93.7822 39.573C95.5077 40.9565 98.1232 41.7206 101.727 41.7206V40.4306ZM92.5786 34.0229C92.5786 32.1513 93.2037 30.5902 94.5892 29.4793C95.9975 28.3501 98.279 27.6152 101.727 27.6152V26.3252C98.1232 26.3252 95.5077 27.0893 93.7822 28.4728C92.034 29.8746 91.2886 31.8399 91.2886 34.0229H92.5786ZM101.727 27.6152C105.176 27.6152 107.457 28.3501 108.866 29.4793C110.251 30.5902 110.876 32.1513 110.876 34.0229H112.166C112.166 31.8399 111.421 29.8746 109.673 28.4728C107.947 27.0893 105.332 26.3252 101.727 26.3252V27.6152ZM110.876 34.0229C110.876 35.8945 110.251 37.4556 108.866 38.5665C107.457 39.6957 105.176 40.4306 101.727 40.4306V41.7206C105.332 41.7206 107.947 40.9565 109.673 39.573C111.421 38.1712 112.166 36.2059 112.166 34.0229H110.876ZM121.559 29.9969H120.914L122.14 30.2763L121.559 29.9969ZM121.559 25.4568H122.204V24.8118H121.559V25.4568ZM119.589 25.4568V24.8118H118.944V25.4568H119.589ZM119.589 48.2997H118.944V48.9447H119.589V48.2997ZM121.559 48.2997V48.9447H122.204V48.2997H121.559ZM121.559 38.0489L122.14 37.7695L120.914 38.0489H121.559ZM131.924 24.4692C126.161 24.4692 122.553 26.4401 120.978 29.7174L122.14 30.2763C123.42 27.6145 126.437 25.7592 131.924 25.7592V24.4692ZM122.204 29.9969V25.4568H120.914V29.9969H122.204ZM121.559 24.8118H119.589V26.1019H121.559V24.8118ZM118.944 25.4568V48.2997H120.234V25.4568H118.944ZM119.589 48.9447H121.559V47.6546H119.589V48.9447ZM122.204 48.2997V38.0489H120.914V48.2997H122.204ZM120.978 38.3284C122.553 41.6057 126.161 43.5766 131.924 43.5766V42.2866C126.437 42.2866 123.42 40.4313 122.14 37.7695L120.978 38.3284ZM131.924 43.5766C135.971 43.5766 138.95 42.6203 140.924 40.9019C142.912 39.1721 143.79 36.7497 143.79 34.0229H142.5C142.5 36.4643 141.723 38.4963 140.077 39.9288C138.418 41.3726 135.786 42.2866 131.924 42.2866V43.5766ZM143.79 34.0229C143.79 31.2961 142.912 28.8737 140.924 27.1439C138.95 25.4255 135.971 24.4692 131.924 24.4692V25.7592C135.786 25.7592 138.418 26.6732 140.077 28.117C141.723 29.5495 142.5 31.5815 142.5 34.0229H143.79ZM131.381 40.4306C127.933 40.4306 125.644 39.6958 124.228 38.5656C122.835 37.4538 122.204 35.8924 122.204 34.0229H120.914C120.914 36.208 121.668 38.173 123.423 39.5739C125.155 40.9564 127.777 41.7206 131.381 41.7206V40.4306ZM122.204 34.0229C122.204 32.1534 122.835 30.592 124.228 29.4802C125.644 28.35 127.933 27.6152 131.381 27.6152V26.3252C127.777 26.3252 125.155 27.0894 123.423 28.4719C121.668 29.8728 120.914 31.8378 120.914 34.0229H122.204ZM131.381 27.6152C134.83 27.6152 137.111 28.3501 138.52 29.4793C139.905 30.5902 140.53 32.1513 140.53 34.0229H141.82C141.82 31.8399 141.075 29.8746 139.327 28.4728C137.601 27.0893 134.986 26.3252 131.381 26.3252V27.6152ZM140.53 34.0229C140.53 35.8945 139.905 37.4556 138.52 38.5665C137.111 39.6957 134.83 40.4306 131.381 40.4306V41.7206C134.986 41.7206 137.601 40.9565 139.327 39.573C141.075 38.1712 141.82 36.2059 141.82 34.0229H140.53ZM150.214 42.589V43.234H150.859V42.589H150.214ZM150.214 25.4568H150.859V24.8118H150.214V25.4568ZM148.243 25.4568V24.8118H147.598V25.4568H148.243ZM148.243 42.589H147.598V43.234H148.243V42.589ZM150.859 42.589V25.4568H149.569V42.589H150.859ZM150.214 24.8118H148.243V26.1019H150.214V24.8118ZM147.598 25.4568V42.589H148.888V25.4568H147.598ZM148.243 43.234H150.214V41.9439H148.243V43.234ZM149.214 18.3587C148.572 18.3587 148.003 18.5196 147.594 18.9056C147.179 19.2969 147.027 19.8246 147.027 20.3458H148.317C148.317 20.0674 148.394 19.9241 148.479 19.8442C148.569 19.7591 148.772 19.6488 149.214 19.6488V18.3587ZM147.027 20.3458C147.027 20.8588 147.183 21.3789 147.597 21.7643C148.006 22.1433 148.571 22.3042 149.214 22.3042V21.0142C148.772 21.0142 148.567 20.9039 148.475 20.8189C148.391 20.7403 148.317 20.6037 148.317 20.3458H147.027ZM149.214 22.3042C149.867 22.3042 150.44 22.1454 150.853 21.7673C151.274 21.3815 151.43 20.8592 151.43 20.3458H150.14C150.14 20.6033 150.067 20.7377 149.981 20.8158C149.888 20.9018 149.675 21.0142 149.214 21.0142V22.3042ZM151.43 20.3458C151.43 19.8243 151.278 19.2944 150.856 18.9025C150.442 18.5176 149.867 18.3587 149.214 18.3587V19.6488C149.675 19.6488 149.885 19.7612 149.978 19.8474C150.063 19.9266 150.14 20.0677 150.14 20.3458H151.43ZM176.793 38.0489H177.438L176.212 37.7695L176.793 38.0489ZM176.793 42.589H176.148V43.234H176.793V42.589ZM178.763 42.589V43.234H179.408V42.589H178.763ZM178.763 25.4568H179.408V24.8118H178.763V25.4568ZM176.793 25.4568V24.8118H176.148V25.4568H176.793ZM176.793 29.9969L176.212 30.2763L177.438 29.9969H176.793ZM166.428 24.4692C162.395 24.4692 159.423 25.4258 157.452 27.1443C155.469 28.8741 154.59 31.2962 154.59 34.0229H155.88C155.88 31.5814 156.657 29.5492 158.3 28.1166C159.956 26.6729 162.58 25.7592 166.428 25.7592V24.4692ZM154.59 34.0229C154.59 36.7496 155.469 39.1717 157.452 40.9015C159.423 42.62 162.395 43.5766 166.428 43.5766V42.2866C162.58 42.2866 159.956 41.3729 158.3 39.9292C156.657 38.4966 155.88 36.4644 155.88 34.0229H154.59ZM166.428 43.5766C172.221 43.5766 175.799 41.6051 177.374 38.3284L176.212 37.7695C174.932 40.432 171.942 42.2866 166.428 42.2866V43.5766ZM176.148 38.0489V42.589H177.438V38.0489H176.148ZM176.793 43.234H178.763V41.9439H176.793V43.234ZM179.408 42.589V25.4568H178.118V42.589H179.408ZM178.763 24.8118H176.793V26.1019H178.763V24.8118ZM176.148 25.4568V29.9969H177.438V25.4568H176.148ZM177.374 29.7174C175.799 26.4407 172.221 24.4692 166.428 24.4692V25.7592C171.942 25.7592 174.932 27.6138 176.212 30.2763L177.374 29.7174ZM166.999 40.4306C163.551 40.4306 161.269 39.6957 159.861 38.5665C158.475 37.4556 157.85 35.8945 157.85 34.0229H156.56C156.56 36.2059 157.306 38.1712 159.054 39.573C160.779 40.9565 163.395 41.7206 166.999 41.7206V40.4306ZM157.85 34.0229C157.85 32.1513 158.475 30.5902 159.861 29.4793C161.269 28.3501 163.551 27.6152 166.999 27.6152V26.3252C163.395 26.3252 160.779 27.0893 159.054 28.4728C157.306 29.8746 156.56 31.8399 156.56 34.0229H157.85ZM166.999 27.6152C170.447 27.6152 172.729 28.3501 174.137 29.4793C175.523 30.5902 176.148 32.1513 176.148 34.0229H177.438C177.438 31.8399 176.692 29.8746 174.944 28.4728C173.219 27.0893 170.603 26.3252 166.999 26.3252V27.6152ZM176.148 34.0229C176.148 35.8945 175.523 37.4556 174.137 38.5665C172.729 39.6957 170.447 40.4306 166.999 40.4306V41.7206C170.603 41.7206 173.219 40.9565 174.944 39.573C176.692 38.1712 177.438 36.2059 177.438 34.0229H176.148Z" fill="black"/>
<ellipse cx="56.4587" cy="20.0217" rx="2.4188" ry="2.25755" fill="#FA5507"/>
</svg>
