<svg width="17" height="21" fill="none" xmlns="http://www.w3.org/2000/svg"><path fill-rule="evenodd" clip-rule="evenodd" d="M1.208 11.636c.625-1.92 1.75-4.38 3.757-6.386C8.899 1.316 14.617.735 14.762.72a1.005 1.005 0 0 1 .944.454c.208.313 1.38 2.283-.191 4.663a2.627 2.627 0 0 1-.276.344.995.995 0 0 1-.03.37c-.19.689-.434 1.412-.75 2.135-.551 1.263-1.328 2.54-2.423 3.636-2.05 2.05-4.742 2.99-6.844 3.43a19.43 19.43 0 0 1-2.883.378C2.278 16.376 2 18.856 2 19.286a1 1 0 0 1-2 0c0-.571.116-1.67.221-2.56.205-1.732.446-3.427.987-5.09Zm12.637-6.9c.527-.8.52-1.48.415-1.92-1.527.275-5.219 1.186-7.881 3.849-1.704 1.703-2.7 3.84-3.269 5.59a17.75 17.75 0 0 0-.494 1.85 17.431 17.431 0 0 0 2.167-.31c1.92-.402 4.178-1.228 5.838-2.888.85-.85 1.484-1.857 1.954-2.905-.976.52-2.018.986-2.759 1.233a1 1 0 0 1-.632-1.898c.674-.225 1.758-.713 2.754-1.265.494-.274.946-.553 1.301-.808.384-.276.56-.46.606-.528Z" fill="#fff"/></svg>