<svg width="30" height="30" fill="none" xmlns="http://www.w3.org/2000/svg"><path d="M15 30C6.74 30 0 23.262 0 15c0-2.677.716-5.308 2.077-7.592L1.2 5.446l3.693-3.692 1.777.784C9.116.877 12 0 15 0c2.977 0 5.839.877 8.308 2.515l1.754-.784 3.692 3.692-.854 1.915A14.887 14.887 0 0 1 30 15c0 8.262-6.738 15-15 15ZM3.946 5.93l.739 1.64-.346.53A12.682 12.682 0 0 0 2.308 15c0 6.992 5.7 12.692 12.692 12.692 6.993 0 12.693-5.7 12.693-12.692 0-2.47-.716-4.87-2.077-6.946l-.347-.53.716-1.616-1.43-1.431-1.524.692-.53-.392a12.54 12.54 0 0 0-7.5-2.47A12.5 12.5 0 0 0 7.454 4.8l-.53.392L5.4 4.5 3.946 5.93Z" fill="#444"/><path d="M8.655 19.708c-2.493 0-4.5-2.03-4.5-4.523a4.53 4.53 0 0 1 4.523-4.523 4.53 4.53 0 0 1 4.523 4.523c-.023 2.492-2.054 4.523-4.546 4.523Zm0-6.485a1.985 1.985 0 1 0 0 3.97 1.985 1.985 0 0 0 0-3.97Zm12.622 6.485a4.53 4.53 0 0 1-4.523-4.523 4.53 4.53 0 0 1 4.523-4.523 4.53 4.53 0 0 1 4.523 4.523c-.023 2.492-2.03 4.523-4.523 4.523Zm0-6.485a1.985 1.985 0 1 0 1.985 1.985c-.023-1.108-.9-1.985-1.985-1.985Zm-6.3-2.515A3.506 3.506 0 0 1 11.469 7.2a3.506 3.506 0 0 1 3.508-3.507A3.506 3.506 0 0 1 18.484 7.2a3.506 3.506 0 0 1-3.507 3.508Zm0-6.346a2.827 2.827 0 0 0-2.816 2.815 2.827 2.827 0 0 0 2.816 2.816 2.827 2.827 0 0 0 2.815-2.816 2.827 2.827 0 0 0-2.815-2.815Z" fill="#444"/><path d="M14.977 9.553a.827.827 0 0 1-.83-.83c0-.462.369-.831.83-.831.462 0 .83.37.83.83-.022.462-.391.831-.83.831Zm0-1.177a.364.364 0 0 0-.369.37c0 .207.162.369.37.369a.364.364 0 0 0 .368-.37.38.38 0 0 0-.369-.369Zm0-1.915a.827.827 0 0 1-.83-.83c0-.462.369-.831.83-.831.462 0 .83.369.83.83-.022.462-.391.831-.83.831Zm0-1.177a.364.364 0 0 0-.369.37c0 .207.162.346.37.346a.364.364 0 0 0 .368-.37c0-.207-.184-.346-.369-.346Zm1.545 2.724a.827.827 0 0 1-.83-.83c0-.462.369-.832.83-.832.462 0 .83.37.83.831-.022.462-.391.83-.83.83Zm0-1.177a.364.364 0 0 0-.369.37c0 .207.162.368.37.368a.364.364 0 0 0 .368-.369.38.38 0 0 0-.369-.37Zm-3.091 1.177a.827.827 0 0 1-.83-.83c0-.462.369-.832.83-.832.462 0 .83.37.83.831-.022.462-.391.83-.83.83Zm0-1.177a.364.364 0 0 0-.369.37c0 .207.162.369.37.369a.364.364 0 0 0 .368-.37.38.38 0 0 0-.369-.369Zm1.546 19.753a3.506 3.506 0 0 1-3.508-3.507 3.506 3.506 0 0 1 3.508-3.508 3.506 3.506 0 0 1 3.507 3.508 3.506 3.506 0 0 1-3.507 3.507Zm0-6.346a2.827 2.827 0 0 0-2.816 2.816 2.827 2.827 0 0 0 2.816 2.815 2.827 2.827 0 0 0 2.815-2.815 2.827 2.827 0 0 0-2.815-2.816Z" fill="#444"/><path d="M14.977 25.43a.827.827 0 0 1-.83-.83c0-.462.369-.831.83-.831.462 0 .83.37.83.83-.022.462-.391.831-.83.831Zm0-1.177a.365.365 0 0 0-.369.37c0 .207.162.369.37.369a.364.364 0 0 0 .368-.37.38.38 0 0 0-.369-.369Zm0-1.915a.827.827 0 0 1-.83-.83c0-.462.369-.831.83-.831.462 0 .83.369.83.83-.022.462-.391.831-.83.831Zm0-1.177a.364.364 0 0 0-.369.37c0 .207.162.369.37.369a.365.365 0 0 0 .368-.37.38.38 0 0 0-.369-.369Zm1.545 2.723a.827.827 0 0 1-.83-.83c0-.462.369-.831.83-.831.462 0 .83.369.83.83-.022.462-.391.831-.83.831Zm0-1.177a.364.364 0 0 0-.369.37c0 .207.162.369.37.369a.364.364 0 0 0 .368-.37.38.38 0 0 0-.369-.369Zm-3.091 1.177a.827.827 0 0 1-.83-.83c0-.462.369-.831.83-.831.462 0 .83.369.83.83-.022.462-.391.831-.83.831Zm0-1.177a.364.364 0 0 0-.369.37c0 .207.162.369.37.369a.364.364 0 0 0 .368-.37.38.38 0 0 0-.369-.369Z" fill="#444"/></svg>