<svg width="29" height="29" fill="none" xmlns="http://www.w3.org/2000/svg"><path d="M12.524 7.877c.935-2.33 1.403-3.496 2.207-3.496.803 0 1.271 1.165 2.206 3.496l.043.109c.529 1.316.793 1.975 1.331 2.375.538.4 1.245.463 2.658.59l.255.023c2.313.207 3.47.31 3.717 1.046.247.736-.611 1.517-2.329 3.08l-.573.521c-.87.791-1.304 1.187-1.507 1.705-.038.097-.07.196-.094.297-.133.54-.006 1.114.249 2.261l.079.358c.468 2.109.702 3.163.293 3.618a1.18 1.18 0 0 1-.571.352c-.59.161-1.427-.521-3.102-1.886-1.1-.896-1.65-1.344-2.28-1.445a2.38 2.38 0 0 0-.75 0c-.631.101-1.181.55-2.28 1.445-1.676 1.365-2.513 2.047-3.103 1.886a1.189 1.189 0 0 1-.571-.352c-.408-.455-.175-1.51.293-3.618l.08-.358c.254-1.147.382-1.72.248-2.261a2.38 2.38 0 0 0-.094-.297c-.202-.518-.637-.914-1.507-1.705L6.85 15.1c-1.717-1.563-2.576-2.344-2.329-3.08.248-.736 1.404-.84 3.717-1.046l.255-.023c1.413-.127 2.12-.19 2.658-.59.538-.4.803-1.059 1.33-2.375l.044-.109Z" stroke="#F98418" stroke-width="2.377"/></svg>