<svg width="29" height="29" fill="none" xmlns="http://www.w3.org/2000/svg"><path d="M12.246 7.877c.935-2.33 1.402-3.496 2.206-3.496s1.272 1.165 2.207 3.496l.043.109c.528 1.316.792 1.975 1.33 2.375.539.4 1.245.463 2.659.59l.255.023c2.313.207 3.47.31 3.717 1.046.247.736-.612 1.517-2.33 3.08l-.572.521c-.87.791-1.305 1.187-1.507 1.705-.038.097-.07.196-.094.297-.134.54-.006 1.114.248 2.261l.08.358c.468 2.109.701 3.163.293 3.618a1.19 1.19 0 0 1-.571.352c-.59.161-1.428-.521-3.102-1.886-1.1-.896-1.65-1.344-2.28-1.445a2.38 2.38 0 0 0-.75 0c-.632.101-1.182.55-2.281 1.445-1.675 1.365-2.512 2.047-3.102 1.886a1.189 1.189 0 0 1-.571-.352c-.409-.455-.175-1.51.293-3.618l.08-.358c.254-1.147.381-1.72.248-2.261a2.38 2.38 0 0 0-.094-.297c-.203-.518-.637-.914-1.507-1.705l-.573-.521c-1.718-1.563-2.576-2.344-2.329-3.08.247-.736 1.404-.84 3.717-1.046l.255-.023c1.413-.127 2.12-.19 2.658-.59.538-.4.802-1.059 1.33-2.375l.044-.109Z" fill="#F98418" stroke="#F98418" stroke-width="1.664"/></svg>