<svg width="231" height="65" fill="none" xmlns="http://www.w3.org/2000/svg"><path fill-rule="evenodd" clip-rule="evenodd" d="M37.797 59.154v-5.756l6.099-7.695 6.098-7.695.304-2.888c.167-1.588.332-6.828.366-11.644.058-8.261.01-8.808-.844-9.661-1.209-1.207-1.99-1.14-3.097.266-.844 1.072-.921 1.76-.921 8.217 0 3.985.177 7.048.408 7.048.225 0 .855.722 1.402 1.605.756 1.222.897 1.854.592 2.644-.548 1.419-8.993 10.41-9.776 10.41-1.502 0-.348-1.854 3.594-5.775 2.323-2.311 4.224-4.512 4.224-4.89 0-1.036-1.288-2.662-2.108-2.662-.765 0-1.804.819-10.902 8.583-3.57 3.046-5.796 5.276-6.004 6.014-.18.645-.33 5.27-.33 10.279v9.106l5.448.125 5.447.125v-5.756Zm-13.953 5.082c.425-1.108-.029-18.634-.503-19.431C22.589 43.544 6.98 30.678 6.2 30.678c-.959 0-2.199 1.403-2.199 2.487 0 .498 1.784 2.637 4.224 5.065 3.796 3.776 5.272 6.092 3.63 5.696-.328-.08-2.629-2.284-5.114-4.9-5.193-5.467-5.439-6.185-2.962-8.659l1.556-1.554v-6.861c0-6.693-.027-6.888-1.092-7.952-1.323-1.322-2.181-1.374-3.355-.202C.046 14.641 0 15.28 0 26.055v11.368l6.305 7.806c3.468 4.294 6.353 8.224 6.41 8.733.06.509.123 3.174.144 5.923l.037 4.997h5.35c4.27 0 5.4-.13 5.598-.646Zm4.34-39.097c2.753-4.445 5.14-8.405 5.305-8.8.479-1.146-.45-1.518-3.88-1.554-1.684-.018-3.105-.054-3.159-.08-.073-.035 1.253-9.867 1.791-13.283.035-.223-.075-.461-.244-.531-.37-.152-10.846 16.667-10.75 17.257.126.762 1.045.993 4.091 1.025 1.668.017 3.067.047 3.11.064.043.018-.36 3.076-.893 6.795-.534 3.72-.837 6.858-.673 6.976.163.117 2.55-3.424 5.302-7.87Z" fill="#fff"/><path d="M73.028 53.438V31.693h-2.5v21.745h2.5Zm-1.269-29.935c-1.377 0-1.957.689-1.957 1.703 0 .979.58 1.667 1.957 1.667 1.414 0 1.994-.688 1.994-1.667 0-1.014-.58-1.703-1.994-1.703Zm34.787 21.2c-.87 4.024-4.53 6.814-12.214 6.814-8.951 0-12.43-3.805-12.43-8.951 0-5.147 3.479-8.952 12.43-8.952 7.684 0 11.344 2.79 12.214 6.814h2.537c-.906-5.437-5.328-9.17-14.75-9.17-10.62 0-14.932 4.748-14.932 11.308s4.313 11.307 14.931 11.307c9.423 0 13.845-3.733 14.751-9.17h-2.537Zm21.979-13.445c-10.002 0-14.206 4.748-14.206 11.308s4.204 11.307 14.206 11.307c7.176 0 11.343-2.428 13.156-6.197v5.762h2.5V31.693h-2.5v5.763c-1.813-3.77-5.98-6.198-13.156-6.198Zm.725 20.26c-8.952 0-12.431-3.806-12.431-8.952 0-5.147 3.479-8.952 12.431-8.952 8.951 0 12.431 3.806 12.431 8.952s-3.48 8.951-12.431 8.951Zm38.326-20.26c-7.139 0-11.343 2.429-13.155 6.198v-5.763h-2.501v28.993h2.501v-13.01c1.812 3.769 6.016 6.197 13.155 6.197 10.039 0 14.243-4.748 14.243-11.307 0-6.56-4.204-11.308-14.243-11.308Zm-.688 20.26c-8.952 0-12.467-3.806-12.467-8.952 0-5.147 3.515-8.952 12.467-8.952 8.951 0 12.43 3.806 12.43 8.952s-3.479 8.951-12.43 8.951Zm23.902 1.92V31.693h-2.501v21.745h2.501Zm-1.268-29.935c-1.378 0-1.958.689-1.958 1.703 0 .979.58 1.667 1.958 1.667 1.413 0 1.993-.688 1.993-1.667 0-1.014-.58-1.703-1.993-1.703Zm21.848 7.756c-10.003 0-14.207 4.747-14.207 11.307 0 6.56 4.204 11.307 14.207 11.307 7.175 0 11.343-2.428 13.155-6.197v5.762h2.501V31.693h-2.501v5.763c-1.812-3.77-5.98-6.198-13.155-6.198Zm.725 20.258c-8.952 0-12.431-3.805-12.431-8.951 0-5.147 3.479-8.952 12.431-8.952 8.951 0 12.43 3.806 12.43 8.952s-3.479 8.951-12.43 8.951Z" fill="#fff"/><path d="M73.028 53.438v.819h.819v-.819h-.82Zm0-21.745h.819v-.818h-.82v.818Zm-2.5 0v-.818h-.82v.818h.82Zm0 21.745h-.82v.819h.82v-.819Zm3.319 0V31.693h-1.638v21.745h1.638Zm-.82-22.563h-2.5v1.637h2.5v-1.637Zm-3.318.818v21.745h1.637V31.693h-1.637Zm.818 22.564h2.5v-1.638h-2.5v1.638Zm1.232-31.573c-.815 0-1.537.204-2.056.694-.527.497-.72 1.167-.72 1.828h1.638c0-.353.098-.535.205-.636.115-.108.372-.248.933-.248v-1.638Zm-2.775 2.522c0 .651.197 1.312.723 1.8.519.482 1.237.686 2.052.686v-1.637c-.56 0-.821-.14-.938-.248-.107-.1-.2-.273-.2-.6h-1.637Zm2.775 2.486c.83 0 1.556-.202 2.08-.681.535-.49.732-1.153.732-1.805h-1.637c0 .327-.093.498-.2.597-.12.109-.39.252-.975.252v1.637Zm2.812-2.486c0-.662-.192-1.334-.727-1.832-.526-.488-1.256-.69-2.085-.69v1.638c.585 0 .852.142.97.252.108.1.205.28.205.632h1.637Zm31.975 19.498v-.819h-.661l-.139.646.8.173Zm0-4.276-.8.172.139.646h.661v-.819Zm2.537 0v.818h.966l-.159-.953-.807.135Zm0 4.276.807.135.159-.954h-.966v.819Zm-3.337-.173c-.389 1.796-1.388 3.306-3.176 4.388-1.812 1.096-4.484 1.78-8.237 1.78v1.637c3.929 0 6.929-.712 9.085-2.017 2.181-1.319 3.446-3.215 3.928-5.442l-1.6-.346Zm-11.413 6.168c-4.377 0-7.273-.933-9.06-2.366-1.76-1.41-2.552-3.392-2.552-5.767h-1.638c0 2.77.946 5.265 3.165 7.044 2.19 1.756 5.51 2.726 10.084 2.726v-1.637ZM82.72 42.566c0-2.376.793-4.357 2.551-5.767 1.788-1.433 4.684-2.366 9.06-2.366v-1.638c-4.574 0-7.894.97-10.084 2.726-2.219 1.78-3.165 4.274-3.165 7.045h1.638Zm11.611-8.133c3.754 0 6.426.683 8.238 1.78 1.788 1.081 2.787 2.592 3.176 4.387l1.6-.346c-.482-2.226-1.747-4.123-3.928-5.442-2.156-1.305-5.156-2.017-9.086-2.017v1.638Zm12.214 6.813h2.537V39.61h-2.537v1.637Zm3.344-.953c-.486-2.919-1.931-5.418-4.532-7.168-2.577-1.734-6.217-2.685-11.026-2.685v1.637c4.615 0 7.897.916 10.112 2.407 2.193 1.475 3.411 3.56 3.831 6.078l1.615-.27ZM94.332 30.44c-5.416 0-9.365 1.209-11.972 3.384-2.63 2.193-3.778 5.273-3.778 8.742h1.638c0-3.091 1.008-5.665 3.19-7.485 2.204-1.84 5.72-3.004 10.922-3.004V30.44Zm-15.75 12.126c0 3.468 1.149 6.548 3.778 8.742 2.607 2.174 6.556 3.384 11.972 3.384v-1.638c-5.202 0-8.718-1.164-10.923-3.004-2.181-1.82-3.19-4.393-3.19-7.484h-1.636Zm15.75 12.126c4.809 0 8.449-.951 11.026-2.686 2.601-1.75 4.046-4.249 4.532-7.167l-1.615-.27c-.42 2.518-1.638 4.603-3.831 6.079-2.215 1.49-5.497 2.406-10.112 2.406v1.638Zm14.751-10.807h-2.537v1.638h2.537v-1.638Zm32.598 3.79h.818l-1.556-.354.738.355Zm0 5.763h-.819v.819h.819v-.819Zm2.5 0v.819H145v-.819h-.819Zm0-21.745H145v-.818h-.819v.818Zm-2.5 0v-.818h-.819v.818h.819Zm0 5.763-.738.354 1.556-.354h-.818Zm-13.156-7.016c-5.119 0-8.891 1.214-11.392 3.395-2.518 2.196-3.633 5.27-3.633 8.73h1.637c0-3.098.987-5.677 3.072-7.496 2.101-1.832 5.433-2.992 10.316-2.992V30.44ZM113.5 42.566c0 3.46 1.115 6.535 3.633 8.73 2.501 2.181 6.273 3.396 11.392 3.396v-1.638c-4.883 0-8.215-1.16-10.316-2.992-2.085-1.818-3.072-4.398-3.072-7.496H113.5Zm15.025 12.126c7.352 0 11.894-2.503 13.893-6.662l-1.475-.71c-1.625 3.38-5.419 5.734-12.418 5.734v1.638Zm12.337-7.016v5.762h1.637v-5.762h-1.637Zm.819 6.58h2.5V52.62h-2.5v1.638Zm3.319-.818V31.693h-1.638v21.745H145Zm-.819-22.563h-2.5v1.637h2.5v-1.637Zm-3.319.818v5.763h1.637v-5.763h-1.637Zm1.556 5.408c-1.999-4.159-6.541-6.661-13.893-6.661v1.637c6.999 0 10.793 2.354 12.418 5.733l1.475-.709ZM129.25 50.699c-4.377 0-7.273-.933-9.06-2.366-1.759-1.41-2.552-3.392-2.552-5.767h-1.637c0 2.77.946 5.265 3.165 7.044 2.19 1.756 5.509 2.726 10.084 2.726v-1.637Zm-11.612-8.133c0-2.376.793-4.357 2.552-5.767 1.787-1.433 4.683-2.366 9.06-2.366v-1.638c-4.575 0-7.894.97-10.084 2.726-2.219 1.78-3.165 4.274-3.165 7.045h1.637Zm11.612-8.133c4.377 0 7.272.933 9.06 2.366 1.758 1.41 2.552 3.391 2.552 5.767h1.637c0-2.771-.946-5.265-3.165-7.045-2.19-1.756-5.51-2.726-10.084-2.726v1.638Zm11.612 8.133c0 2.375-.794 4.356-2.552 5.767-1.788 1.433-4.683 2.366-9.06 2.366v1.637c4.574 0 7.894-.97 10.084-2.726 2.219-1.78 3.165-4.274 3.165-7.044h-1.637Zm13.559-5.11h-.819l1.556.354-.737-.354Zm0-5.763h.818v-.818h-.818v.818Zm-2.501 0v-.818h-.819v.818h.819Zm0 28.993h-.819v.819h.819v-.819Zm2.501 0v.819h.818v-.819h-.818Zm0-13.01.737-.355-1.556.355h.819Zm13.155-17.236c-7.315 0-11.893 2.501-13.893 6.661l1.475.71c1.625-3.38 5.454-5.734 12.418-5.734V30.44Zm-12.337 7.016v-5.763h-1.637v5.763h1.637Zm-.818-6.581h-2.501v1.637h2.501v-1.637Zm-3.32.818v28.993h1.638V31.693h-1.638Zm.819 29.812h2.501v-1.638h-2.501v1.638Zm3.319-.819v-13.01h-1.637v13.01h1.637Zm-1.556-12.656c2 4.16 6.578 6.662 13.893 6.662v-1.638c-6.964 0-10.793-2.355-12.418-5.733l-1.475.71Zm13.893 6.662c5.137 0 8.917-1.214 11.424-3.395 2.522-2.196 3.638-5.27 3.638-8.731H181c0 3.098-.986 5.677-3.075 7.496-2.106 1.832-5.447 2.992-10.349 2.992v1.638Zm15.062-12.126c0-3.461-1.116-6.536-3.638-8.731-2.507-2.181-6.287-3.395-11.424-3.395v1.637c4.902 0 8.243 1.16 10.349 2.993 2.089 1.818 3.075 4.397 3.075 7.496h1.638Zm-15.75 8.133c-4.377 0-7.283-.933-9.08-2.368-1.768-1.41-2.569-3.393-2.569-5.765h-1.637c0 2.773.957 5.267 3.185 7.045 2.198 1.755 5.526 2.725 10.101 2.725v-1.637Zm-11.649-8.133c0-2.373.801-4.355 2.569-5.766 1.797-1.434 4.703-2.367 9.08-2.367v-1.638c-4.575 0-7.903.97-10.101 2.725-2.228 1.778-3.185 4.272-3.185 7.046h1.637Zm11.649-8.133c4.376 0 7.272.933 9.06 2.366 1.758 1.41 2.552 3.391 2.552 5.767h1.637c0-2.771-.946-5.266-3.165-7.045-2.19-1.756-5.51-2.726-10.084-2.726v1.638Zm11.612 8.133c0 2.375-.794 4.356-2.552 5.767-1.788 1.433-4.684 2.366-9.06 2.366v1.637c4.574 0 7.894-.97 10.084-2.726 2.219-1.78 3.165-4.274 3.165-7.044H178.5Zm12.29 10.872v.819h.819v-.819h-.819Zm0-21.745h.819v-.818h-.819v.818Zm-2.501 0v-.818h-.818v.818h.818Zm0 21.745h-.818v.819h.818v-.819Zm3.32 0V31.693h-1.638v21.745h1.638Zm-.819-22.563h-2.501v1.637h2.501v-1.637Zm-3.319.818v21.745h1.637V31.693h-1.637Zm.818 22.564h2.501v-1.638h-2.501v1.638Zm1.233-31.573c-.816 0-1.537.204-2.057.694-.527.497-.719 1.167-.719 1.828h1.637c0-.353.098-.535.205-.636.115-.108.372-.248.934-.248v-1.638Zm-2.776 2.522c0 .651.197 1.312.723 1.8.519.482 1.237.686 2.053.686v-1.637c-.562 0-.822-.14-.938-.248-.108-.1-.201-.273-.201-.6h-1.637Zm2.776 2.486c.828 0 1.555-.202 2.079-.681.535-.49.732-1.153.732-1.805h-1.637c0 .327-.092.498-.201.597-.119.109-.389.252-.973.252v1.637Zm2.811-2.486c0-.662-.192-1.334-.727-1.832-.526-.488-1.256-.69-2.084-.69v1.638c.584 0 .851.142.969.252.108.1.205.28.205.632h1.637Zm32.192 22.47h.819l-1.557-.355.738.355Zm0 5.762h-.818v.819h.818v-.819Zm2.501 0v.819h.819v-.819h-.819Zm0-21.745h.819v-.818h-.819v.818Zm-2.501 0v-.818h-.818v.818h.818Zm0 5.763-.738.354 1.557-.354h-.819ZM211.37 30.44c-5.119 0-8.891 1.214-11.393 3.395-2.517 2.196-3.632 5.27-3.632 8.73h1.637c0-3.098.987-5.677 3.072-7.496 2.101-1.832 5.432-2.992 10.316-2.992V30.44Zm-15.025 12.126c0 3.46 1.115 6.535 3.632 8.73 2.502 2.181 6.274 3.396 11.393 3.396v-1.638c-4.884 0-8.215-1.16-10.316-2.992-2.085-1.818-3.072-4.398-3.072-7.496h-1.637Zm15.025 12.126c7.352 0 11.894-2.503 13.893-6.662l-1.476-.71c-1.624 3.38-5.418 5.734-12.417 5.734v1.638Zm12.337-7.016v5.762h1.637v-5.762h-1.637Zm.818 6.58h2.501V52.62h-2.501v1.638Zm3.32-.818V31.693h-1.638v21.745h1.638Zm-.819-22.563h-2.501v1.637h2.501v-1.637Zm-3.319.818v5.763h1.637v-5.763h-1.637Zm1.556 5.408c-1.999-4.159-6.541-6.661-13.893-6.661v1.637c6.999 0 10.793 2.354 12.417 5.733l1.476-.709Zm-13.168 13.598c-4.377 0-7.273-.933-9.06-2.366-1.759-1.41-2.552-3.392-2.552-5.767h-1.638c0 2.77.946 5.265 3.165 7.044 2.19 1.756 5.51 2.726 10.085 2.726v-1.637Zm-11.612-8.133c0-2.376.793-4.357 2.552-5.767 1.787-1.433 4.683-2.366 9.06-2.366v-1.638c-4.575 0-7.895.97-10.085 2.726-2.219 1.78-3.165 4.274-3.165 7.045h1.638Zm11.612-8.133c4.376 0 7.272.933 9.06 2.366 1.758 1.41 2.552 3.391 2.552 5.767h1.637c0-2.771-.946-5.265-3.165-7.045-2.19-1.756-5.51-2.726-10.084-2.726v1.638Zm11.612 8.133c0 2.375-.794 4.356-2.552 5.767-1.788 1.433-4.684 2.366-9.06 2.366v1.637c4.574 0 7.894-.97 10.084-2.726 2.219-1.78 3.165-4.274 3.165-7.044h-1.637Z" fill="#fff"/><ellipse cx="71.659" cy="25.795" rx="3.07" ry="2.865" fill="#fff"/></svg>