<svg width="24" height="26" fill="none" xmlns="http://www.w3.org/2000/svg"><path fill-rule="evenodd" clip-rule="evenodd" d="M2.266 25.233a1.272 1.272 0 0 1-1.877 0 1.473 1.473 0 0 1 0-1.994l9.525-10.12L.591 3.217a1.473 1.473 0 0 1 0-1.994 1.273 1.273 0 0 1 1.877 0l9.323 9.904 9.323-9.904a1.273 1.273 0 0 1 1.877 0c.518.55.518 1.443 0 1.994l-9.323 9.904 9.526 10.12c.518.55.518 1.443 0 1.994-.519.55-1.36.55-1.877 0l-9.526-10.12-9.525 10.12Z" fill="#BFABAD"/><path fill-rule="evenodd" clip-rule="evenodd" d="M2.266 25.233a1.272 1.272 0 0 1-1.877 0 1.473 1.473 0 0 1 0-1.994l9.525-10.12L.591 3.217a1.473 1.473 0 0 1 0-1.994 1.273 1.273 0 0 1 1.877 0l9.323 9.904 9.323-9.904a1.273 1.273 0 0 1 1.877 0c.518.55.518 1.443 0 1.994l-9.323 9.904 9.526 10.12c.518.55.518 1.443 0 1.994-.519.55-1.36.55-1.877 0l-9.526-10.12-9.525 10.12Z" fill="#373737"/></svg>