<svg width="58" height="59" fill="none" xmlns="http://www.w3.org/2000/svg"><g filter="url(#a)" clip-rule="evenodd"><path fill-rule="evenodd" d="M57.612 29.526v2.852l-.003 1.182-.003.906-.005.764-.007.673-.008.608-.009.559-.01.52-.013.488-.013.46-.015.44-.017.417-.018.401-.019.386-.02.371-.023.359-.023.347-.025.337-.027.326-.028.318-.03.31-.03.302-.032.294-.034.287-.035.281-.036.275-.038.27-.04.263-.04.258-.043.253-.044.248-.045.244-.047.239-.049.235-.05.23-.05.227-.053.223-.054.22-.056.215-.057.213-.059.209-.06.205-.061.203-.064.199-.064.196-.066.193-.068.19-.07.188-.07.185-.072.182-.074.18-.075.176-.077.175-.078.172-.08.169-.082.167-.083.165-.085.162-.086.16-.088.158-.09.155-.09.154-.093.15-.094.15-.096.147-.098.145-.099.143-.1.14-.103.14-.105.136-.105.135-.108.133-.11.131-.11.13-.113.127-.115.125-.116.124-.118.122-.12.12-.122.118-.123.117-.125.114-.128.113-.129.111-.13.11-.134.108-.134.106-.137.104-.139.103-.14.1-.143.1-.145.098-.147.096-.149.094-.15.093-.154.091-.155.09-.158.088-.16.086-.162.085-.164.083-.167.082-.17.08-.17.078-.175.077-.177.076-.179.074-.182.072-.184.07-.188.07-.19.068-.193.066-.196.065-.199.063-.202.062-.205.06-.209.059-.212.057-.215.056-.22.054-.222.053-.227.051-.23.05-.235.048-.239.047-.243.046-.248.044-.252.042-.258.041-.263.04-.269.038-.274.037-.28.035-.287.034-.294.032-.301.031-.31.03-.316.027-.327.027-.335.025-.347.024-.358.022-.37.02-.384.02-.4.018-.416.017-.437.015-.46.014-.485.012-.517.01-.555.01-.604.008-.667.007-.755.005-.892.003-1.15.003h-5.7l-1.217-.002-.921-.004-.773-.005-.679-.006-.613-.008-.562-.009-.523-.01-.49-.012-.463-.014-.44-.015-.42-.016-.402-.018-.387-.019-.372-.02-.36-.023-.348-.023-.337-.025-.328-.026-.318-.028-.31-.03-.303-.03-.295-.032-.288-.034-.281-.035-.275-.036-.27-.038-.264-.04-.258-.04-.254-.042-.248-.044-.245-.045-.24-.047-.234-.048-.232-.05-.227-.05-.223-.053-.22-.054-.216-.056-.212-.057-.21-.058-.205-.06-.203-.062-.199-.063-.196-.065-.194-.066-.19-.067-.188-.07-.185-.07-.183-.072-.18-.073-.176-.076-.175-.076-.172-.079-.17-.08-.167-.08-.165-.084-.162-.084-.16-.087-.158-.087-.156-.09-.154-.09-.15-.093-.15-.094-.147-.096-.145-.097-.143-.1-.141-.1-.14-.103-.137-.104-.135-.105-.133-.108-.131-.11-.13-.11-.127-.113-.126-.114-.123-.116-.122-.118-.12-.12-.119-.121-.116-.124-.115-.125-.113-.127-.112-.129-.11-.13-.107-.133-.106-.135-.105-.137-.103-.138-.1-.14-.1-.143-.098-.145-.096-.147-.095-.148-.093-.151-.091-.153-.09-.155-.088-.158-.086-.16-.085-.161-.084-.165-.081-.166-.08-.17-.08-.17-.076-.175-.076-.176-.074-.18-.072-.18-.071-.185-.07-.187-.068-.19-.066-.193-.065-.196-.063-.199-.062-.201-.06-.206-.06-.208-.057-.212-.055-.215-.055-.218-.053-.223-.051-.226-.05-.23-.049-.234-.047-.239-.045-.243-.044-.247-.043-.253-.041-.257-.04-.263-.038-.268-.037-.273-.035-.28-.034-.287L.91 42.9l-.03-.3-.03-.309-.028-.316-.027-.326-.025-.335-.024-.345-.022-.357-.021-.37-.02-.382-.018-.399-.017-.415-.015-.435-.014-.457-.012-.484-.01-.514-.01-.552-.008-.6-.007-.66-.005-.748-.004-.878-.003-1.12V26.91l.002-1.254.003-.938.005-.782.006-.685.008-.617.009-.566.01-.526.012-.492.014-.466.014-.441.017-.422.017-.403.02-.388.02-.373.022-.36.023-.35.025-.338.026-.329.028-.319.029-.31.03-.304.032-.295.034-.289.035-.282.036-.275.038-.27.04-.265.04-.258.042-.254.044-.25.045-.244.046-.24.048-.235.05-.232.05-.227.053-.224.054-.22.055-.216.057-.213.059-.21.06-.205.061-.203.063-.2.064-.197.066-.193.068-.191.068-.188.07-.185.073-.183.073-.18.076-.177.076-.175.078-.172.08-.17.081-.167.083-.165.085-.163.086-.16.087-.158.09-.156.09-.154.093-.152.094-.149.095-.147.098-.146.098-.143.101-.14.102-.14.104-.137.106-.136.107-.133.11-.131.11-.13.113-.127.114-.126.116-.124.118-.122.12-.12.12-.119.124-.117.125-.115.127-.113.129-.111.13-.11.133-.108.134-.106.137-.105.138-.103.14-.101.143-.1.144-.098.147-.096.148-.095.151-.093.153-.091.155-.09.157-.088.16-.087.161-.085.164-.084.167-.081.169-.08.17-.08.175-.077.176-.075.179-.075.181-.072.184-.071.187-.07.19-.068.193-.066.195-.065.199-.064.201-.062.205-.06.208-.06.211-.057.215-.056.219-.054.222-.053.226-.052.23-.05.233-.048.239-.048.242-.045.247-.044.252-.043.257-.041.262-.04.268-.039.273-.037.28-.035.286-.034.293-.033.3-.03.307-.03.316-.029.325-.026.334-.026.344-.024.356-.022.368-.021.382-.02.397-.018.414-.017.433-.015.456-.014.481-.013.512-.01.549-.01.595-.008.655-.007.739-.006.865-.003L25.911 1h5.664l1.297.002.954.003.792.005.691.006.622.008.57.009.528.01.495.012.467.013.444.015.423.016.405.017.388.02.375.02.362.021.35.024.339.024.329.026.32.028.311.029.304.03.296.032.289.034.282.034.277.037.27.037.265.04.259.04.254.042.25.044.245.044.24.047.236.048.231.05.228.05.224.052.22.054.217.055.213.057.21.058.206.06.203.061.2.063.197.065.194.065.19.068.19.068.185.07.182.073.18.073.178.075.175.076.172.078.17.08.168.081.165.083.163.084.16.086.159.088.156.089.154.09.152.093.15.093.147.096.145.097.143.099.142.1.139.103.137.103.136.106.133.107.132.109.13.11.127.113.126.114.124.116.123.118.12.12.119.12.116.123.115.125.114.127.111.129.11.13.109.133.106.134.105.136.103.138.101.14.1.143.098.144.096.146.095.149.093.15.092.153.09.155.088.157.087.16.085.16.084.165.082.166.08.169.08.17.077.174.075.176.075.179.072.181.072.184.07.187.067.19.067.191.065.196.064.198.062.201.06.205.06.208.057.21.056.216.055.218.053.222.052.225.05.23.048.233.048.238.046.242.044.247.043.252.041.256.04.262.039.267.037.273.035.279.034.285.033.292.031.3.03.307.028.315.027.324.026.333.024.344.023.355.02.367.02.38.019.396.017.413.015.432.014.453.013.48.01.508.01.546.009.59.007.65.005.732.004.852.003 1.068v1.666l.001 1.61Z" fill="#767676"/><path d="M57.612 29.526v2.852l-.003 1.182-.003.906-.005.764-.007.673-.008.608-.009.559-.01.52-.013.488-.013.46-.015.44-.017.417-.018.401-.019.386-.02.371-.023.359-.023.347-.025.337-.027.326-.028.318-.03.31-.03.302-.032.294-.034.287-.035.281-.036.275-.038.27-.04.263-.04.258-.043.253-.044.248-.045.244-.047.239-.049.235-.05.23-.05.227-.053.223-.054.22-.056.215-.057.213-.059.209-.06.205-.061.203-.064.199-.064.196-.066.193-.068.19-.07.188-.07.185-.072.182-.074.18-.075.176-.077.175-.078.172-.08.169-.082.167-.083.165-.085.162-.086.16-.088.158-.09.155-.09.154-.093.15-.094.15-.096.147-.098.145-.099.143-.1.14-.103.14-.105.136-.105.135-.108.133-.11.131-.11.13-.113.127-.115.125-.116.124-.118.122-.12.12-.122.118-.123.117-.125.114-.128.113-.129.111-.13.11-.134.108-.134.106-.137.104-.139.103-.14.1-.143.1-.145.098-.147.096-.149.094-.15.093-.154.091-.155.09-.158.088-.16.086-.162.085-.164.083-.167.082-.17.08-.17.078-.175.077-.177.076-.179.074-.182.072-.184.07-.188.07-.19.068-.193.066-.196.065-.199.063-.202.062-.205.06-.209.059-.212.057-.215.056-.22.054-.222.053-.227.051-.23.05-.235.048-.239.047-.243.046-.248.044-.252.042-.258.041-.263.04-.269.038-.274.037-.28.035-.287.034-.294.032-.301.031-.31.03-.316.027-.327.027-.335.025-.347.024-.358.022-.37.02-.384.02-.4.018-.416.017-.437.015-.46.014-.485.012-.517.01-.555.01-.604.008-.667.007-.755.005-.892.003-1.15.003h-5.7l-1.217-.002-.921-.004-.773-.005-.679-.006-.613-.008-.562-.009-.523-.01-.49-.012-.463-.014-.44-.015-.42-.016-.402-.018-.387-.019-.372-.02-.36-.023-.348-.023-.337-.025-.328-.026-.318-.028-.31-.03-.303-.03-.295-.032-.288-.034-.281-.035-.275-.036-.27-.038-.264-.04-.258-.04-.254-.042-.248-.044-.245-.045-.24-.047-.234-.048-.232-.05-.227-.05-.223-.053-.22-.054-.216-.056-.212-.057-.21-.058-.205-.06-.203-.062-.199-.063-.196-.065-.194-.066-.19-.067-.188-.07-.185-.07-.183-.072-.18-.073-.176-.076-.175-.076-.172-.079-.17-.08-.167-.08-.165-.084-.162-.084-.16-.087-.158-.087-.156-.09-.154-.09-.15-.093-.15-.094-.147-.096-.145-.097-.143-.1-.141-.1-.14-.103-.137-.104-.135-.105-.133-.108-.131-.11-.13-.11-.127-.113-.126-.114-.123-.116-.122-.118-.12-.12-.119-.121-.116-.124-.115-.125-.113-.127-.112-.129-.11-.13-.107-.133-.106-.135-.105-.137-.103-.138-.1-.14-.1-.143-.098-.145-.096-.147-.095-.148-.093-.151-.091-.153-.09-.155-.088-.158-.086-.16-.085-.161-.084-.165-.081-.166-.08-.17-.08-.17-.076-.175-.076-.176-.074-.18-.072-.18-.071-.185-.07-.187-.068-.19-.066-.193-.065-.196-.063-.199-.062-.201-.06-.206-.06-.208-.057-.212-.055-.215-.055-.218-.053-.223-.051-.226-.05-.23-.049-.234-.047-.239-.045-.243-.044-.247-.043-.253-.041-.257-.04-.263-.038-.268-.037-.273-.035-.28-.034-.287L.91 42.9l-.03-.3-.03-.309-.028-.316-.027-.326-.025-.335-.024-.345-.022-.357-.021-.37-.02-.382-.018-.399-.017-.415-.015-.435-.014-.457-.012-.484-.01-.514-.01-.552-.008-.6-.007-.66-.005-.748-.004-.878-.003-1.12V26.91l.002-1.254.003-.938.005-.782.006-.685.008-.617.009-.566.01-.526.012-.492.014-.466.014-.441.017-.422.017-.403.02-.388.02-.373.022-.36.023-.35.025-.338.026-.329.028-.319.029-.31.03-.304.032-.295.034-.289.035-.282.036-.275.038-.27.04-.265.04-.258.042-.254.044-.25.045-.244.046-.24.048-.235.05-.232.05-.227.053-.224.054-.22.055-.216.057-.213.059-.21.06-.205.061-.203.063-.2.064-.197.066-.193.068-.191.068-.188.07-.185.073-.183.073-.18.076-.177.076-.175.078-.172.08-.17.081-.167.083-.165.085-.163.086-.16.087-.158.09-.156.09-.154.093-.152.094-.149.095-.147.098-.146.098-.143.101-.14.102-.14.104-.137.106-.136.107-.133.11-.131.11-.13.113-.127.114-.126.116-.124.118-.122.12-.12.12-.119.124-.117.125-.115.127-.113.129-.111.13-.11.133-.108.134-.106.137-.105.138-.103.14-.101.143-.1.144-.098.147-.096.148-.095.151-.093.153-.091.155-.09.157-.088.16-.087.161-.085.164-.084.167-.081.169-.08.17-.08.175-.077.176-.075.179-.075.181-.072.184-.071.187-.07.19-.068.193-.066.195-.065.199-.064.201-.062.205-.06.208-.06.211-.057.215-.056.219-.054.222-.053.226-.052.23-.05.233-.048.239-.048.242-.045.247-.044.252-.043.257-.041.262-.04.268-.039.273-.037.28-.035.286-.034.293-.033.3-.03.307-.03.316-.029.325-.026.334-.026.344-.024.356-.022.368-.021.382-.02.397-.018.414-.017.433-.015.456-.014.481-.013.512-.01.549-.01.595-.008.655-.007.739-.006.865-.003L25.911 1h5.664l1.297.002.954.003.792.005.691.006.622.008.57.009.528.01.495.012.467.013.444.015.423.016.405.017.388.02.375.02.362.021.35.024.339.024.329.026.32.028.311.029.304.03.296.032.289.034.282.034.277.037.27.037.265.04.259.04.254.042.25.044.245.044.24.047.236.048.231.05.228.05.224.052.22.054.217.055.213.057.21.058.206.06.203.061.2.063.197.065.194.065.19.068.19.068.185.07.182.073.18.073.178.075.175.076.172.078.17.08.168.081.165.083.163.084.16.086.159.088.156.089.154.09.152.093.15.093.147.096.145.097.143.099.142.1.139.103.137.103.136.106.133.107.132.109.13.11.127.113.126.114.124.116.123.118.12.12.119.12.116.123.115.125.114.127.111.129.11.13.109.133.106.134.105.136.103.138.101.14.1.143.098.144.096.146.095.149.093.15.092.153.09.155.088.157.087.16.085.16.084.165.082.166.08.169.08.17.077.174.075.176.075.179.072.181.072.184.07.187.067.19.067.191.065.196.064.198.062.201.06.205.06.208.057.21.056.216.055.218.053.222.052.225.05.23.048.233.048.238.046.242.044.247.043.252.041.256.04.262.039.267.037.273.035.279.034.285.033.292.031.3.03.307.028.315.027.324.026.333.024.344.023.355.02.367.02.38.019.396.017.413.015.432.014.453.013.48.01.508.01.546.009.59.007.65.005.732.004.852.003 1.068v1.666l.001 1.61Z" stroke="#000" stroke-opacity=".04" stroke-width=".594"/></g><path d="m38.596 29.526.84-.84.84.84-.84.84-.84-.84Zm-17.829 1.189a1.188 1.188 0 1 1 0-2.378v2.378Zm11.538-9.16 7.131 7.13-1.68 1.681-7.132-7.131 1.68-1.68Zm7.131 8.811-7.131 7.132-1.681-1.681 7.131-7.131 1.681 1.68Zm-.84.349H20.767v-2.378h17.829v2.378Z" fill="#fff"/><defs><filter id="a" x="-4.491" y="-4.051" width="67.154" height="67.154" filterUnits="userSpaceOnUse" color-interpolation-filters="sRGB"><feFlood flood-opacity="0" result="BackgroundImageFix"/><feGaussianBlur in="BackgroundImageFix" stdDeviation="2.377"/><feComposite in2="SourceAlpha" operator="in" result="effect1_backgroundBlur_155_4839"/><feBlend in="SourceGraphic" in2="effect1_backgroundBlur_155_4839" result="shape"/></filter></defs></svg>