<svg width="17" height="21" viewBox="0 0 17 21" fill="none" xmlns="http://www.w3.org/2000/svg">
<path fill-rule="evenodd" clip-rule="evenodd" d="M1.208 11.6359C1.833 9.71586 2.958 7.25686 4.965 5.24986C8.899 1.31586 14.617 0.734856 14.762 0.719856C14.9459 0.701423 15.1313 0.734047 15.2978 0.814143C15.4644 0.894239 15.6056 1.0187 15.706 1.17386C15.914 1.48686 17.086 3.45686 15.515 5.83686C15.4328 5.95905 15.3405 6.07412 15.239 6.18086C15.2523 6.30498 15.2421 6.43049 15.209 6.55086C15.019 7.23986 14.775 7.96286 14.459 8.68586C13.908 9.94886 13.131 11.2259 12.036 12.3219C9.986 14.3719 7.294 15.3129 5.192 15.7519C4.24184 15.95 3.27812 16.0763 2.309 16.1299C2.278 16.3759 2 18.8559 2 19.2859C2 19.5511 1.89464 19.8054 1.70711 19.993C1.51957 20.1805 1.26522 20.2859 1 20.2859C0.734784 20.2859 0.48043 20.1805 0.292893 19.993C0.105357 19.8054 0 19.5511 0 19.2859C0 18.7149 0.116 17.6159 0.221 16.7259C0.426 14.9939 0.667 13.2989 1.208 11.6359ZM13.845 4.73586C14.372 3.93586 14.365 3.25586 14.26 2.81586C12.733 3.09086 9.041 4.00186 6.379 6.66486C4.675 8.36786 3.679 10.5049 3.11 12.2549C2.91217 12.8622 2.74726 13.4798 2.616 14.1049C3.34412 14.0471 4.06788 13.9435 4.783 13.7949C6.703 13.3929 8.961 12.5669 10.621 10.9069C11.471 10.0569 12.105 9.04986 12.575 8.00186C11.599 8.52186 10.557 8.98786 9.816 9.23486C9.69138 9.27635 9.5598 9.2929 9.42878 9.28355C9.29776 9.27419 9.16987 9.23913 9.0524 9.18035C8.81517 9.06164 8.63481 8.85355 8.551 8.60186C8.46719 8.35017 8.4868 8.07549 8.60551 7.83826C8.72422 7.60102 8.93231 7.42066 9.184 7.33686C9.858 7.11186 10.942 6.62386 11.938 6.07186C12.432 5.79786 12.884 5.51886 13.239 5.26386C13.623 4.98786 13.799 4.80486 13.845 4.73586Z" fill="white"/>
</svg>
