<svg width="148" height="50" viewBox="0 0 148 50" fill="none" xmlns="http://www.w3.org/2000/svg">
<rect y="0.857422" width="147.429" height="49.1429" rx="6.14286" fill="white"/>
<path d="M100.16 24.4471V27.2618H98.3961V29.1077H100.16V35.3795C100.16 37.5211 101.129 38.3777 103.567 38.3777C103.995 38.3777 104.403 38.3267 104.76 38.2656V36.4401C104.454 36.4707 104.26 36.4911 103.923 36.4911C102.832 36.4911 102.353 35.9812 102.353 34.8186V29.1077H104.76V27.2618H102.353V24.4471H100.16Z" fill="#001D26"/>
<path d="M110.969 38.5307C114.212 38.5307 116.2 36.3585 116.2 32.7586C116.2 29.179 114.202 26.9966 110.969 26.9966C107.726 26.9966 105.727 29.179 105.727 32.7586C105.727 36.3585 107.716 38.5307 110.969 38.5307ZM110.969 36.5829C109.062 36.5829 107.991 35.1857 107.991 32.7586C107.991 30.3518 109.062 28.9445 110.969 28.9445C112.866 28.9445 113.947 30.3518 113.947 32.7586C113.947 35.1755 112.866 36.5829 110.969 36.5829Z" fill="#001D26"/>
<path d="M117.902 38.3165H120.094V31.7592C120.094 30.1989 121.267 29.1484 122.929 29.1484C123.317 29.1484 123.97 29.2198 124.153 29.281V27.119C123.919 27.0578 123.501 27.0272 123.174 27.0272C121.726 27.0272 120.492 27.8227 120.176 28.9139H120.013V27.2108H117.902V38.3165Z" fill="#001D26"/>
<path d="M129.597 28.8629C131.219 28.8629 132.279 29.9949 132.33 31.7388H126.722C126.844 30.0051 127.976 28.8629 129.597 28.8629ZM132.32 35.3183C131.912 36.1851 131.005 36.6644 129.679 36.6644C127.925 36.6644 126.793 35.4305 126.722 33.4826V33.3603H134.564V32.5954C134.564 29.1077 132.698 26.9966 129.608 26.9966C126.477 26.9966 124.488 29.2504 124.488 32.7994C124.488 36.3483 126.436 38.5307 129.618 38.5307C132.157 38.5307 133.932 37.3069 134.431 35.3183H132.32Z" fill="#001D26"/>
<path d="M85.7817 34.2154C85.9508 36.9424 88.2233 38.6865 91.6057 38.6865C95.2207 38.6865 97.4827 36.8579 97.4827 33.9405C97.4827 31.6468 96.1931 30.3784 93.0644 29.6491L91.3838 29.2369C89.3966 28.7718 88.5933 28.1482 88.5933 27.0595C88.5933 25.6854 89.8406 24.7869 91.7115 24.7869C93.4872 24.7869 94.7133 25.6642 94.9353 27.07H97.2396C97.1022 24.5015 94.8402 22.694 91.7432 22.694C88.4136 22.694 86.1939 24.5015 86.1939 27.218C86.1939 29.4589 87.4517 30.7907 90.2105 31.4354L92.1765 31.9111C94.1954 32.3868 95.0833 33.0844 95.0833 34.2471C95.0833 35.6 93.688 36.5831 91.7854 36.5831C89.7454 36.5831 88.329 35.6635 88.1282 34.2154H85.7817Z" fill="#001D26"/>
<path d="M63.0687 27.0272C61.5593 27.0272 60.254 27.7819 59.5809 29.0465H59.4177V27.2108H57.3067V42.0083H59.4993V36.6339H59.6727C60.254 37.8066 61.5083 38.5001 63.089 38.5001C65.8935 38.5001 67.6782 36.2871 67.6782 32.7586C67.6782 29.23 65.8935 27.0272 63.0687 27.0272ZM62.4466 36.5319C60.6109 36.5319 59.4585 35.0837 59.4585 32.7688C59.4585 30.4436 60.6109 28.9955 62.4568 28.9955C64.3128 28.9955 65.4244 30.413 65.4244 32.7586C65.4244 35.1143 64.3128 36.5319 62.4466 36.5319Z" fill="#001D26"/>
<path d="M75.3504 27.0272C73.8411 27.0272 72.5358 27.7819 71.8627 29.0465H71.6995V27.2108H69.5885V42.0083H71.7811V36.6339H71.9545C72.5358 37.8066 73.7901 38.5001 75.3708 38.5001C78.1753 38.5001 79.96 36.2871 79.96 32.7586C79.96 29.23 78.1753 27.0272 75.3504 27.0272ZM74.7283 36.5319C72.8927 36.5319 71.7403 35.0837 71.7403 32.7688C71.7403 30.4436 72.8927 28.9955 74.7385 28.9955C76.5946 28.9955 77.7062 30.413 77.7062 32.7586C77.7062 35.1143 76.5946 36.5319 74.7283 36.5319Z" fill="#001D26"/>
<path d="M53.3728 38.3165H55.8885L50.3815 23.064H47.8341L42.3271 38.3165H44.7583L46.1641 34.2682H51.9776L53.3728 38.3165ZM48.9863 25.8333H49.166L51.3751 32.2811H46.7666L48.9863 25.8333Z" fill="#001D26"/>
<path d="M43.7999 11.5595V18.9174H46.4565C48.6491 18.9174 49.9188 17.5662 49.9188 15.2155C49.9188 12.9005 48.6389 11.5595 46.4565 11.5595H43.7999ZM44.9421 12.5997H46.3291C47.8537 12.5997 48.7562 13.5685 48.7562 15.2308C48.7562 16.9186 47.869 17.8772 46.3291 17.8772H44.9421V12.5997Z" fill="#001D26"/>
<path d="M53.8073 19.0245C55.4288 19.0245 56.4231 17.9384 56.4231 16.1384C56.4231 14.3487 55.4237 13.2575 53.8073 13.2575C52.1858 13.2575 51.1864 14.3487 51.1864 16.1384C51.1864 17.9384 52.1807 19.0245 53.8073 19.0245ZM53.8073 18.0506C52.8538 18.0506 52.3184 17.352 52.3184 16.1384C52.3184 14.9351 52.8538 14.2314 53.8073 14.2314C54.7557 14.2314 55.2962 14.9351 55.2962 16.1384C55.2962 17.3469 54.7557 18.0506 53.8073 18.0506Z" fill="#001D26"/>
<path d="M64.8906 13.3645H63.7943L62.8051 17.6019H62.7184L61.5762 13.3645H60.5258L59.3836 17.6019H59.3021L58.3077 13.3645H57.1962L58.7259 18.9174H59.8528L60.9949 14.828H61.0816L62.2289 18.9174H63.366L64.8906 13.3645Z" fill="#001D26"/>
<path d="M66.1531 18.9174H67.2494V15.6693C67.2494 14.8025 67.7644 14.262 68.5752 14.262C69.3859 14.262 69.7735 14.7056 69.7735 15.5979V18.9174H70.8698V15.3226C70.8698 14.0019 70.1865 13.2575 68.9474 13.2575C68.1112 13.2575 67.5605 13.6297 67.2902 14.2467H67.2086V13.3645H66.1531V18.9174Z" fill="#001D26"/>
<path d="M72.5963 18.9174H73.6926V11.1974H72.5963V18.9174Z" fill="#001D26"/>
<path d="M77.8157 19.0245C79.4372 19.0245 80.4315 17.9384 80.4315 16.1384C80.4315 14.3487 79.4321 13.2575 77.8157 13.2575C76.1942 13.2575 75.1948 14.3487 75.1948 16.1384C75.1948 17.9384 76.1891 19.0245 77.8157 19.0245ZM77.8157 18.0506C76.8622 18.0506 76.3268 17.352 76.3268 16.1384C76.3268 14.9351 76.8622 14.2314 77.8157 14.2314C78.7641 14.2314 79.3046 14.9351 79.3046 16.1384C79.3046 17.3469 78.7641 18.0506 77.8157 18.0506Z" fill="#001D26"/>
<path d="M83.698 18.0863C83.1014 18.0863 82.668 17.7956 82.668 17.2959C82.668 16.8064 83.0147 16.5464 83.7795 16.4954L85.1359 16.4087V16.8727C85.1359 17.5611 84.524 18.0863 83.698 18.0863ZM83.4175 19.0092C84.1467 19.0092 84.7535 18.6931 85.0849 18.1373H85.1716V18.9174H86.2271V15.1237C86.2271 13.9509 85.4418 13.2575 84.0498 13.2575C82.7903 13.2575 81.8929 13.8694 81.7807 14.8229H82.8413C82.9637 14.4302 83.3869 14.2059 83.9988 14.2059C84.7484 14.2059 85.1359 14.5373 85.1359 15.1237V15.603L83.6317 15.6897C82.311 15.7713 81.5666 16.3475 81.5666 17.3469C81.5666 18.3616 82.3467 19.0092 83.4175 19.0092Z" fill="#001D26"/>
<path d="M89.9474 19.0092C90.7122 19.0092 91.3598 18.6472 91.6912 18.0404H91.7779V18.9174H92.8283V11.1974H91.732V14.2467H91.6504C91.3496 13.6348 90.7071 13.2728 89.9474 13.2728C88.5451 13.2728 87.6426 14.3844 87.6426 16.1384C87.6426 17.8976 88.5349 19.0092 89.9474 19.0092ZM90.2584 14.2569C91.1762 14.2569 91.7524 14.986 91.7524 16.1435C91.7524 17.3061 91.1813 18.0251 90.2584 18.0251C89.3304 18.0251 88.7746 17.3163 88.7746 16.1384C88.7746 14.9707 89.3355 14.2569 90.2584 14.2569Z" fill="#001D26"/>
<path d="M99.9374 19.0245C101.559 19.0245 102.553 17.9384 102.553 16.1384C102.553 14.3487 101.554 13.2575 99.9374 13.2575C98.3159 13.2575 97.3165 14.3487 97.3165 16.1384C97.3165 17.9384 98.3108 19.0245 99.9374 19.0245ZM99.9374 18.0506C98.9839 18.0506 98.4485 17.352 98.4485 16.1384C98.4485 14.9351 98.9839 14.2314 99.9374 14.2314C100.886 14.2314 101.426 14.9351 101.426 16.1384C101.426 17.3469 100.886 18.0506 99.9374 18.0506Z" fill="#001D26"/>
<path d="M104.004 18.9174H105.101V15.6693C105.101 14.8025 105.616 14.262 106.426 14.262C107.237 14.262 107.625 14.7056 107.625 15.5979V18.9174H108.721V15.3226C108.721 14.0019 108.038 13.2575 106.799 13.2575C105.962 13.2575 105.412 13.6297 105.142 14.2467H105.06V13.3645H104.004V18.9174Z" fill="#001D26"/>
<path d="M113.77 11.9827V13.39H112.888V14.313H113.77V17.4489C113.77 18.5197 114.255 18.948 115.473 18.948C115.687 18.948 115.891 18.9225 116.07 18.8919V17.9792C115.917 17.9945 115.82 18.0047 115.652 18.0047C115.106 18.0047 114.866 17.7497 114.866 17.1684V14.313H116.07V13.39H114.866V11.9827H113.77Z" fill="#001D26"/>
<path d="M117.541 18.9174H118.638V15.6744C118.638 14.8331 119.137 14.2671 120.035 14.2671C120.81 14.2671 121.223 14.7158 121.223 15.603V18.9174H122.319V15.3328C122.319 14.0121 121.59 13.2626 120.407 13.2626C119.571 13.2626 118.984 13.6348 118.714 14.2569H118.627V11.1974H117.541V18.9174Z" fill="#001D26"/>
<path d="M126.274 14.1906C127.085 14.1906 127.615 14.7566 127.641 15.6285H124.836C124.897 14.7617 125.463 14.1906 126.274 14.1906ZM127.635 17.4183C127.432 17.8517 126.978 18.0914 126.315 18.0914C125.438 18.0914 124.872 17.4744 124.836 16.5005V16.4393H128.757V16.0568C128.757 14.313 127.824 13.2575 126.279 13.2575C124.714 13.2575 123.719 14.3844 123.719 16.1588C123.719 17.9333 124.693 19.0245 126.284 19.0245C127.554 19.0245 128.441 18.4126 128.691 17.4183H127.635Z" fill="#001D26"/>
<path d="M30.4304 25.7985C30.457 23.7332 31.5661 21.7791 33.3256 20.6974C32.2156 19.1121 30.3565 18.107 28.4222 18.0465C26.3591 17.83 24.3591 19.281 23.3078 19.281C22.2361 19.281 20.6175 18.068 18.8745 18.1039C16.6025 18.1773 14.4845 19.469 13.3792 21.4552C11.0031 25.569 12.7754 31.6149 15.0515 34.9401C16.1903 36.5684 17.5211 38.3873 19.2626 38.3228C20.9667 38.2521 21.6031 37.2361 23.6601 37.2361C25.698 37.2361 26.2952 38.3228 28.0719 38.2818C29.9005 38.2521 31.0526 36.6462 32.1514 35.0025C32.9696 33.8423 33.5992 32.56 34.0169 31.2032C31.868 30.2943 30.4329 28.1317 30.4304 25.7985Z" fill="#001D26"/>
<path d="M27.0744 15.8596C28.0714 14.6628 28.5626 13.1244 28.4436 11.5712C26.9204 11.7312 25.5134 12.4592 24.5029 13.6101C23.5148 14.7347 23.0005 16.246 23.0978 17.7398C24.6215 17.7555 26.1195 17.0472 27.0744 15.8596Z" fill="#001D26"/>
</svg>
