<svg width="18" height="18" viewBox="0 0 18 18" fill="none" xmlns="http://www.w3.org/2000/svg">
<path d="M7.32801 15.9259C7.32801 16.2372 7.2427 16.5416 7.08285 16.8004C6.92301 17.0593 6.69583 17.261 6.43002 17.3802C6.16422 17.4993 5.87173 17.5305 5.58955 17.4698C5.30738 17.409 5.04818 17.2591 4.84474 17.039C4.6413 16.8188 4.50276 16.5384 4.44663 16.233C4.3905 15.9277 4.41931 15.6112 4.52941 15.3236C4.63951 15.0359 4.82596 14.7901 5.06518 14.6171C5.3044 14.4442 5.58564 14.3519 5.87335 14.3519C6.25856 14.3539 6.62745 14.5204 6.89984 14.8152C7.17222 15.1099 7.3261 15.5091 7.32801 15.9259ZM13.4376 14.3519C13.1499 14.3519 12.8687 14.4442 12.6294 14.6171C12.3902 14.7901 12.2038 15.0359 12.0937 15.3236C11.9836 15.6112 11.9548 15.9277 12.0109 16.233C12.067 16.5384 12.2056 16.8188 12.409 17.039C12.6124 17.2591 12.8716 17.409 13.1538 17.4698C13.436 17.5305 13.7285 17.4993 13.9943 17.3802C14.2601 17.261 14.4873 17.0593 14.6471 16.8004C14.807 16.5416 14.8923 16.2372 14.8923 15.9259C14.8904 15.5091 14.7365 15.1099 14.4641 14.8152C14.1917 14.5204 13.8228 14.3539 13.4376 14.3519ZM17.0233 4.85231L15.2632 11.4949C15.1405 11.9543 14.8836 12.3583 14.5308 12.6463C14.1781 12.9344 13.7486 13.091 13.3067 13.0926H6.00427C5.56236 13.091 5.13284 12.9344 4.7801 12.6463C4.42736 12.3583 4.1704 11.9543 4.04774 11.4949L2.29487 4.86806C2.29487 4.86019 2.2876 4.84444 2.2876 4.83657L1.64027 2.38889H0.927486C0.696006 2.38889 0.474006 2.28939 0.310324 2.11227C0.146643 1.93515 0.0546875 1.69493 0.0546875 1.44444C0.0546875 1.19396 0.146643 0.953739 0.310324 0.776621C0.474006 0.599504 0.696006 0.5 0.927486 0.5H1.85847C2.17452 0.502594 2.48145 0.614859 2.73414 0.820286C2.98683 1.02571 3.17193 1.31346 3.26222 1.6412L3.7859 3.64815H16.1796C16.3146 3.64898 16.4477 3.68341 16.5684 3.74878C16.6891 3.81414 16.7943 3.90869 16.8759 4.0251C16.9575 4.14151 17.0132 4.27666 17.0388 4.4201C17.0643 4.56355 17.0591 4.71143 17.0233 4.85231ZM15.0232 5.53704H4.28776L5.72061 10.9755C5.73922 11.0413 5.77678 11.0989 5.82781 11.14C5.87885 11.181 5.94067 11.2034 6.00427 11.2037H13.3067C13.3703 11.2034 13.4321 11.181 13.4831 11.14C13.5342 11.0989 13.5717 11.0413 13.5903 10.9755L15.0232 5.53704Z" fill="white"/>
</svg>
