<svg width="25" height="25" viewBox="0 0 25 25" fill="none" xmlns="http://www.w3.org/2000/svg">
<path d="M12.5723 5.64453L12.5723 3.6119" stroke="white" stroke-width="2.03263" stroke-linecap="round"/>
<path d="M10.5371 16.8237L10.029 13.7748" stroke="white" stroke-width="2.03263" stroke-linecap="round"/>
<path d="M14.6035 16.8237L15.1117 13.7748" stroke="white" stroke-width="2.03263" stroke-linecap="round"/>
<path d="M2.4082 9.70959H22.7345V9.70959C21.4472 9.70959 20.8035 9.70959 20.3117 10.0142C20.149 10.1149 20.0014 10.2381 19.8732 10.3801C19.4856 10.8095 19.3704 11.4428 19.1401 12.7094L18.2598 17.551C17.9697 19.1469 17.8246 19.9449 17.2589 20.417C16.6933 20.8891 15.8822 20.8891 14.2602 20.8891H10.8825C9.26045 20.8891 8.44941 20.8891 7.88376 20.417C7.31811 19.9449 7.17303 19.1469 6.88286 17.551L6.00256 12.7094C5.77227 11.4428 5.65713 10.8095 5.26949 10.3801C5.14128 10.2381 4.99366 10.1149 4.831 10.0142C4.33922 9.70959 3.69555 9.70959 2.4082 9.70959V9.70959Z" stroke="white" stroke-width="2.03263" stroke-linecap="round"/>
</svg>
