<svg width="27" height="26" viewBox="0 0 27 26" fill="none" xmlns="http://www.w3.org/2000/svg">
<path d="M5.80957 7.08008H23.3232C23.6781 7.08009 24.029 7.15446 24.3534 7.2984C24.6777 7.44234 24.9683 7.65265 25.2064 7.91577C25.4446 8.17889 25.6249 8.48899 25.7358 8.82608C25.8468 9.16316 25.8858 9.51975 25.8505 9.87286L25.0885 17.493C25.0258 18.1198 24.7325 18.7009 24.2655 19.1236C23.7985 19.5462 23.1911 19.7803 22.5612 19.7803H10.4325C9.84503 19.7805 9.27569 19.5772 8.82136 19.2048C8.36703 18.8325 8.0558 18.3141 7.94067 17.7381L5.80957 7.08008Z" stroke="black" stroke-width="2.27273" stroke-linejoin="round"/>
<path d="M5.81007 7.08009L4.78135 2.96141C4.71255 2.68677 4.55396 2.44299 4.33076 2.26881C4.10756 2.09462 3.83255 2.00001 3.54943 2H2M9.62014 24.8604H12.1602M19.7803 24.8604H22.3204" stroke="black" stroke-width="2.27273" stroke-linecap="round" stroke-linejoin="round"/>
</svg>
