<svg width="30" height="30" viewBox="0 0 30 30" fill="none" xmlns="http://www.w3.org/2000/svg">
<path d="M15.0002 30C6.7387 30 0.000244141 23.2615 0.000244141 15C0.000244141 12.3231 0.715629 9.69233 2.07716 7.40771L1.20024 5.44618L4.89257 1.75385L6.6695 2.53847C9.11564 0.876925 12.0002 0 15.0002 0C17.9772 0 20.8387 0.876924 23.3079 2.51538L25.0618 1.73077L28.7541 5.42307L27.9002 7.33848C29.2849 9.64616 30.0002 12.3 30.0002 15C30.0002 23.2615 23.2618 30 15.0002 30ZM3.94639 5.93078L4.68486 7.56923L4.33871 8.1C3.00024 10.1769 2.30794 12.5539 2.30794 15C2.30794 21.9923 8.00792 27.6923 15.0002 27.6923C21.9926 27.6923 27.6926 21.9923 27.6926 15C27.6926 12.5308 26.9771 10.1308 25.6156 8.05384L25.2694 7.52306L25.9849 5.90767L24.5541 4.47693L23.0311 5.16926L22.5002 4.77693C20.3079 3.16153 17.7234 2.3077 15.0002 2.3077C12.2541 2.3077 9.64641 3.16153 7.45408 4.8L6.9233 5.19231L5.40023 4.5L3.94639 5.93078Z" fill="#444444"/>
<path d="M8.65455 19.7078C6.16224 19.7078 4.15454 17.6771 4.15454 15.1847C4.15454 12.6924 6.18531 10.6616 8.67762 10.6616C11.1699 10.6616 13.2007 12.6924 13.2007 15.1847C13.1776 17.6771 11.1469 19.7078 8.65455 19.7078ZM8.65455 13.2231C7.56995 13.2231 6.66995 14.1001 6.66995 15.2078C6.66995 16.2924 7.54683 17.1924 8.65455 17.1924C9.73917 17.1924 10.6392 16.3154 10.6392 15.2078C10.6392 14.1001 9.73917 13.2231 8.65455 13.2231Z" fill="#444444"/>
<path d="M21.2773 19.7078C18.785 19.7078 16.7542 17.6771 16.7542 15.1847C16.7542 12.6924 18.785 10.6616 21.2773 10.6616C23.7696 10.6616 25.8003 12.6924 25.8003 15.1847C25.7773 17.6771 23.7696 19.7078 21.2773 19.7078ZM21.2773 13.2231C20.1926 13.2231 19.2926 14.1001 19.2926 15.2078C19.2926 16.2924 20.1696 17.1924 21.2773 17.1924C22.3618 17.1924 23.2618 16.3154 23.2618 15.2078C23.2388 14.1001 22.3618 13.2231 21.2773 13.2231Z" fill="#444444"/>
<path d="M14.9766 10.708C13.0383 10.708 11.469 9.13876 11.469 7.20034C11.469 5.26186 13.0383 3.69263 14.9766 3.69263C16.9151 3.69263 18.4844 5.26186 18.4844 7.20034C18.4844 9.13876 16.9151 10.708 14.9766 10.708ZM14.9766 4.36186C13.4306 4.36186 12.1613 5.63108 12.1613 7.17723C12.1613 8.72339 13.4306 9.99263 14.9766 9.99263C16.5228 9.99263 17.7921 8.72339 17.7921 7.17723C17.7921 5.63108 16.5228 4.36186 14.9766 4.36186Z" fill="#444444"/>
<path d="M14.9773 9.55337C14.5159 9.55337 14.1467 9.18415 14.1467 8.72261C14.1467 8.26107 14.5159 7.89185 14.9773 7.89185C15.4387 7.89185 15.8077 8.26107 15.8077 8.72261C15.7847 9.18415 15.4157 9.55337 14.9773 9.55337ZM14.9773 8.37646C14.7696 8.37646 14.6081 8.53798 14.6081 8.74567C14.6081 8.95335 14.7696 9.11493 14.9773 9.11493C15.1848 9.11493 15.3463 8.95335 15.3463 8.74567C15.3463 8.53798 15.1618 8.37646 14.9773 8.37646Z" fill="#444444"/>
<path d="M14.9773 6.46107C14.5159 6.46107 14.1467 6.09186 14.1467 5.63031C14.1467 5.16877 14.5159 4.79956 14.9773 4.79956C15.4387 4.79956 15.8077 5.16877 15.8077 5.63031C15.7847 6.09186 15.4157 6.46107 14.9773 6.46107ZM14.9773 5.28416C14.7696 5.28416 14.6081 5.44569 14.6081 5.65337C14.6081 5.86107 14.7696 5.99957 14.9773 5.99957C15.1848 5.99957 15.3463 5.838 15.3463 5.63031C15.3463 5.42263 15.1618 5.28416 14.9773 5.28416Z" fill="#444444"/>
<path d="M16.5222 8.00782C16.0608 8.00782 15.6918 7.63862 15.6918 7.17707C15.6918 6.71552 16.0608 6.34631 16.5222 6.34631C16.9837 6.34631 17.3528 6.71552 17.3528 7.17707C17.3297 7.63862 16.9606 8.00782 16.5222 8.00782ZM16.5222 6.83093C16.3147 6.83093 16.1532 6.99244 16.1532 7.20014C16.1532 7.40782 16.3147 7.5694 16.5222 7.5694C16.7299 7.5694 16.8914 7.40782 16.8914 7.20014C16.8914 6.99244 16.7069 6.83093 16.5222 6.83093Z" fill="#444444"/>
<path d="M13.4314 8.00794C12.97 8.00794 12.6008 7.63874 12.6008 7.17719C12.6008 6.71564 12.97 6.34644 13.4314 6.34644C13.8927 6.34644 14.2619 6.71564 14.2619 7.17719C14.2388 7.63874 13.8697 8.00794 13.4314 8.00794ZM13.4314 6.83105C13.2237 6.83105 13.0622 6.99256 13.0622 7.20026C13.0622 7.40794 13.2237 7.56952 13.4314 7.56952C13.639 7.56952 13.8005 7.40794 13.8005 7.20026C13.8005 6.99256 13.6159 6.83105 13.4314 6.83105Z" fill="#444444"/>
<path d="M14.9766 26.5844C13.0383 26.5844 11.469 25.0153 11.469 23.0768C11.469 21.1383 13.0383 19.5691 14.9766 19.5691C16.9151 19.5691 18.4844 21.1383 18.4844 23.0768C18.4844 25.0153 16.9151 26.5844 14.9766 26.5844ZM14.9766 20.2383C13.4306 20.2383 12.1613 21.5075 12.1613 23.0536C12.1613 24.5998 13.4306 25.8691 14.9766 25.8691C16.5228 25.8691 17.7921 24.5998 17.7921 23.0536C17.7921 21.5075 16.5228 20.2383 14.9766 20.2383Z" fill="#444444"/>
<path d="M14.9773 25.4304C14.5159 25.4304 14.1467 25.0611 14.1467 24.5996C14.1467 24.1381 14.5159 23.7688 14.9773 23.7688C15.4387 23.7688 15.8077 24.1381 15.8077 24.5996C15.7847 25.0611 15.4157 25.4304 14.9773 25.4304ZM14.9773 24.2535C14.7696 24.2535 14.6081 24.4151 14.6081 24.6228C14.6081 24.8304 14.7696 24.9919 14.9773 24.9919C15.1848 24.9919 15.3463 24.8304 15.3463 24.6228C15.3463 24.4151 15.1618 24.2535 14.9773 24.2535Z" fill="#444444"/>
<path d="M14.9773 22.338C14.5159 22.338 14.1467 21.9688 14.1467 21.5073C14.1467 21.0458 14.5159 20.6765 14.9773 20.6765C15.4387 20.6765 15.8077 21.0458 15.8077 21.5073C15.7847 21.9688 15.4157 22.338 14.9773 22.338ZM14.9773 21.1612C14.7696 21.1612 14.6081 21.3227 14.6081 21.5304C14.6081 21.738 14.7696 21.8997 14.9773 21.8997C15.1848 21.8997 15.3463 21.738 15.3463 21.5304C15.3463 21.3227 15.1618 21.1612 14.9773 21.1612Z" fill="#444444"/>
<path d="M16.5222 23.8841C16.0608 23.8841 15.6918 23.5149 15.6918 23.0534C15.6918 22.5919 16.0608 22.2226 16.5222 22.2226C16.9837 22.2226 17.3528 22.5919 17.3528 23.0534C17.3297 23.5149 16.9606 23.8841 16.5222 23.8841ZM16.5222 22.7072C16.3147 22.7072 16.1532 22.8687 16.1532 23.0764C16.1532 23.2841 16.3147 23.4457 16.5222 23.4457C16.7299 23.4457 16.8914 23.2841 16.8914 23.0764C16.8914 22.8687 16.7069 22.7072 16.5222 22.7072Z" fill="#444444"/>
<path d="M13.4314 23.8842C12.97 23.8842 12.6008 23.515 12.6008 23.0535C12.6008 22.592 12.97 22.2227 13.4314 22.2227C13.8927 22.2227 14.2619 22.592 14.2619 23.0535C14.2388 23.515 13.8697 23.8842 13.4314 23.8842ZM13.4314 22.7073C13.2237 22.7073 13.0622 22.8688 13.0622 23.0765C13.0622 23.2842 13.2237 23.4458 13.4314 23.4458C13.639 23.4458 13.8005 23.2842 13.8005 23.0765C13.8005 22.8688 13.6159 22.7073 13.4314 22.7073Z" fill="#444444"/>
</svg>
