<svg width="32" height="30" viewBox="0 0 32 30" fill="none" xmlns="http://www.w3.org/2000/svg">
<g clip-path="url(#clip0_37_1035)">
<mask id="mask0_37_1035" style="mask-type:luminance" maskUnits="userSpaceOnUse" x="0" y="0" width="33" height="30">
<path d="M32.0002 0H0.000244141V30H32.0002V0Z" fill="white"/>
</mask>
<g mask="url(#mask0_37_1035)">
<path d="M12.0552 9.94668C10.5739 9.94668 9.38892 8.70918 9.38892 7.21481C9.38892 5.69707 10.5967 4.48291 12.0552 4.48291C13.5136 4.48291 14.7442 5.69707 14.7442 7.21481C14.7442 8.73254 13.5364 9.94668 12.0552 9.94668ZM12.0552 6.11734C11.4627 6.11734 10.9841 6.60774 10.9841 7.21481C10.9841 7.82188 11.4627 8.31227 12.0552 8.31227C12.6477 8.31227 13.1262 7.82188 13.1262 7.21481C13.1262 6.60774 12.6477 6.11734 12.0552 6.11734Z" fill="#444444"/>
<path d="M15.9068 16.2279C14.1065 16.2279 12.6252 14.7335 12.6252 12.8656C12.6252 10.9976 14.0838 9.5032 15.9068 9.5032C17.7299 9.5032 19.1884 11.0209 19.1884 12.8889C19.1884 14.7568 17.7299 16.2279 15.9068 16.2279ZM15.9068 11.161C14.9725 11.161 14.2204 11.9315 14.2204 12.8889C14.2204 13.8462 14.9725 14.6168 15.9068 14.6168C16.8411 14.6168 17.5932 13.8462 17.5932 12.8889C17.5932 11.9315 16.8411 11.161 15.9068 11.161Z" fill="#444444"/>
<path d="M23.8599 16.2279C22.0596 16.2279 20.5784 14.7335 20.5784 12.8656C20.5784 10.9976 22.0368 9.5032 23.8599 9.5032C25.6602 9.5032 27.1415 10.9976 27.1415 12.8656C27.1415 14.7335 25.6602 16.2279 23.8599 16.2279ZM23.8599 11.161C22.9256 11.161 22.1736 11.9315 22.1736 12.8889C22.1736 13.8462 22.9256 14.6168 23.8599 14.6168C24.7943 14.6168 25.5463 13.8462 25.5463 12.8889C25.5463 11.9315 24.7714 11.161 23.8599 11.161Z" fill="#444444"/>
<path d="M7.79353 16.2279C5.99326 16.2279 4.51196 14.7335 4.51196 12.8655C4.51196 10.9975 5.97044 9.50317 7.79353 9.50317C9.61662 9.50317 11.0751 11.0209 11.0751 12.8889C11.0751 14.7568 9.61662 16.2279 7.79353 16.2279ZM7.79353 11.161C6.85918 11.161 6.10718 11.9315 6.10718 12.8889C6.10718 13.8462 6.85918 14.6167 7.79353 14.6167C8.72788 14.6167 9.47988 13.8462 9.47988 12.8889C9.47988 11.9315 8.72788 11.161 7.79353 11.161Z" fill="#444444"/>
<path d="M11.7593 23.3264C9.95906 23.3264 8.47778 21.8319 8.47778 19.9639C8.47778 18.096 9.93624 16.625 11.7593 16.625C13.5596 16.625 15.0409 18.1193 15.0409 19.9874C15.0409 21.8553 13.5596 23.3264 11.7593 23.3264ZM11.7593 18.2594C10.825 18.2594 10.073 19.03 10.073 19.9874C10.073 20.9447 10.825 21.7152 11.7593 21.7152C12.6937 21.7152 13.4457 20.9447 13.4457 19.9874C13.4457 19.03 12.6709 18.2594 11.7593 18.2594Z" fill="#444444"/>
<path d="M20.0542 23.3263C18.2538 23.3263 16.7726 21.8319 16.7726 19.9639C16.7726 18.096 18.2538 16.6249 20.0542 16.6249C21.8544 16.6249 23.3357 18.1193 23.3357 19.9873C23.3357 21.8552 21.8772 23.3263 20.0542 23.3263ZM20.0542 18.2593C19.1198 18.2593 18.3678 19.0299 18.3678 19.9873C18.3678 20.9446 19.1198 21.7151 20.0542 21.7151C20.9885 21.7151 21.7405 20.9446 21.7405 19.9873C21.7405 19.0299 20.9885 18.2593 20.0542 18.2593Z" fill="#444444"/>
<path d="M19.9858 9.94671C18.5045 9.94671 17.3195 8.70921 17.3195 7.21484C17.3195 5.6971 18.5273 4.48294 19.9858 4.48294C21.4442 4.48294 22.652 5.72052 22.652 7.21484C22.652 8.73257 21.4442 9.94671 19.9858 9.94671ZM19.9858 6.11737C19.3932 6.11737 18.9147 6.60777 18.9147 7.21484C18.9147 7.82191 19.3932 8.3123 19.9858 8.3123C20.5782 8.3123 21.0568 7.82191 21.0568 7.21484C21.0568 6.60777 20.5782 6.11737 19.9858 6.11737Z" fill="#444444"/>
<path d="M15.9067 29.6073C7.1331 29.6073 0.000244141 22.2988 0.000244141 13.3093C0.000244141 8.12566 2.32468 3.36234 6.38104 0.233496L6.67731 0H25.1133L25.4096 0.233496C29.466 3.33899 31.7904 8.10236 31.7904 13.3093C31.8359 22.2988 24.6803 29.6073 15.9067 29.6073ZM7.45208 2.33496C4.14777 4.99681 2.2791 8.98961 2.2791 13.3093C2.2791 21.0147 8.38643 27.2724 15.9067 27.2724C23.4269 27.2724 29.5343 21.0147 29.5343 13.3093C29.5343 8.98961 27.6428 5.02014 24.3613 2.33496H7.45208Z" fill="#444444"/>
</g>
</g>
<defs>
<clipPath id="clip0_37_1035">
<rect width="32" height="30" fill="white" transform="translate(0.000244141)"/>
</clipPath>
</defs>
</svg>
