<svg width="29" height="29" viewBox="0 0 29 29" fill="none" xmlns="http://www.w3.org/2000/svg">
<path d="M12.5244 7.87704C13.4593 5.54625 13.9268 4.38086 14.7306 4.38086C15.5345 4.38086 16.002 5.54625 16.9369 7.87704L16.9804 7.98558C17.5086 9.30236 17.7727 9.96075 18.311 10.3609C18.8492 10.7611 19.5558 10.8244 20.9689 10.9509L21.2243 10.9738C23.5371 11.1809 24.6935 11.2845 24.9409 12.0202C25.1883 12.7559 24.3296 13.5372 22.612 15.0998L22.0388 15.6213C21.1693 16.4123 20.7346 16.8079 20.532 17.3262C20.4942 17.4229 20.4628 17.522 20.4379 17.6228C20.3048 18.1632 20.4321 18.7369 20.6867 19.8845L20.7659 20.2417C21.2338 22.3506 21.4678 23.4051 21.0593 23.8599C20.9066 24.0298 20.7083 24.1522 20.4879 24.2123C19.8981 24.3733 19.0608 23.691 17.3861 22.3264C16.2865 21.4303 15.7367 20.9823 15.1054 20.8815C14.8571 20.8419 14.6041 20.8419 14.3558 20.8815C13.7246 20.9823 13.1748 21.4303 12.0751 22.3264C10.4005 23.691 9.56316 24.3733 8.97339 24.2123C8.75301 24.1522 8.55463 24.0298 8.40198 23.8599C7.9935 23.4051 8.22745 22.3506 8.69536 20.2417L8.77461 19.8845C9.02921 18.7369 9.15652 18.1632 9.02333 17.6228C8.99849 17.522 8.96706 17.4229 8.92927 17.3262C8.72665 16.8079 8.29192 16.4123 7.42248 15.6213L6.84925 15.0998C5.13171 13.5372 4.27294 12.7559 4.52038 12.0202C4.76781 11.2845 5.92418 11.1809 8.23692 10.9738L8.49239 10.9509C9.9055 10.8244 10.6121 10.7611 11.1503 10.3609C11.6885 9.96075 11.9526 9.30236 12.4808 7.98557L12.5244 7.87704Z" stroke="#F98418" stroke-width="2.37714"/>
</svg>
