<svg width="29" height="29" viewBox="0 0 29 29" fill="none" xmlns="http://www.w3.org/2000/svg">
<path d="M12.2461 7.87704C13.181 5.54625 13.6485 4.38086 14.4523 4.38086C15.2562 4.38086 15.7236 5.54625 16.6586 7.87704L16.7021 7.98558C17.2303 9.30236 17.4944 9.96075 18.0326 10.3609C18.5709 10.7611 19.2774 10.8244 20.6906 10.9509L20.946 10.9738C23.2588 11.1809 24.4151 11.2845 24.6626 12.0202C24.91 12.7559 24.0512 13.5372 22.3337 15.0998L21.7605 15.6213C20.891 16.4123 20.4563 16.8079 20.2537 17.3262C20.2159 17.4229 20.1845 17.522 20.1596 17.6228C20.0264 18.1632 20.1537 18.7369 20.4083 19.8845L20.4876 20.2417C20.9555 22.3506 21.1895 23.4051 20.781 23.8599C20.6283 24.0298 20.4299 24.1522 20.2096 24.2123C19.6198 24.3733 18.7825 23.691 17.1078 22.3264C16.0082 21.4303 15.4584 20.9823 14.8271 20.8815C14.5788 20.8419 14.3258 20.8419 14.0775 20.8815C13.4463 20.9823 12.8964 21.4303 11.7968 22.3264C10.1222 23.691 9.28484 24.3733 8.69507 24.2123C8.47469 24.1522 8.27631 24.0298 8.12366 23.8599C7.71518 23.4051 7.94913 22.3506 8.41704 20.2417L8.49629 19.8845C8.75089 18.7369 8.87819 18.1632 8.74501 17.6228C8.72017 17.522 8.68874 17.4229 8.65095 17.3262C8.44833 16.8079 8.0136 16.4123 7.14416 15.6213L6.57093 15.0998C4.85339 13.5372 3.99462 12.7559 4.24206 12.0202C4.48949 11.2845 5.64586 11.1809 7.9586 10.9738L8.21407 10.9509C9.62718 10.8244 10.3337 10.7611 10.872 10.3609C11.4102 9.96075 11.6743 9.30236 12.2025 7.98557L12.2461 7.87704Z" fill="#F98418" stroke="#F98418" stroke-width="1.664"/>
</svg>
