<svg width="25" height="24" viewBox="0 0 25 24" fill="none" xmlns="http://www.w3.org/2000/svg">
<g clip-path="url(#clip0_154_2669)">
<path fill-rule="evenodd" clip-rule="evenodd" d="M18.8384 4C18.8384 3.73478 18.733 3.48043 18.5455 3.29289C18.358 3.10536 18.1036 3 17.8384 3C17.5732 3 17.3188 3.10536 17.1313 3.29289C16.9437 3.48043 16.8384 3.73478 16.8384 4V5H4.83838C4.57316 5 4.31881 5.10536 4.13127 5.29289C3.94374 5.48043 3.83838 5.73478 3.83838 6C3.83838 6.26522 3.94374 6.51957 4.13127 6.70711C4.31881 6.89464 4.57316 7 4.83838 7H16.8384V8C16.8384 8.26522 16.9437 8.51957 17.1313 8.70711C17.3188 8.89464 17.5732 9 17.8384 9C18.1036 9 18.358 8.89464 18.5455 8.70711C18.733 8.51957 18.8384 8.26522 18.8384 8V7H20.8384C21.1036 7 21.358 6.89464 21.5455 6.70711C21.733 6.51957 21.8384 6.26522 21.8384 6C21.8384 5.73478 21.733 5.48043 21.5455 5.29289C21.358 5.10536 21.1036 5 20.8384 5H18.8384V4ZM4.83838 11C4.57316 11 4.31881 11.1054 4.13127 11.2929C3.94374 11.4804 3.83838 11.7348 3.83838 12C3.83838 12.2652 3.94374 12.5196 4.13127 12.7071C4.31881 12.8946 4.57316 13 4.83838 13H6.83838V14C6.83838 14.2652 6.94374 14.5196 7.13127 14.7071C7.31881 14.8946 7.57316 15 7.83838 15C8.1036 15 8.35795 14.8946 8.54549 14.7071C8.73302 14.5196 8.83838 14.2652 8.83838 14V13H20.8384C21.1036 13 21.358 12.8946 21.5455 12.7071C21.733 12.5196 21.8384 12.2652 21.8384 12C21.8384 11.7348 21.733 11.4804 21.5455 11.2929C21.358 11.1054 21.1036 11 20.8384 11H8.83838V10C8.83838 9.73478 8.73302 9.48043 8.54549 9.29289C8.35795 9.10536 8.1036 9 7.83838 9C7.57316 9 7.31881 9.10536 7.13127 9.29289C6.94374 9.48043 6.83838 9.73478 6.83838 10V11H4.83838ZM3.83838 18C3.83838 17.7348 3.94374 17.4804 4.13127 17.2929C4.31881 17.1054 4.57316 17 4.83838 17H16.8384V16C16.8384 15.7348 16.9437 15.4804 17.1313 15.2929C17.3188 15.1054 17.5732 15 17.8384 15C18.1036 15 18.358 15.1054 18.5455 15.2929C18.733 15.4804 18.8384 15.7348 18.8384 16V17H20.8384C21.1036 17 21.358 17.1054 21.5455 17.2929C21.733 17.4804 21.8384 17.7348 21.8384 18C21.8384 18.2652 21.733 18.5196 21.5455 18.7071C21.358 18.8946 21.1036 19 20.8384 19H18.8384V20C18.8384 20.2652 18.733 20.5196 18.5455 20.7071C18.358 20.8946 18.1036 21 17.8384 21C17.5732 21 17.3188 20.8946 17.1313 20.7071C16.9437 20.5196 16.8384 20.2652 16.8384 20V19H4.83838C4.57316 19 4.31881 18.8946 4.13127 18.7071C3.94374 18.5196 3.83838 18.2652 3.83838 18Z" fill="#F98418"/>
</g>
<defs>
<clipPath id="clip0_154_2669">
<rect width="24" height="24" fill="white" transform="translate(0.838379)"/>
</clipPath>
</defs>
</svg>
