<svg width="231" height="65" viewBox="0 0 231 65" fill="none" xmlns="http://www.w3.org/2000/svg">
<path fill-rule="evenodd" clip-rule="evenodd" d="M37.7974 59.1536L37.7974 53.3981L43.8957 45.7026L49.994 38.0077L50.2982 35.1203C50.4654 33.5323 50.6304 28.2924 50.6641 23.4763C50.7224 15.215 50.6744 14.6682 49.8202 13.8148C48.6115 12.6075 47.8302 12.6746 46.7234 14.0805C45.879 15.1528 45.8016 15.8413 45.8016 22.2983C45.8016 26.2833 45.979 29.3456 46.2098 29.3456C46.4348 29.3456 47.0654 30.0684 47.6119 30.9514C48.3678 32.1735 48.5093 32.8051 48.2042 33.5949C47.6555 35.0137 39.2111 44.0044 38.4275 44.0044C36.9263 44.0044 38.0798 42.1512 42.0219 38.2298C44.3453 35.9186 46.2463 33.718 46.2463 33.3399C46.2463 32.3041 44.9581 30.6783 44.1376 30.6783C43.3732 30.6783 42.3336 31.4965 33.2355 39.2608C29.6657 42.3071 27.44 44.537 27.2324 45.2749C27.0514 45.9198 26.9029 50.5454 26.9029 55.5538L26.9029 64.66L32.3502 64.7848L37.7974 64.9097L37.7974 59.1536ZM23.844 64.2363C24.2695 63.1284 23.8155 45.6018 23.3406 44.8049C22.5891 43.5438 6.97961 30.6783 6.20054 30.6783C5.24226 30.6783 4.00206 32.0811 4.00206 33.1649C4.00206 33.6633 5.7861 35.8022 8.22648 38.2298C12.0222 42.0055 13.4981 44.322 11.8555 43.9258C11.5282 43.8467 9.22701 41.6417 6.74172 39.0253C1.54924 33.5589 1.30332 32.8411 3.77972 30.3673L5.33609 28.8126L5.33609 21.9518C5.33609 15.2594 5.30942 15.064 4.24442 14.0005C2.92062 12.6777 2.06283 12.6262 0.889332 13.7984C0.0462271 14.6406 -2.2364e-05 15.279 -2.33061e-05 26.0545L-2.42999e-05 37.4226L6.30503 45.2291C9.77306 49.5228 12.6577 53.4527 12.7159 53.9618C12.7742 54.4708 12.8382 57.1361 12.8587 59.8848L12.8956 64.8821L18.2455 64.8821C22.5166 64.8821 23.6456 64.752 23.844 64.2363Z" fill="white"/>
<path fill-rule="evenodd" clip-rule="evenodd" d="M28.1841 25.1386C30.9372 20.6936 33.3243 16.7337 33.4889 16.3388C33.9675 15.1927 33.0393 14.8211 29.6082 14.7846C27.9249 14.7669 26.5037 14.731 26.45 14.7052C26.377 14.6703 27.7029 4.83764 28.241 1.4218C28.2762 1.19946 28.1662 0.960569 27.997 0.890739C27.6275 0.738732 17.1506 17.5585 17.2475 18.1483C17.3726 18.9103 18.2924 19.1407 21.3385 19.1729C23.0056 19.1904 24.4051 19.2195 24.4478 19.2374C24.4908 19.2552 24.0888 22.3129 23.5553 26.0321C23.0214 29.7514 22.7181 32.8901 22.8819 33.0077C23.0453 33.1251 25.4313 29.5839 28.1841 25.1386Z" fill="white"/>
<path d="M73.0279 53.438V31.6934H70.5272V53.438H73.0279ZM71.7594 23.5029C70.3823 23.5029 69.8024 24.1915 69.8024 25.2062C69.8024 26.1847 70.3823 26.8733 71.7594 26.8733C73.1728 26.8733 73.7527 26.1847 73.7527 25.2062C73.7527 24.1915 73.1728 23.5029 71.7594 23.5029ZM106.546 44.7039C105.676 48.7267 102.016 51.5172 94.3325 51.5172C85.3809 51.5172 81.9018 47.7119 81.9018 42.5657C81.9018 37.4195 85.3809 33.6141 94.3325 33.6141C102.016 33.6141 105.676 36.4047 106.546 40.4275H109.083C108.177 34.9913 103.755 31.2585 94.3325 31.2585C83.7139 31.2585 79.4012 36.0061 79.4012 42.5657C79.4012 49.1253 83.7139 53.8729 94.3325 53.8729C103.755 53.8729 108.177 50.1401 109.083 44.7039H106.546ZM128.525 31.2585C118.523 31.2585 114.319 36.0061 114.319 42.5657C114.319 49.1253 118.523 53.8729 128.525 53.8729C135.701 53.8729 139.868 51.4447 141.681 47.6757V53.438H144.181V31.6934H141.681V37.4557C139.868 33.6866 135.701 31.2585 128.525 31.2585ZM129.25 51.5172C120.298 51.5172 116.819 47.7119 116.819 42.5657C116.819 37.4195 120.298 33.6141 129.25 33.6141C138.201 33.6141 141.681 37.4195 141.681 42.5657C141.681 47.7119 138.201 51.5172 129.25 51.5172ZM167.576 31.2585C160.437 31.2585 156.233 33.6866 154.421 37.4557V31.6934H151.92V60.6862H154.421V47.6757C156.233 51.4447 160.437 53.8729 167.576 53.8729C177.615 53.8729 181.819 49.1253 181.819 42.5657C181.819 36.0061 177.615 31.2585 167.576 31.2585ZM166.888 51.5172C157.936 51.5172 154.421 47.7119 154.421 42.5657C154.421 37.4195 157.936 33.6141 166.888 33.6141C175.839 33.6141 179.318 37.4195 179.318 42.5657C179.318 47.7119 175.839 51.5172 166.888 51.5172ZM190.79 53.438V31.6934H188.289V53.438H190.79ZM189.522 23.5029C188.144 23.5029 187.564 24.1915 187.564 25.2062C187.564 26.1847 188.144 26.8733 189.522 26.8733C190.935 26.8733 191.515 26.1847 191.515 25.2062C191.515 24.1915 190.935 23.5029 189.522 23.5029ZM211.37 31.2585C201.367 31.2585 197.163 36.0061 197.163 42.5657C197.163 49.1253 201.367 53.8729 211.37 53.8729C218.545 53.8729 222.713 51.4447 224.525 47.6757V53.438H227.026V31.6934H224.525V37.4557C222.713 33.6866 218.545 31.2585 211.37 31.2585ZM212.095 51.5172C203.143 51.5172 199.664 47.7119 199.664 42.5657C199.664 37.4195 203.143 33.6141 212.095 33.6141C221.046 33.6141 224.525 37.4195 224.525 42.5657C224.525 47.7119 221.046 51.5172 212.095 51.5172Z" fill="white"/>
<path d="M73.0279 53.438V54.2567H73.8465V53.438H73.0279ZM73.0279 31.6934H73.8465V30.8747H73.0279V31.6934ZM70.5272 31.6934V30.8747H69.7086V31.6934H70.5272ZM70.5272 53.438H69.7086V54.2567H70.5272V53.438ZM73.8465 53.438V31.6934H72.2092V53.438H73.8465ZM73.0279 30.8747H70.5272V32.512H73.0279V30.8747ZM69.7086 31.6934V53.438H71.3459V31.6934H69.7086ZM70.5272 54.2567H73.0279V52.6193H70.5272V54.2567ZM71.7594 22.6842C70.9439 22.6842 70.2225 22.8885 69.7029 23.3784C69.1761 23.875 68.9837 24.5448 68.9837 25.2062H70.6211C70.6211 24.8529 70.7186 24.671 70.8261 24.5697C70.9407 24.4616 71.1978 24.3216 71.7594 24.3216V22.6842ZM68.9837 25.2062C68.9837 25.8574 69.1807 26.5176 69.7074 27.0066C70.2255 27.4877 70.9436 27.692 71.7594 27.692V26.0546C71.1981 26.0546 70.9376 25.9146 70.8215 25.8068C70.714 25.7069 70.6211 25.5336 70.6211 25.2062H68.9837ZM71.7594 27.692C72.5882 27.692 73.3148 27.4903 73.8389 27.0106C74.3739 26.5208 74.5713 25.8579 74.5713 25.2062H72.934C72.934 25.5331 72.8415 25.7037 72.7333 25.8029C72.614 25.912 72.344 26.0546 71.7594 26.0546V27.692ZM74.5713 25.2062C74.5713 24.5444 74.3786 23.8719 73.8435 23.3744C73.3178 22.8858 72.5879 22.6842 71.7594 22.6842V24.3216C72.3444 24.3216 72.611 24.4643 72.7287 24.5737C72.8368 24.6742 72.934 24.8533 72.934 25.2062H74.5713ZM106.546 44.7039V43.8852H105.885L105.746 44.5309L106.546 44.7039ZM106.546 40.4275L105.746 40.6005L105.885 41.2461H106.546V40.4275ZM109.083 40.4275V41.2461H110.049L109.89 40.2929L109.083 40.4275ZM109.083 44.7039L109.89 44.8385L110.049 43.8852H109.083V44.7039ZM105.746 44.5309C105.357 46.3267 104.358 47.8371 102.57 48.9186C100.758 50.0151 98.0863 50.6985 94.3325 50.6985V52.3359C98.2617 52.3359 101.262 51.6241 103.418 50.3195C105.599 49.0001 106.864 47.1038 107.346 44.8769L105.746 44.5309ZM94.3325 50.6985C89.9556 50.6985 87.0599 49.7658 85.2724 48.3326C83.5139 46.9225 82.7205 44.9412 82.7205 42.5657H81.0831C81.0831 45.3364 82.0293 47.8308 84.2482 49.61C86.4382 51.366 89.7578 52.3359 94.3325 52.3359V50.6985ZM82.7205 42.5657C82.7205 40.1902 83.5139 38.2088 85.2724 36.7988C87.0599 35.3656 89.9556 34.4328 94.3325 34.4328V32.7955C89.7578 32.7955 86.4382 33.7654 84.2482 35.5214C82.0293 37.3006 81.0831 39.7949 81.0831 42.5657H82.7205ZM94.3325 34.4328C98.0863 34.4328 100.758 35.1163 102.57 36.2127C104.358 37.2942 105.357 38.8046 105.746 40.6005L107.346 40.2544C106.864 38.0275 105.599 36.1313 103.418 34.8118C101.262 33.5073 98.2617 32.7955 94.3325 32.7955V34.4328ZM106.546 41.2461H109.083V39.6088H106.546V41.2461ZM109.89 40.2929C109.404 37.3743 107.959 34.8753 105.358 33.1252C102.781 31.3907 99.1408 30.4398 94.3325 30.4398V32.0772C98.9468 32.0772 102.229 32.9927 104.444 34.4836C106.637 35.959 107.855 38.0445 108.275 40.562L109.89 40.2929ZM94.3325 30.4398C88.916 30.4398 84.967 31.6489 82.3604 33.8236C79.7308 36.0174 78.5825 39.0969 78.5825 42.5657H80.2199C80.2199 39.4749 81.2279 36.9007 83.4093 35.0809C85.6137 33.2418 89.1303 32.0772 94.3325 32.0772V30.4398ZM78.5825 42.5657C78.5825 46.0345 79.7308 49.1139 82.3604 51.3078C84.967 53.4824 88.916 54.6916 94.3325 54.6916V53.0542C89.1303 53.0542 85.6137 51.8896 83.4093 50.0505C81.2279 48.2307 80.2199 45.6565 80.2199 42.5657H78.5825ZM94.3325 54.6916C99.1408 54.6916 102.781 53.7407 105.358 52.0061C107.959 50.2561 109.404 47.7571 109.89 44.8385L108.275 44.5693C107.855 47.0869 106.637 49.1723 104.444 50.6478C102.229 52.1387 98.9468 53.0542 94.3325 53.0542V54.6916ZM109.083 43.8852H106.546V45.5226H109.083V43.8852ZM141.681 47.6757H142.499L140.943 47.3209L141.681 47.6757ZM141.681 53.438H140.862V54.2567H141.681V53.438ZM144.181 53.438V54.2567H145V53.438H144.181ZM144.181 31.6934H145V30.8747H144.181V31.6934ZM141.681 31.6934V30.8747H140.862V31.6934H141.681ZM141.681 37.4557L140.943 37.8104L142.499 37.4557H141.681ZM128.525 30.4398C123.406 30.4398 119.634 31.6539 117.133 33.8352C114.615 36.0306 113.5 39.1048 113.5 42.5657H115.137C115.137 39.4669 116.124 36.8875 118.209 35.0692C120.31 33.2368 123.642 32.0772 128.525 32.0772V30.4398ZM113.5 42.5657C113.5 46.0265 114.615 49.1007 117.133 51.2962C119.634 53.4774 123.406 54.6916 128.525 54.6916V53.0542C123.642 53.0542 120.31 51.8945 118.209 50.0621C116.124 48.2439 115.137 45.6645 115.137 42.5657H113.5ZM128.525 54.6916C135.877 54.6916 140.419 52.1892 142.418 48.0304L140.943 47.3209C139.318 50.7003 135.524 53.0542 128.525 53.0542V54.6916ZM140.862 47.6757V53.438H142.499V47.6757H140.862ZM141.681 54.2567H144.181V52.6193H141.681V54.2567ZM145 53.438V31.6934H143.362V53.438H145ZM144.181 30.8747H141.681V32.512H144.181V30.8747ZM140.862 31.6934V37.4557H142.499V31.6934H140.862ZM142.418 37.101C140.419 32.9422 135.877 30.4398 128.525 30.4398V32.0772C135.524 32.0772 139.318 34.4311 140.943 37.8104L142.418 37.101ZM129.25 50.6985C124.873 50.6985 121.977 49.7658 120.19 48.3326C118.431 46.9225 117.638 44.9412 117.638 42.5657H116.001C116.001 45.3364 116.947 47.8308 119.166 49.61C121.356 51.366 124.675 52.3359 129.25 52.3359V50.6985ZM117.638 42.5657C117.638 40.1902 118.431 38.2088 120.19 36.7988C121.977 35.3656 124.873 34.4328 129.25 34.4328V32.7955C124.675 32.7955 121.356 33.7654 119.166 35.5214C116.947 37.3006 116.001 39.7949 116.001 42.5657H117.638ZM129.25 34.4328C133.627 34.4328 136.522 35.3656 138.31 36.7988C140.068 38.2088 140.862 40.1902 140.862 42.5657H142.499C142.499 39.7949 141.553 37.3006 139.334 35.5214C137.144 33.7654 133.824 32.7955 129.25 32.7955V34.4328ZM140.862 42.5657C140.862 44.9412 140.068 46.9225 138.31 48.3326C136.522 49.7658 133.627 50.6985 129.25 50.6985V52.3359C133.824 52.3359 137.144 51.366 139.334 49.61C141.553 47.8308 142.499 45.3364 142.499 42.5657H140.862ZM154.421 37.4557H153.602L155.158 37.8104L154.421 37.4557ZM154.421 31.6934H155.239V30.8747H154.421V31.6934ZM151.92 31.6934V30.8747H151.101V31.6934H151.92ZM151.92 60.6862H151.101V61.5049H151.92V60.6862ZM154.421 60.6862V61.5049H155.239V60.6862H154.421ZM154.421 47.6757L155.158 47.3209L153.602 47.6757H154.421ZM167.576 30.4398C160.261 30.4398 155.683 32.9413 153.683 37.101L155.158 37.8104C156.783 34.4319 160.612 32.0772 167.576 32.0772V30.4398ZM155.239 37.4557V31.6934H153.602V37.4557H155.239ZM154.421 30.8747H151.92V32.512H154.421V30.8747ZM151.101 31.6934V60.6862H152.739V31.6934H151.101ZM151.92 61.5049H154.421V59.8675H151.92V61.5049ZM155.239 60.6862V47.6757H153.602V60.6862H155.239ZM153.683 48.0304C155.683 52.19 160.261 54.6916 167.576 54.6916V53.0542C160.612 53.0542 156.783 50.6994 155.158 47.3209L153.683 48.0304ZM167.576 54.6916C172.713 54.6916 176.493 53.4778 179 51.2967C181.522 49.1012 182.638 46.0266 182.638 42.5657H181C181 45.6644 180.014 48.2434 177.925 50.0616C175.819 51.8942 172.478 53.0542 167.576 53.0542V54.6916ZM182.638 42.5657C182.638 39.1047 181.522 36.0302 179 33.8347C176.493 31.6536 172.713 30.4398 167.576 30.4398V32.0772C172.478 32.0772 175.819 33.2372 177.925 35.0698C180.014 36.8879 181 39.467 181 42.5657H182.638ZM166.888 50.6985C162.511 50.6985 159.605 49.7659 157.808 48.3314C156.04 46.9202 155.239 44.9385 155.239 42.5657H153.602C153.602 45.3391 154.559 47.8331 156.787 49.6111C158.985 51.3659 162.313 52.3359 166.888 52.3359V50.6985ZM155.239 42.5657C155.239 40.1928 156.04 38.2111 157.808 36.7999C159.605 35.3655 162.511 34.4328 166.888 34.4328V32.7955C162.313 32.7955 158.985 33.7655 156.787 35.5202C154.559 37.2983 153.602 39.7923 153.602 42.5657H155.239ZM166.888 34.4328C171.264 34.4328 174.16 35.3656 175.948 36.7988C177.706 38.2088 178.5 40.1902 178.5 42.5657H180.137C180.137 39.7949 179.191 37.3005 176.972 35.5214C174.782 33.7654 171.462 32.7955 166.888 32.7955V34.4328ZM178.5 42.5657C178.5 44.9412 177.706 46.9225 175.948 48.3326C174.16 49.7658 171.264 50.6985 166.888 50.6985V52.3359C171.462 52.3359 174.782 51.366 176.972 49.61C179.191 47.8308 180.137 45.3364 180.137 42.5657H178.5ZM190.79 53.438V54.2567H191.609V53.438H190.79ZM190.79 31.6934H191.609V30.8747H190.79V31.6934ZM188.289 31.6934V30.8747H187.471V31.6934H188.289ZM188.289 53.438H187.471V54.2567H188.289V53.438ZM191.609 53.438V31.6934H189.971V53.438H191.609ZM190.79 30.8747H188.289V32.512H190.79V30.8747ZM187.471 31.6934V53.438H189.108V31.6934H187.471ZM188.289 54.2567H190.79V52.6193H188.289V54.2567ZM189.522 22.6842C188.706 22.6842 187.985 22.8885 187.465 23.3784C186.938 23.875 186.746 24.5448 186.746 25.2062H188.383C188.383 24.8529 188.481 24.671 188.588 24.5697C188.703 24.4616 188.96 24.3216 189.522 24.3216V22.6842ZM186.746 25.2062C186.746 25.8574 186.943 26.5176 187.469 27.0066C187.988 27.4877 188.706 27.692 189.522 27.692V26.0546C188.96 26.0546 188.7 25.9146 188.584 25.8068C188.476 25.7069 188.383 25.5336 188.383 25.2062H186.746ZM189.522 27.692C190.35 27.692 191.077 27.4903 191.601 27.0106C192.136 26.5208 192.333 25.8579 192.333 25.2062H190.696C190.696 25.5331 190.604 25.7037 190.495 25.8029C190.376 25.912 190.106 26.0546 189.522 26.0546V27.692ZM192.333 25.2062C192.333 24.5444 192.141 23.8719 191.606 23.3744C191.08 22.8858 190.35 22.6842 189.522 22.6842V24.3216C190.106 24.3216 190.373 24.4643 190.491 24.5737C190.599 24.6742 190.696 24.8533 190.696 25.2062H192.333ZM224.525 47.6757H225.344L223.787 47.3209L224.525 47.6757ZM224.525 53.438H223.707V54.2567H224.525V53.438ZM227.026 53.438V54.2567H227.845V53.438H227.026ZM227.026 31.6934H227.845V30.8747H227.026V31.6934ZM224.525 31.6934V30.8747H223.707V31.6934H224.525ZM224.525 37.4557L223.787 37.8104L225.344 37.4557H224.525ZM211.37 30.4398C206.251 30.4398 202.479 31.6539 199.977 33.8352C197.46 36.0306 196.345 39.1048 196.345 42.5657H197.982C197.982 39.4669 198.969 36.8875 201.054 35.0692C203.155 33.2368 206.486 32.0772 211.37 32.0772V30.4398ZM196.345 42.5657C196.345 46.0265 197.46 49.1007 199.977 51.2962C202.479 53.4774 206.251 54.6916 211.37 54.6916V53.0542C206.486 53.0542 203.155 51.8945 201.054 50.0621C198.969 48.2439 197.982 45.6645 197.982 42.5657H196.345ZM211.37 54.6916C218.722 54.6916 223.264 52.1892 225.263 48.0304L223.787 47.3209C222.163 50.7003 218.369 53.0542 211.37 53.0542V54.6916ZM223.707 47.6757V53.438H225.344V47.6757H223.707ZM224.525 54.2567H227.026V52.6193H224.525V54.2567ZM227.845 53.438V31.6934H226.207V53.438H227.845ZM227.026 30.8747H224.525V32.512H227.026V30.8747ZM223.707 31.6934V37.4557H225.344V31.6934H223.707ZM225.263 37.101C223.264 32.9422 218.722 30.4398 211.37 30.4398V32.0772C218.369 32.0772 222.163 34.4311 223.787 37.8104L225.263 37.101ZM212.095 50.6985C207.718 50.6985 204.822 49.7658 203.035 48.3326C201.276 46.9225 200.483 44.9412 200.483 42.5657H198.845C198.845 45.3364 199.791 47.8308 202.01 49.61C204.2 51.366 207.52 52.3359 212.095 52.3359V50.6985ZM200.483 42.5657C200.483 40.1902 201.276 38.2088 203.035 36.7988C204.822 35.3656 207.718 34.4328 212.095 34.4328V32.7955C207.52 32.7955 204.2 33.7654 202.01 35.5214C199.791 37.3006 198.845 39.7949 198.845 42.5657H200.483ZM212.095 34.4328C216.471 34.4328 219.367 35.3656 221.155 36.7988C222.913 38.2088 223.707 40.1902 223.707 42.5657H225.344C225.344 39.7949 224.398 37.3006 222.179 35.5214C219.989 33.7654 216.669 32.7955 212.095 32.7955V34.4328ZM223.707 42.5657C223.707 44.9412 222.913 46.9225 221.155 48.3326C219.367 49.7658 216.471 50.6985 212.095 50.6985V52.3359C216.669 52.3359 219.989 51.366 222.179 49.61C224.398 47.8308 225.344 45.3364 225.344 42.5657H223.707Z" fill="white"/>
<ellipse cx="71.6585" cy="25.795" rx="3.07002" ry="2.86535" fill="white"/>
</svg>
