<svg width="55" height="55" viewBox="0 0 55 55" fill="none" xmlns="http://www.w3.org/2000/svg">
<path d="M26.2854 8.80231C26.6077 8.48044 27.0446 8.29965 27.5 8.29965C27.9555 8.29965 28.3923 8.48044 28.7146 8.80231L48.6292 28.7169C48.7878 28.881 48.9775 29.0118 49.1873 29.1018C49.397 29.1918 49.6226 29.2391 49.8508 29.241C50.079 29.2428 50.3053 29.1992 50.5165 29.1127C50.7277 29.0262 50.9195 28.8985 51.0808 28.737C51.2421 28.5756 51.3697 28.3836 51.456 28.1723C51.5423 27.9611 51.5857 27.7347 51.5836 27.5065C51.5815 27.2783 51.534 27.0528 51.4438 26.8432C51.3536 26.6335 51.2226 26.4439 51.0584 26.2854L31.1461 6.37085C30.6673 5.89204 30.0988 5.51223 29.4733 5.2531C28.8477 4.99397 28.1772 4.8606 27.5 4.8606C26.8229 4.8606 26.1524 4.99397 25.5268 5.2531C24.9012 5.51223 24.3328 5.89204 23.854 6.37085L3.93941 26.2854C3.77532 26.4441 3.64448 26.6338 3.5545 26.8435C3.46452 27.0532 3.41722 27.2788 3.41534 27.507C3.41347 27.7352 3.45706 27.9615 3.54358 28.1727C3.6301 28.3839 3.75781 28.5758 3.91927 28.7371C4.08072 28.8984 4.27268 29.0259 4.48395 29.1122C4.69522 29.1985 4.92156 29.2419 5.14977 29.2398C5.37799 29.2377 5.6035 29.1902 5.81315 29.1C6.0228 29.0099 6.21239 28.8788 6.37087 28.7146L26.2854 8.80231Z" fill="#E78512"/>
<path d="M27.5 12.4484L46.1977 31.1461C46.2665 31.2133 46.336 31.279 46.4062 31.3432V45.5469C46.4062 47.9188 44.4813 49.8438 42.1094 49.8438H34.375C33.9192 49.8438 33.482 49.6627 33.1597 49.3404C32.8373 49.018 32.6562 48.5809 32.6562 48.125V37.8125C32.6562 37.3567 32.4752 36.9195 32.1528 36.5972C31.8305 36.2749 31.3933 36.0938 30.9375 36.0938H24.0625C23.6067 36.0938 23.1695 36.2749 22.8472 36.5972C22.5248 36.9195 22.3438 37.3567 22.3438 37.8125V48.125C22.3438 48.5809 22.1627 49.018 21.8403 49.3404C21.518 49.6627 21.0808 49.8438 20.625 49.8438H12.8906C11.751 49.8438 10.6581 49.3911 9.85228 48.5853C9.04646 47.7794 8.59375 46.6865 8.59375 45.5469V31.3432L8.80229 31.1461L27.5 12.4484Z" fill="#E78512"/>
</svg>
