<svg width="60" height="60" viewBox="0 0 60 60" fill="none" xmlns="http://www.w3.org/2000/svg">
<path d="M32.5 40H27.5C26.125 40 25 38.875 25 37.5H7.525V47.5C7.525 50.25 9.775 52.5 12.525 52.5H47.5C50.25 52.5 52.5 50.25 52.5 47.5V37.5H35C35 38.875 33.875 40 32.5 40ZM50 17.5H40C40 11.975 35.525 7.5 30 7.5C24.475 7.5 20 11.975 20 17.5H10C7.25 17.5 5 19.75 5 22.5V30C5 32.775 7.225 35 10 35H25V32.5C25 31.125 26.125 30 27.5 30H32.5C33.875 30 35 31.125 35 32.5V35H50C52.75 35 55 32.75 55 30V22.5C55 19.75 52.75 17.5 50 17.5ZM25 17.5C25 14.75 27.25 12.5 30 12.5C32.75 12.5 35 14.75 35 17.5H24.975H25Z" fill="#82B2CE"/>
</svg>
