<svg width="33" height="33" viewBox="0 0 33 33" fill="none" xmlns="http://www.w3.org/2000/svg">
<path d="M23.454 7.94707C23.1376 7.94707 22.8282 8.04091 22.5651 8.21672C22.302 8.39253 22.0969 8.64242 21.9758 8.93478C21.8547 9.22714 21.823 9.54885 21.8847 9.85922C21.9465 10.1696 22.0989 10.4547 22.3226 10.6784C22.5464 10.9022 22.8315 11.0546 23.1419 11.1163C23.4522 11.1781 23.7739 11.1464 24.0663 11.0253C24.3587 10.9042 24.6085 10.6991 24.7844 10.436C24.9602 10.1729 25.054 9.86352 25.054 9.54707C25.054 9.12273 24.8854 8.71576 24.5854 8.4157C24.2853 8.11564 23.8784 7.94707 23.454 7.94707V7.94707ZM29.5873 11.1737C29.5614 10.0675 29.3542 8.97294 28.974 7.93374C28.635 7.04458 28.1073 6.23944 27.4273 5.57374C26.7671 4.89031 25.9601 4.36598 25.0673 4.04041C24.0309 3.64862 22.9351 3.43669 21.8273 3.41374C20.414 3.33374 19.9607 3.33374 16.334 3.33374C12.7073 3.33374 12.254 3.33374 10.8407 3.41374C9.73287 3.43669 8.63713 3.64862 7.60067 4.04041C6.70957 4.36927 5.90325 4.89315 5.24067 5.57374C4.55724 6.23398 4.03291 7.04099 3.70734 7.93374C3.31555 8.9702 3.10362 10.0659 3.08067 11.1737C3.00067 12.5871 3.00067 13.0404 3.00067 16.6671C3.00067 20.2937 3.00067 20.7471 3.08067 22.1604C3.10362 23.2682 3.31555 24.3639 3.70734 25.4004C4.03291 26.2932 4.55724 27.1002 5.24067 27.7604C5.90325 28.441 6.70957 28.9649 7.60067 29.2937C8.63713 29.6855 9.73287 29.8975 10.8407 29.9204C12.254 30.0004 12.7073 30.0004 16.334 30.0004C19.9607 30.0004 20.414 30.0004 21.8273 29.9204C22.9351 29.8975 24.0309 29.6855 25.0673 29.2937C25.9601 28.9682 26.7671 28.4438 27.4273 27.7604C28.1103 27.0972 28.6385 26.2913 28.974 25.4004C29.3542 24.3612 29.5614 23.2667 29.5873 22.1604C29.5873 20.7471 29.6673 20.2937 29.6673 16.6671C29.6673 13.0404 29.6673 12.5871 29.5873 11.1737V11.1737ZM27.1873 22.0004C27.1776 22.8468 27.0243 23.6853 26.734 24.4804C26.5211 25.0607 26.1792 25.585 25.734 26.0137C25.3015 26.4544 24.7783 26.7956 24.2007 27.0137C23.4056 27.3041 22.567 27.4574 21.7207 27.4671C20.3873 27.5337 19.894 27.5471 16.3873 27.5471C12.8807 27.5471 12.3873 27.5471 11.054 27.4671C10.1752 27.4835 9.30013 27.3482 8.46734 27.0671C7.91505 26.8378 7.41581 26.4975 7.00067 26.0671C6.55812 25.6387 6.22046 25.114 6.014 24.5337C5.68848 23.7273 5.50793 22.8697 5.48067 22.0004C5.48067 20.6671 5.40067 20.1737 5.40067 16.6671C5.40067 13.1604 5.40067 12.6671 5.48067 11.3337C5.48665 10.4685 5.6446 9.611 5.94734 8.80041C6.18207 8.23762 6.54236 7.73595 7.00067 7.33374C7.40576 6.8753 7.90639 6.5112 8.46734 6.26707C9.28007 5.9738 10.1367 5.82051 11.0007 5.81374C12.334 5.81374 12.8273 5.73374 16.334 5.73374C19.8407 5.73374 20.334 5.73374 21.6673 5.81374C22.5137 5.82345 23.3523 5.97674 24.1473 6.26707C24.7532 6.49194 25.2971 6.85754 25.734 7.33374C26.1709 7.74331 26.5124 8.24405 26.734 8.80041C27.0303 9.61232 27.1837 10.4694 27.1873 11.3337C27.254 12.6671 27.2673 13.1604 27.2673 16.6671C27.2673 20.1737 27.254 20.6671 27.1873 22.0004ZM16.334 9.82707C14.9818 9.82971 13.6606 10.2331 12.5375 10.9863C11.4145 11.7395 10.5398 12.8087 10.0242 14.0587C9.50852 15.3088 9.37497 16.6837 9.6404 18.0096C9.90582 19.3356 10.5583 20.5531 11.5154 21.5084C12.4726 22.4636 13.6914 23.1138 15.0178 23.3766C16.3443 23.6394 17.7189 23.5032 18.968 22.9851C20.217 22.467 21.2845 21.5903 22.0355 20.4658C22.7865 19.3412 23.1873 18.0193 23.1873 16.6671C23.1891 15.7672 23.0129 14.8759 22.669 14.0443C22.325 13.2128 21.8201 12.4575 21.1832 11.8218C20.5462 11.1861 19.7899 10.6826 18.9577 10.3403C18.1255 9.99798 17.2339 9.82356 16.334 9.82707V9.82707ZM16.334 21.1071C15.4559 21.1071 14.5974 20.8467 13.8673 20.3588C13.1371 19.8709 12.568 19.1775 12.232 18.3662C11.8959 17.5549 11.808 16.6621 11.9793 15.8009C12.1506 14.9396 12.5735 14.1485 13.1944 13.5275C13.8154 12.9066 14.6065 12.4837 15.4678 12.3124C16.3291 12.1411 17.2218 12.229 18.0331 12.565C18.8444 12.9011 19.5379 13.4702 20.0257 14.2003C20.5136 14.9305 20.774 15.7889 20.774 16.6671C20.774 17.2501 20.6592 17.8275 20.436 18.3662C20.2129 18.9049 19.8859 19.3943 19.4736 19.8066C19.0613 20.2189 18.5718 20.546 18.0331 20.7691C17.4944 20.9922 16.9171 21.1071 16.334 21.1071V21.1071Z" fill="white"/>
</svg>
