<svg width="183" height="51" viewBox="0 0 183 51" fill="none" xmlns="http://www.w3.org/2000/svg">
<path fill-rule="evenodd" clip-rule="evenodd" d="M30.7786 46.3041L30.7786 41.7694L35.5833 35.7063L40.388 29.6436L40.6277 27.3687C40.7594 26.1175 40.8894 21.9892 40.916 18.1947C40.9619 11.6857 40.9241 11.2549 40.251 10.5826C39.2988 9.63135 38.6832 9.6842 37.8112 10.7919C37.1459 11.6367 37.0849 12.1792 37.0849 17.2665C37.0849 20.4062 37.2247 22.819 37.4065 22.819C37.5838 22.819 38.0806 23.3884 38.5112 24.0841C39.1068 25.0469 39.2182 25.5446 38.9779 26.1669C38.5455 27.2847 31.8924 34.3683 31.275 34.3683C30.0923 34.3683 31.0011 32.9082 34.1069 29.8186C35.9375 27.9976 37.4353 26.2638 37.4353 25.966C37.4353 25.1498 36.4203 23.8689 35.7739 23.8689C35.1716 23.8689 34.3525 24.5136 27.1843 30.6309C24.3717 33.0311 22.6182 34.7879 22.4546 35.3693C22.312 35.8774 22.195 39.5218 22.195 43.4678L22.195 50.6424L26.4868 50.7408L30.7786 50.8391L30.7786 46.3041ZM19.7849 50.3085C20.1202 49.4357 19.7625 35.6269 19.3883 34.999C18.7963 34.0054 6.49788 23.8689 5.88407 23.8689C5.12906 23.8689 4.15193 24.9741 4.15193 25.8281C4.15193 26.2208 5.55754 27.9059 7.48026 29.8186C10.4709 32.7934 11.6337 34.6186 10.3395 34.3064C10.0816 34.2441 8.26856 32.5068 6.31045 30.4454C2.2194 26.1385 2.02565 25.573 3.97676 23.6239L5.20298 22.399L5.20298 16.9935C5.20298 11.7207 5.18197 11.5667 4.34288 10.7289C3.29988 9.68664 2.62405 9.64605 1.69948 10.5696C1.03521 11.2332 0.998775 11.7361 0.998774 20.226L0.998774 29.1827L5.96639 35.3332C8.69878 38.7161 10.9715 41.8124 11.0174 42.2135C11.0633 42.6146 11.1137 44.7145 11.1299 46.8801L11.1589 50.8174L15.374 50.8174C18.7391 50.8174 19.6287 50.7149 19.7849 50.3085Z" fill="#43A765"/>
<path fill-rule="evenodd" clip-rule="evenodd" d="M23.2036 19.5047C25.3727 16.0026 27.2534 12.8827 27.3832 12.5716C27.7602 11.6685 27.0289 11.3758 24.3257 11.347C22.9994 11.333 21.8796 11.3048 21.8373 11.2845C21.7799 11.257 22.8245 3.51002 23.2484 0.818755C23.2762 0.643578 23.1895 0.45536 23.0562 0.400341C22.7651 0.280579 14.5106 13.5326 14.5869 13.9972C14.6854 14.5976 15.4102 14.7791 17.8101 14.8044C19.1236 14.8182 20.2262 14.8412 20.2598 14.8553C20.2937 14.8693 19.977 17.2784 19.5567 20.2087C19.1361 23.139 18.8971 25.612 19.0261 25.7046C19.1549 25.7971 21.0347 23.0071 23.2036 19.5047Z" fill="#FA5507"/>
<path d="M58.4311 42.5889V25.4567H56.4609V42.5889H58.4311ZM57.4317 19.0036C56.3467 19.0036 55.8898 19.5462 55.8898 20.3457C55.8898 21.1166 56.3467 21.6591 57.4317 21.6591C58.5453 21.6591 59.0021 21.1166 59.0021 20.3457C59.0021 19.5462 58.5453 19.0036 57.4317 19.0036ZM84.8391 35.7075C84.1538 38.8769 81.2699 41.0755 75.2165 41.0755C68.1638 41.0755 65.4227 38.0774 65.4227 34.0228C65.4227 29.9682 68.1638 26.9701 75.2165 26.9701C81.2699 26.9701 84.1538 29.1687 84.8391 32.3381H86.8378C86.124 28.0551 82.6405 25.1141 75.2165 25.1141C66.8504 25.1141 63.4525 28.8546 63.4525 34.0228C63.4525 39.191 66.8504 42.9315 75.2165 42.9315C82.6405 42.9315 86.124 39.9905 86.8378 35.7075H84.8391ZM102.156 25.1141C94.2754 25.1141 90.9631 28.8546 90.9631 34.0228C90.9631 39.191 94.2754 42.9315 102.156 42.9315C107.81 42.9315 111.093 41.0184 112.521 38.0489V42.5889H114.491V25.4567H112.521V29.9968C111.093 27.0272 107.81 25.1141 102.156 25.1141ZM102.727 41.0755C95.6745 41.0755 92.9333 38.0774 92.9333 34.0228C92.9333 29.9682 95.6745 26.9701 102.727 26.9701C109.78 26.9701 112.521 29.9682 112.521 34.0228C112.521 38.0774 109.78 41.0755 102.727 41.0755ZM132.924 25.1141C127.299 25.1141 123.986 27.0272 122.559 29.9968V25.4567H120.589V48.2996H122.559V38.0489C123.986 41.0184 127.299 42.9315 132.924 42.9315C140.833 42.9315 144.145 39.191 144.145 34.0228C144.145 28.8546 140.833 25.1141 132.924 25.1141ZM132.381 41.0755C125.328 41.0755 122.559 38.0774 122.559 34.0228C122.559 29.9682 125.328 26.9701 132.381 26.9701C139.434 26.9701 142.175 29.9682 142.175 34.0228C142.175 38.0774 139.434 41.0755 132.381 41.0755ZM151.213 42.5889V25.4567H149.243V42.5889H151.213ZM150.214 19.0036C149.129 19.0036 148.672 19.5462 148.672 20.3457C148.672 21.1166 149.129 21.6591 150.214 21.6591C151.328 21.6591 151.784 21.1166 151.784 20.3457C151.784 19.5462 151.328 19.0036 150.214 19.0036ZM167.428 25.1141C159.547 25.1141 156.235 28.8546 156.235 34.0228C156.235 39.191 159.547 42.9315 167.428 42.9315C173.081 42.9315 176.365 41.0184 177.793 38.0489V42.5889H179.763V25.4567H177.793V29.9968C176.365 27.0272 173.081 25.1141 167.428 25.1141ZM167.999 41.0755C160.946 41.0755 158.205 38.0774 158.205 34.0228C158.205 29.9682 160.946 26.9701 167.999 26.9701C175.052 26.9701 177.793 29.9682 177.793 34.0228C177.793 38.0774 175.052 41.0755 167.999 41.0755Z" fill="black"/>
<path d="M58.4311 42.5889V43.2339H59.0761V42.5889H58.4311ZM58.4311 25.4567H59.0761V24.8117H58.4311V25.4567ZM56.4609 25.4567V24.8117H55.8159V25.4567H56.4609ZM56.4609 42.5889H55.8159V43.2339H56.4609V42.5889ZM59.0761 42.5889V25.4567H57.7861V42.5889H59.0761ZM58.4311 24.8117H56.4609V26.1018H58.4311V24.8117ZM55.8159 25.4567V42.5889H57.1059V25.4567H55.8159ZM56.4609 43.2339H58.4311V41.9439H56.4609V43.2339ZM57.4317 18.3586C56.7892 18.3586 56.2208 18.5195 55.8114 18.9055C55.3964 19.2969 55.2448 19.8246 55.2448 20.3457H56.5348C56.5348 20.0673 56.6117 19.924 56.6964 19.8442C56.7866 19.759 56.9892 19.6487 57.4317 19.6487V18.3586ZM55.2448 20.3457C55.2448 20.8587 55.4 21.3788 55.815 21.7642C56.2232 22.1432 56.7889 22.3041 57.4317 22.3041V21.0141C56.9894 21.0141 56.7842 20.9038 56.6928 20.8188C56.608 20.7402 56.5348 20.6036 56.5348 20.3457H55.2448ZM57.4317 22.3041C58.0847 22.3041 58.6572 22.1453 59.0701 21.7673C59.4916 21.3814 59.6472 20.8591 59.6472 20.3457H58.3571C58.3571 20.6032 58.2843 20.7376 58.199 20.8157C58.105 20.9017 57.8923 21.0141 57.4317 21.0141V22.3041ZM59.6472 20.3457C59.6472 19.8242 59.4953 19.2943 59.0737 18.9024C58.6596 18.5175 58.0844 18.3586 57.4317 18.3586V19.6487C57.8926 19.6487 58.1027 19.7611 58.1954 19.8473C58.2806 19.9265 58.3571 20.0676 58.3571 20.3457H59.6472ZM84.8391 35.7075V35.0625H84.3186L84.2086 35.5712L84.8391 35.7075ZM84.8391 32.3381L84.2086 32.4745L84.3186 32.9832H84.8391V32.3381ZM86.8378 32.3381V32.9832H87.5992L87.4741 32.2321L86.8378 32.3381ZM86.8378 35.7075L87.4741 35.8135L87.5992 35.0625H86.8378V35.7075ZM84.2086 35.5712C83.9027 36.9861 83.1153 38.1761 81.7069 39.0282C80.2791 39.892 78.1741 40.4305 75.2165 40.4305V41.7205C78.3123 41.7205 80.6759 41.1597 82.3747 40.1319C84.093 39.0923 85.0902 37.5983 85.4695 35.8438L84.2086 35.5712ZM75.2165 40.4305C71.7681 40.4305 69.4866 39.6956 68.0783 38.5664C66.6928 37.4555 66.0677 35.8944 66.0677 34.0228H64.7777C64.7777 36.2058 65.5231 38.1711 67.2713 39.5729C68.9968 40.9564 71.6123 41.7205 75.2165 41.7205V40.4305ZM66.0677 34.0228C66.0677 32.1512 66.6928 30.5901 68.0783 29.4792C69.4866 28.35 71.7681 27.6151 75.2165 27.6151V26.3251C71.6123 26.3251 68.9968 27.0892 67.2713 28.4727C65.5231 29.8745 64.7777 31.8398 64.7777 34.0228H66.0677ZM75.2165 27.6151C78.1741 27.6151 80.2791 28.1536 81.7069 29.0174C83.1153 29.8696 83.9027 31.0595 84.2086 32.4745L85.4695 32.2018C85.0902 30.4473 84.093 28.9533 82.3747 27.9137C80.6759 26.8859 78.3123 26.3251 75.2165 26.3251V27.6151ZM84.8391 32.9832H86.8378V31.6931H84.8391V32.9832ZM87.4741 32.2321C87.0908 29.9326 85.9525 27.9637 83.9036 26.5849C81.8729 25.2183 79.0049 24.4691 75.2165 24.4691V25.7591C78.8521 25.7591 81.4378 26.4804 83.1833 27.6551C84.9107 28.8176 85.871 30.4606 86.2016 32.4442L87.4741 32.2321ZM75.2165 24.4691C70.949 24.4691 67.8377 25.4217 65.784 27.1351C63.7122 28.8636 62.8075 31.2898 62.8075 34.0228H64.0975C64.0975 31.5876 64.8918 29.5595 66.6104 28.1257C68.3472 26.6767 71.1179 25.7591 75.2165 25.7591V24.4691ZM62.8075 34.0228C62.8075 36.7558 63.7122 39.182 65.784 40.9105C67.8377 42.6239 70.949 43.5765 75.2165 43.5765V42.2865C71.1179 42.2865 68.3472 41.3689 66.6104 39.9199C64.8918 38.4861 64.0975 36.458 64.0975 34.0228H62.8075ZM75.2165 43.5765C79.0049 43.5765 81.8729 42.8273 83.9036 41.4607C85.9525 40.0819 87.0908 38.113 87.4741 35.8135L86.2016 35.6014C85.871 37.585 84.9107 39.2281 83.1833 40.3905C81.4378 41.5652 78.8521 42.2865 75.2165 42.2865V43.5765ZM86.8378 35.0625H84.8391V36.3525H86.8378V35.0625ZM112.521 38.0489H113.166L111.94 37.7694L112.521 38.0489ZM112.521 42.5889H111.876V43.2339H112.521V42.5889ZM114.491 42.5889V43.2339H115.136V42.5889H114.491ZM114.491 25.4567H115.136V24.8117H114.491V25.4567ZM112.521 25.4567V24.8117H111.876V25.4567H112.521ZM112.521 29.9968L111.94 30.2762L113.166 29.9968H112.521ZM102.156 24.4691C98.123 24.4691 95.1512 25.4257 93.1804 27.1443C91.1969 28.874 90.3181 31.2961 90.3181 34.0228H91.6082C91.6082 31.5813 92.3855 29.5491 94.0283 28.1165C95.6838 26.6728 98.3085 25.7591 102.156 25.7591V24.4691ZM90.3181 34.0228C90.3181 36.7495 91.1969 39.1716 93.1804 40.9014C95.1512 42.62 98.123 43.5765 102.156 43.5765V42.2865C98.3085 42.2865 95.6838 41.3728 94.0283 39.9291C92.3855 38.4965 91.6082 36.4643 91.6082 34.0228H90.3181ZM102.156 43.5765C107.949 43.5765 111.527 41.605 113.102 38.3283L111.94 37.7694C110.66 40.4319 107.671 42.2865 102.156 42.2865V43.5765ZM111.876 38.0489V42.5889H113.166V38.0489H111.876ZM112.521 43.2339H114.491V41.9439H112.521V43.2339ZM115.136 42.5889V25.4567H113.846V42.5889H115.136ZM114.491 24.8117H112.521V26.1018H114.491V24.8117ZM111.876 25.4567V29.9968H113.166V25.4567H111.876ZM113.102 29.7173C111.527 26.4406 107.949 24.4691 102.156 24.4691V25.7591C107.671 25.7591 110.66 27.6137 111.94 30.2762L113.102 29.7173ZM102.727 40.4305C99.2787 40.4305 96.9973 39.6956 95.589 38.5664C94.2035 37.4555 93.5784 35.8944 93.5784 34.0228H92.2883C92.2883 36.2058 93.0338 38.1711 94.782 39.5729C96.5074 40.9564 99.1229 41.7205 102.727 41.7205V40.4305ZM93.5784 34.0228C93.5784 32.1512 94.2035 30.5901 95.589 29.4792C96.9973 28.35 99.2787 27.6151 102.727 27.6151V26.3251C99.1229 26.3251 96.5074 27.0892 94.782 28.4727C93.0338 29.8745 92.2883 31.8398 92.2883 34.0228H93.5784ZM102.727 27.6151C106.176 27.6151 108.457 28.35 109.865 29.4792C111.251 30.5901 111.876 32.1512 111.876 34.0228H113.166C113.166 31.8398 112.421 29.8745 110.672 28.4727C108.947 27.0892 106.331 26.3251 102.727 26.3251V27.6151ZM111.876 34.0228C111.876 35.8944 111.251 37.4555 109.865 38.5664C108.457 39.6956 106.176 40.4305 102.727 40.4305V41.7205C106.331 41.7205 108.947 40.9564 110.672 39.5729C112.421 38.1711 113.166 36.2058 113.166 34.0228H111.876ZM122.559 29.9968H121.914L123.14 30.2762L122.559 29.9968ZM122.559 25.4567H123.204V24.8117H122.559V25.4567ZM120.589 25.4567V24.8117H119.944V25.4567H120.589ZM120.589 48.2996H119.944V48.9446H120.589V48.2996ZM122.559 48.2996V48.9446H123.204V48.2996H122.559ZM122.559 38.0489L123.14 37.7694L121.914 38.0489H122.559ZM132.924 24.4691C127.16 24.4691 123.553 26.44 121.977 29.7173L123.14 30.2762C124.42 27.6144 127.437 25.7591 132.924 25.7591V24.4691ZM123.204 29.9968V25.4567H121.914V29.9968H123.204ZM122.559 24.8117H120.589V26.1018H122.559V24.8117ZM119.944 25.4567V48.2996H121.234V25.4567H119.944ZM120.589 48.9446H122.559V47.6546H120.589V48.9446ZM123.204 48.2996V38.0489H121.914V48.2996H123.204ZM121.977 38.3283C123.553 41.6056 127.16 43.5765 132.924 43.5765V42.2865C127.437 42.2865 124.42 40.4312 123.14 37.7694L121.977 38.3283ZM132.924 43.5765C136.971 43.5765 139.949 42.6202 141.924 40.9018C143.911 39.172 144.79 36.7496 144.79 34.0228H143.5C143.5 36.4642 142.723 38.4962 141.077 39.9287C139.418 41.3726 136.786 42.2865 132.924 42.2865V43.5765ZM144.79 34.0228C144.79 31.296 143.911 28.8736 141.924 27.1438C139.949 25.4254 136.971 24.4691 132.924 24.4691V25.7591C136.786 25.7591 139.418 26.6731 141.077 28.1169C142.723 29.5494 143.5 31.5814 143.5 34.0228H144.79ZM132.381 40.4305C128.933 40.4305 126.643 39.6957 125.228 38.5655C123.835 37.4537 123.204 35.8923 123.204 34.0228H121.914C121.914 36.2079 122.668 38.1729 124.423 39.5738C126.155 40.9563 128.777 41.7205 132.381 41.7205V40.4305ZM123.204 34.0228C123.204 32.1533 123.835 30.5919 125.228 29.4801C126.643 28.3499 128.933 27.6151 132.381 27.6151V26.3251C128.777 26.3251 126.155 27.0893 124.423 28.4719C122.668 29.8727 121.914 31.8377 121.914 34.0228H123.204ZM132.381 27.6151C135.83 27.6151 138.111 28.35 139.519 29.4792C140.905 30.5901 141.53 32.1512 141.53 34.0228H142.82C142.82 31.8398 142.075 29.8745 140.326 28.4727C138.601 27.0892 135.985 26.3251 132.381 26.3251V27.6151ZM141.53 34.0228C141.53 35.8944 140.905 37.4555 139.519 38.5664C138.111 39.6956 135.83 40.4305 132.381 40.4305V41.7205C135.985 41.7205 138.601 40.9564 140.326 39.5729C142.075 38.1711 142.82 36.2058 142.82 34.0228H141.53ZM151.213 42.5889V43.2339H151.858V42.5889H151.213ZM151.213 25.4567H151.858V24.8117H151.213V25.4567ZM149.243 25.4567V24.8117H148.598V25.4567H149.243ZM149.243 42.5889H148.598V43.2339H149.243V42.5889ZM151.858 42.5889V25.4567H150.568V42.5889H151.858ZM151.213 24.8117H149.243V26.1018H151.213V24.8117ZM148.598 25.4567V42.5889H149.888V25.4567H148.598ZM149.243 43.2339H151.213V41.9439H149.243V43.2339ZM150.214 18.3586C149.571 18.3586 149.003 18.5195 148.594 18.9055C148.179 19.2969 148.027 19.8246 148.027 20.3457H149.317C149.317 20.0673 149.394 19.924 149.479 19.8442C149.569 19.759 149.771 19.6487 150.214 19.6487V18.3586ZM148.027 20.3457C148.027 20.8587 148.182 21.3788 148.597 21.7642C149.005 22.1432 149.571 22.3041 150.214 22.3041V21.0141C149.772 21.0141 149.566 20.9038 149.475 20.8188C149.39 20.7402 149.317 20.6036 149.317 20.3457H148.027ZM150.214 22.3041C150.867 22.3041 151.439 22.1453 151.852 21.7673C152.274 21.3814 152.429 20.8591 152.429 20.3457H151.139C151.139 20.6032 151.067 20.7376 150.981 20.8157C150.887 20.9017 150.675 21.0141 150.214 21.0141V22.3041ZM152.429 20.3457C152.429 19.8242 152.278 19.2943 151.856 18.9024C151.442 18.5175 150.867 18.3586 150.214 18.3586V19.6487C150.675 19.6487 150.885 19.7611 150.978 19.8473C151.063 19.9265 151.139 20.0676 151.139 20.3457H152.429ZM177.793 38.0489H178.438L177.211 37.7694L177.793 38.0489ZM177.793 42.5889H177.148V43.2339H177.793V42.5889ZM179.763 42.5889V43.2339H180.408V42.5889H179.763ZM179.763 25.4567H180.408V24.8117H179.763V25.4567ZM177.793 25.4567V24.8117H177.148V25.4567H177.793ZM177.793 29.9968L177.211 30.2762L178.438 29.9968H177.793ZM167.428 24.4691C163.395 24.4691 160.423 25.4257 158.452 27.1443C156.468 28.874 155.59 31.2961 155.59 34.0228H156.88C156.88 31.5813 157.657 29.5491 159.3 28.1165C160.955 26.6728 163.58 25.7591 167.428 25.7591V24.4691ZM155.59 34.0228C155.59 36.7495 156.468 39.1716 158.452 40.9014C160.423 42.62 163.395 43.5765 167.428 43.5765V42.2865C163.58 42.2865 160.955 41.3728 159.3 39.9291C157.657 38.4965 156.88 36.4643 156.88 34.0228H155.59ZM167.428 43.5765C173.22 43.5765 176.799 41.605 178.374 38.3283L177.211 37.7694C175.931 40.4319 172.942 42.2865 167.428 42.2865V43.5765ZM177.148 38.0489V42.5889H178.438V38.0489H177.148ZM177.793 43.2339H179.763V41.9439H177.793V43.2339ZM180.408 42.5889V25.4567H179.118V42.5889H180.408ZM179.763 24.8117H177.793V26.1018H179.763V24.8117ZM177.148 25.4567V29.9968H178.438V25.4567H177.148ZM178.374 29.7173C176.799 26.4406 173.22 24.4691 167.428 24.4691V25.7591C172.942 25.7591 175.931 27.6137 177.211 30.2762L178.374 29.7173ZM167.999 40.4305C164.55 40.4305 162.269 39.6956 160.861 38.5664C159.475 37.4555 158.85 35.8944 158.85 34.0228H157.56C157.56 36.2058 158.305 38.1711 160.054 39.5729C161.779 40.9564 164.395 41.7205 167.999 41.7205V40.4305ZM158.85 34.0228C158.85 32.1512 159.475 30.5901 160.861 29.4792C162.269 28.35 164.55 27.6151 167.999 27.6151V26.3251C164.395 26.3251 161.779 27.0892 160.054 28.4727C158.305 29.8745 157.56 31.8398 157.56 34.0228H158.85ZM167.999 27.6151C171.447 27.6151 173.729 28.35 175.137 29.4792C176.523 30.5901 177.148 32.1512 177.148 34.0228H178.438C178.438 31.8398 177.692 29.8745 175.944 28.4727C174.219 27.0892 171.603 26.3251 167.999 26.3251V27.6151ZM177.148 34.0228C177.148 35.8944 176.523 37.4555 175.137 38.5664C173.729 39.6956 171.447 40.4305 167.999 40.4305V41.7205C171.603 41.7205 174.219 40.9564 175.944 39.5729C177.692 38.1711 178.438 36.2058 178.438 34.0228H177.148Z" fill="black"/>
<ellipse cx="57.4585" cy="20.0217" rx="2.4188" ry="2.25755" fill="#FA5507"/>
</svg>
