<svg width="54" height="54" viewBox="0 0 54 54" fill="none" xmlns="http://www.w3.org/2000/svg">
<circle cx="27" cy="27" r="27" fill="#E78512"/>
<path d="M32.1152 13.1198C32.2842 13.2191 32.415 13.3735 32.4862 13.5578C32.5574 13.7422 32.5648 13.9455 32.5072 14.1347L29.3965 24.3751H35.136C35.3047 24.3751 35.4697 24.425 35.6107 24.5189C35.7516 24.6127 35.8624 24.7463 35.9292 24.9032C35.9961 25.0601 36.0162 25.2334 35.9869 25.4017C35.9577 25.57 35.8805 25.726 35.7648 25.8503L21.9471 40.7244C21.8134 40.8685 21.6355 40.9624 21.4423 40.9909C21.2492 41.0194 21.0523 40.9807 20.8836 40.8813C20.7149 40.7818 20.5844 40.6274 20.5135 40.4432C20.4425 40.259 20.4352 40.0559 20.4928 39.867L23.6035 29.6248H17.8639C17.6953 29.6249 17.5303 29.5749 17.3893 29.4811C17.2484 29.3872 17.1376 29.2536 17.0708 29.0967C17.0039 28.9398 16.9838 28.7665 17.0131 28.5982C17.0423 28.4299 17.1195 28.274 17.2352 28.1497L31.0529 13.2755C31.1865 13.1317 31.3641 13.0378 31.557 13.0092C31.7498 12.9806 31.9465 13.019 32.1152 13.118V13.1198Z" fill="white"/>
</svg>
