<svg width="24" height="26" viewBox="0 0 24 26" fill="none" xmlns="http://www.w3.org/2000/svg">
<path fill-rule="evenodd" clip-rule="evenodd" d="M2.26582 25.2335C1.74748 25.7842 0.90709 25.7842 0.388753 25.2335C-0.129584 24.6829 -0.129584 23.7901 0.388753 23.2394L9.91409 13.1199L0.591411 3.21574C0.0730741 2.66507 0.0730743 1.77226 0.591412 1.22159C1.10975 0.670927 1.95014 0.670927 2.46848 1.22159L11.7912 11.1258L21.1138 1.22159C21.6322 0.670927 22.4726 0.670927 22.9909 1.22159C23.5092 1.77226 23.5092 2.66507 22.9909 3.21574L13.6682 13.1199L23.1936 23.2394C23.7119 23.7901 23.7119 24.6829 23.1936 25.2335C22.6752 25.7842 21.8348 25.7842 21.3165 25.2335L11.7912 15.1141L2.26582 25.2335Z" fill="#BFABAD"/>
<path fill-rule="evenodd" clip-rule="evenodd" d="M2.26582 25.2335C1.74748 25.7842 0.90709 25.7842 0.388753 25.2335C-0.129584 24.6829 -0.129584 23.7901 0.388753 23.2394L9.91409 13.1199L0.591411 3.21574C0.0730741 2.66507 0.0730743 1.77226 0.591412 1.22159C1.10975 0.670927 1.95014 0.670927 2.46848 1.22159L11.7912 11.1258L21.1138 1.22159C21.6322 0.670927 22.4726 0.670927 22.9909 1.22159C23.5092 1.77226 23.5092 2.66507 22.9909 3.21574L13.6682 13.1199L23.1936 23.2394C23.7119 23.7901 23.7119 24.6829 23.1936 25.2335C22.6752 25.7842 21.8348 25.7842 21.3165 25.2335L11.7912 15.1141L2.26582 25.2335Z" fill="#373737"/>
</svg>
