<svg width="62" height="63" viewBox="0 0 62 63" fill="none" xmlns="http://www.w3.org/2000/svg">
<path fill-rule="evenodd" clip-rule="evenodd" d="M62.0003 31.8757L61.9995 34.9689L61.9972 36.25L61.9934 37.2329L61.9879 38.0613L61.981 38.7908L61.9725 39.4502L61.9624 40.0562L61.9508 40.6199L61.9377 41.149L61.923 41.6491L61.9067 42.1243L61.8889 42.5779L61.8695 43.0126L61.8486 43.4304L61.8262 43.8331L61.8021 44.222L61.7766 44.5985L61.7494 44.9635L61.7207 45.318L61.6905 45.6627L61.6587 45.9984L61.6253 46.3255L61.5903 46.6447L61.5538 46.9564L61.5157 47.2611L61.4761 47.5591L61.4348 47.8507L61.392 48.1364L61.3476 48.4163L61.3017 48.6908L61.2541 48.96L61.205 49.2242L61.1542 49.4835L61.1019 49.7383L61.048 49.9886L60.9925 50.2345L60.9354 50.4764L60.8766 50.7142L60.8163 50.9481L60.7544 51.1782L60.6908 51.4046L60.6256 51.6275L60.5588 51.847L60.4904 52.063L60.4203 52.2758L60.3486 52.4854L60.2752 52.6918L60.2002 52.8952L60.1236 53.0956L60.0452 53.293L59.9653 53.4876L59.8836 53.6794L59.8003 53.8685L59.7153 54.0548L59.6286 54.2385L59.5402 54.4196L59.4501 54.5981L59.3582 54.7741L59.2647 54.9476L59.1694 55.1187L59.0725 55.2873L58.9737 55.4536L58.8732 55.6176L58.771 55.7793L58.667 55.9387L58.5612 56.0958L58.4536 56.2508L58.3442 56.4035L58.233 56.5541L58.12 56.7025L58.0052 56.8488L57.8885 56.9931L57.7699 57.1352L57.6495 57.2753L57.5272 57.4134L57.403 57.5495L57.2769 57.6835L57.1489 57.8156L57.0189 57.9457L56.887 58.0739L56.7531 58.2002L56.6172 58.3245L56.4793 58.447L56.3393 58.5675L56.1973 58.6862L56.0533 58.8031L55.9071 58.9181L55.7588 59.0312L55.6084 59.1426L55.4559 59.2521L55.3011 59.3598L55.1441 59.4657L54.9849 59.5699L54.8234 59.6723L54.6597 59.7729L54.4935 59.8718L54.3251 59.9689L54.1542 60.0643L53.9808 60.158L53.805 60.2499L53.6267 60.3402L53.4459 60.4287L53.2624 60.5155L53.0763 60.6007L52.8874 60.6842L52.6959 60.7659L52.5015 60.8461L52.3043 60.9245L52.1041 61.0013L51.901 61.0764L51.6948 61.1499L51.4855 61.2218L51.273 61.292L51.0572 61.3605L50.838 61.4275L50.6154 61.4928L50.3892 61.5565L50.1594 61.6186L49.9258 61.679L49.6883 61.7379L49.4468 61.7951L49.2012 61.8508L48.9513 61.9048L48.6969 61.9573L48.4379 62.0081L48.1741 62.0574L47.9053 62.1051L47.6312 62.1512L47.3518 62.1957L47.0666 62.2386L46.7754 62.28L46.4779 62.3198L46.1738 62.358L45.8627 62.3946L45.5441 62.4297L45.2176 62.4632L44.8827 62.4951L44.5387 62.5255L44.185 62.5543L43.8209 62.5816L43.4453 62.6073L43.0574 62.6314L42.6559 62.654L42.2394 62.6751L41.8061 62.6945L41.354 62.7125L40.8806 62.7288L40.3827 62.7437L39.8561 62.757L39.2954 62.7687L38.6931 62.7789L38.0385 62.7875L37.3154 62.7946L36.4964 62.8001L35.5291 62.8041L34.2826 62.8065L31.9415 62.8074L28.1012 62.8068L26.7823 62.8046L25.7831 62.8008L24.945 62.7956L24.2088 62.7887L23.5446 62.7803L22.9348 62.7704L22.368 62.7589L21.8364 62.7459L21.3342 62.7313L20.8571 62.7152L20.4018 62.6975L19.9657 62.6783L19.5466 62.6575L19.1428 62.6351L18.7528 62.6112L18.3754 62.5858L18.0095 62.5588L17.6542 62.5302L17.3088 62.5001L16.9724 62.4684L16.6446 62.4351L16.3248 62.4003L16.0125 62.3639L15.7073 62.3259L15.4088 62.2864L15.1166 62.2453L14.8305 62.2026L14.5502 62.1584L14.2753 62.1125L14.0057 62.0651L13.7411 62.0161L13.4813 61.9655L13.2262 61.9133L12.9756 61.8595L12.7293 61.8041L12.4871 61.7471L12.249 61.6885L12.0148 61.6283L11.7844 61.5665L11.5577 61.5031L11.3345 61.438L11.1148 61.3713L10.8984 61.303L10.6854 61.2331L10.4756 61.1615L10.2689 61.0883L10.0653 61.0134L9.86467 60.9369L9.66698 60.8587L9.47215 60.7788L9.28014 60.6973L9.09089 60.6141L8.90434 60.5292L8.72045 60.4426L8.53916 60.3544L8.36044 60.2644L8.18425 60.1727L8.01053 60.0793L7.83926 59.9842L7.6704 59.8874L7.5039 59.7888L7.33975 59.6884L7.1779 59.5863L7.01833 59.4825L6.861 59.3768L6.70589 59.2694L6.55298 59.1601L6.40223 59.0491L6.25362 58.9362L6.10713 58.8215L5.96273 58.705L5.82041 58.5866L5.68015 58.4663L5.54191 58.3442L5.40569 58.2201L5.27147 58.0942L5.13922 57.9663L5.00894 57.8365L4.88059 57.7047L4.75418 57.5709L4.62968 57.4352L4.50709 57.2975L4.38637 57.1577L4.26753 57.0158L4.15055 56.8719L4.03541 56.726L3.92211 56.5779L3.81063 56.4276L3.70096 56.2752L3.59309 56.1206L3.48702 55.9638L3.38272 55.8048L3.28019 55.6435L3.17943 55.4799L3.08042 55.314L2.98315 55.1457L2.88761 54.975L2.79381 54.8019L2.70172 54.6263L2.61134 54.4482L2.52267 54.2675L2.4357 54.0842L2.35041 53.8983L2.26682 53.7097L2.18489 53.5184L2.10465 53.3242L2.02606 53.1272L1.94914 52.9273L1.87387 52.7244L1.80025 52.5184L1.72828 52.3094L1.65794 52.0971L1.58925 51.8816L1.52218 51.6627L1.45673 51.4404L1.39291 51.2145L1.33071 50.985L1.27012 50.7517L1.21114 50.5145L1.15376 50.2733L1.09799 50.028L1.04382 49.7784L0.991242 49.5244L0.940259 49.2658L0.890866 49.0024L0.84306 48.734L0.796838 48.4604L0.752199 48.1814L0.709138 47.8966L0.667655 47.6059L0.627746 47.309L0.589409 47.0054L0.552643 46.6948L0.517444 46.3769L0.483813 46.051L0.451745 45.7168L0.421241 45.3736L0.392297 45.0207L0.364914 44.6574L0.339088 44.2828L0.31482 43.8959L0.292107 43.4955L0.270949 43.0802L0.251344 42.6484L0.233291 42.1979L0.21679 41.7263L0.201839 41.2305L0.188438 40.7063L0.176587 40.1485L0.166284 39.5499L0.157529 38.9L0.150322 38.1831L0.144662 37.3732L0.140549 36.4208L0.137983 35.2061L0.136963 33.1102L0.13749 29.0396L0.139563 27.6792L0.143184 26.6627L0.148351 25.8146L0.155065 25.0716L0.163327 24.4024L0.173137 23.7888L0.184495 23.2189L0.197402 22.6847L0.211859 22.1803L0.227866 21.7014L0.245425 21.2445L0.264535 20.8069L0.285199 20.3866L0.307416 19.9816L0.331189 19.5905L0.356518 19.2122L0.383406 18.8454L0.411852 18.4893L0.441859 18.143L0.473428 17.806L0.506562 17.4775L0.541261 17.1571L0.577528 16.8442L0.615364 16.5385L0.654772 16.2394L0.695754 15.9468L0.738311 15.6602L0.782448 15.3794L0.828165 15.1041L0.875466 14.8341L0.924353 14.5691L0.974829 14.3089L1.0269 14.0535L1.08056 13.8025L1.13582 13.5558L1.19269 13.3134L1.25115 13.0749L1.31123 12.8404L1.37292 12.6097L1.43623 12.3827L1.50115 12.1592L1.5677 11.9392L1.63588 11.7227L1.7057 11.5094L1.77715 11.2993L1.85024 11.0924L1.92498 10.8885L2.00138 10.6876L2.07943 10.4897L2.15915 10.2947L2.24054 10.1024L2.3236 9.91297L2.40835 9.7262L2.49478 9.5421L2.58291 9.36061L2.67275 9.18169L2.76429 9.00529L2.85755 8.83138L2.95253 8.65992L3.04924 8.49086L3.1477 8.32418L3.24791 8.15984L3.34987 7.99781L3.4536 7.83806L3.55911 7.68056L3.66641 7.52527L3.7755 7.37218L3.8864 7.22126L3.99912 7.07248L4.11367 6.92582L4.23007 6.78126L4.34832 6.63878L4.46843 6.49835L4.59043 6.35995L4.71432 6.22357L4.84012 6.08919L4.96784 5.95679L5.09751 5.82634L5.22913 5.69785L5.36272 5.57128L5.4983 5.44664L5.63589 5.32389L5.77551 5.20302L5.91718 5.08403L6.06091 4.9669L6.20673 4.85162L6.35466 4.73817L6.50473 4.62655L6.65695 4.51674L6.81136 4.40872L6.96797 4.30251L7.12683 4.19807L7.28795 4.0954L7.45136 3.99449L7.61711 3.89534L7.78521 3.79794L7.95571 3.70226L8.12865 3.60832L8.30405 3.51609L8.48196 3.42558L8.66242 3.33678L8.84548 3.24967L9.03117 3.16425L9.21956 3.08052L9.41069 2.99846L9.60461 2.91808L9.80138 2.83936L10.0011 2.76231L10.2037 2.68691L10.4094 2.61316L10.6182 2.54106L10.8302 2.47059L11.0455 2.40176L11.2641 2.33456L11.4862 2.26899L11.7118 2.20504L11.941 2.14271L12.174 2.08199L12.4109 2.02288L12.6517 1.96538L12.8967 1.90948L13.1459 1.85518L13.3996 1.80247L13.6578 1.75136L13.9208 1.70185L14.1888 1.65391L14.462 1.60757L14.7406 1.5628L15.0249 1.51961L15.3151 1.47801L15.6115 1.43797L15.9146 1.39951L16.2245 1.36262L16.5419 1.32729L16.8671 1.29354L17.2007 1.26135L17.5432 1.23072L17.8952 1.20165L18.2577 1.17414L18.6313 1.14819L19.0172 1.1238L19.4164 1.10096L19.8305 1.07968L20.261 1.05995L20.7099 1.04178L21.1797 1.02515L21.6735 1.01008L22.1952 0.996553L22.75 0.984578L23.3451 0.974152L23.9904 0.965274L24.7012 0.957943L25.5024 0.95216L26.4405 0.947924L27.6258 0.945235L29.5568 0.944092L33.7671 0.944496L35.1734 0.946446L36.2081 0.949943L37.0667 0.954987L37.8166 0.961578L38.4909 0.969717L39.1085 0.979404L39.6815 0.990638L40.2183 1.00342L40.7249 1.01776L41.2057 1.03364L41.6643 1.05107L42.1033 1.07006L42.5249 1.0906L42.9311 1.11269L43.3232 1.13634L43.7025 1.16155L44.0702 1.18831L44.4271 1.21663L44.7741 1.24652L45.1118 1.27796L45.441 1.31097L45.762 1.34554L46.0755 1.38169L46.3818 1.4194L46.6814 1.45868L46.9745 1.49954L47.2616 1.54197L47.5428 1.58598L47.8186 1.63157L48.089 1.67875L48.3544 1.72751L48.6149 1.77786L48.8707 1.8298L49.1221 1.88333L49.369 1.93847L49.6118 1.9952L49.8506 2.05354L50.0854 2.11349L50.3164 2.17505L50.5437 2.23823L50.7675 2.30303L50.9877 2.36945L51.2046 2.4375L51.4181 2.50718L51.6285 2.5785L51.8356 2.65147L52.0397 2.72608L52.2408 2.80234L52.439 2.88026L52.6343 2.95985L52.8267 3.0411L53.0164 3.12403L53.2034 3.20864L53.3877 3.29494L53.5694 3.38294L53.7485 3.47264L53.9251 3.56404L54.0992 3.65716L54.2709 3.75201L54.4401 3.84858L54.607 3.9469L54.7715 4.04697L54.9337 4.14879L55.0937 4.25238L55.2514 4.35775L55.4068 4.4649L55.5601 4.57385L55.7112 4.68461L55.8601 4.79719L56.0069 4.91159L56.1517 5.02784L56.2943 5.14594L56.4349 5.2659L56.5735 5.38775L56.71 5.51149L56.8446 5.63714L56.9771 5.76471L57.1077 5.89422L57.2364 6.02568L57.3631 6.15912L57.4879 6.29454L57.6108 6.43197L57.7318 6.57143L57.8509 6.71293L57.9682 6.85649L58.0836 7.00215L58.1972 7.14991L58.309 7.2998L58.419 7.45185L58.5271 7.60609L58.6335 7.76253L58.738 7.9212L58.8409 8.08214L58.9419 8.24537L59.0412 8.41093L59.1387 8.57885L59.2345 8.74916L59.3286 8.92189L59.421 9.0971L59.5116 9.27481L59.6006 9.45506L59.6878 9.63791L59.7734 9.8234L59.8572 10.0116L59.9394 10.2025L60.0199 10.3962L60.0988 10.5927L60.176 10.7922L60.2515 10.9946L60.3254 11.2L60.3976 11.4086L60.4682 11.6203L60.5372 11.8353L60.6045 12.0537L60.6702 12.2755L60.7343 12.5008L60.7968 12.7297L60.8576 12.9624L60.9168 13.199L60.9745 13.4395L61.0305 13.6841L61.0849 13.933L61.1378 14.1863L61.189 14.4442L61.2386 14.7068L61.2867 14.9744L61.3332 15.2472L61.3781 15.5253L61.4214 15.8091L61.4631 16.0988L61.5033 16.3948L61.5419 16.6973L61.5789 17.0067L61.6143 17.3235L61.6482 17.648L61.6805 17.9809L61.7113 18.3227L61.7405 18.6739L61.7681 19.0355L61.7942 19.4082L61.8187 19.7931L61.8416 20.1912L61.863 20.604L61.8829 21.0331L61.9012 21.4805L61.9179 21.9485L61.9331 22.4403L61.9468 22.9596L61.9589 23.5116L61.9694 24.1031L61.9784 24.744L61.9859 25.4488L61.9918 26.2415L61.9962 27.1661L61.999 28.324L62.0002 30.13L62.0003 31.8757Z" fill="#F2F2F2"/>
<path d="M41.3792 31.8758L42.2905 30.9645L43.2018 31.8758L42.2905 32.7871L41.3792 31.8758ZM22.0469 33.1646C21.3351 33.1646 20.758 32.5876 20.758 31.8758C20.758 31.164 21.3351 30.587 22.0469 30.587V33.1646ZM34.5576 23.2315L42.2905 30.9645L40.4678 32.7871L32.7349 25.0542L34.5576 23.2315ZM42.2905 32.7871L34.5576 40.5201L32.7349 38.6974L40.4678 30.9645L42.2905 32.7871ZM41.3792 33.1646H22.0469V30.587H41.3792V33.1646Z" fill="#001D26"/>
</svg>
