<svg width="58" height="59" viewBox="0 0 58 59" fill="none" xmlns="http://www.w3.org/2000/svg">
<g filter="url(#filter0_b_155_4839)">
<path fill-rule="evenodd" clip-rule="evenodd" d="M57.612 29.5257L57.6113 32.3782L57.6091 33.5597L57.6056 34.4661L57.6006 35.2301L57.5941 35.9029L57.5863 36.5109L57.577 37.0698L57.5663 37.5897L57.5542 38.0776L57.5406 38.5388L57.5256 38.9771L57.5092 39.3954L57.4914 39.7963L57.4721 40.1816L57.4514 40.553L57.4292 40.9117L57.4056 41.2588L57.3806 41.5955L57.3541 41.9224L57.3262 42.2403L57.2969 42.5498L57.2661 42.8515L57.2339 43.1459L57.2002 43.4333L57.1651 43.7143L57.1285 43.9891L57.0905 44.2581L57.051 44.5215L57.0101 44.7797L56.9677 45.0328L56.9238 45.2811L56.8785 45.5247L56.8317 45.7639L56.7835 45.9988L56.7337 46.2296L56.6825 46.4565L56.6299 46.6795L56.5757 46.8988L56.5201 47.1145L56.4629 47.3267L56.4043 47.5356L56.3442 47.7411L56.2826 47.9435L56.2195 48.1427L56.1549 48.339L56.0887 48.5322L56.0211 48.7226L55.9519 48.9102L55.8812 49.095L55.809 49.2771L55.7352 49.4565L55.6599 49.6334L55.5831 49.8077L55.5047 49.9796L55.4247 50.149L55.3432 50.316L55.2601 50.4806L55.1754 50.6429L55.0891 50.8029L55.0013 50.9607L54.9119 51.1163L54.8208 51.2696L54.7281 51.4208L54.6338 51.5699L54.5379 51.7169L54.4403 51.8619L54.3411 52.0047L54.2403 52.1456L54.1377 52.2845L54.0335 52.4214L53.9276 52.5563L53.82 52.6893L53.7107 52.8204L53.5996 52.9496L53.4868 53.077L53.3723 53.2024L53.256 53.3261L53.1379 53.4479L53.0181 53.5679L52.8964 53.6861L52.7729 53.8025L52.6476 53.9172L52.5204 54.0301L52.3913 54.1413L52.2604 54.2508L52.1275 54.3585L51.9927 54.4646L51.856 54.5689L51.7173 54.6716L51.5766 54.7726L51.4339 54.872L51.2891 54.9697L51.1423 55.0657L50.9933 55.1601L50.8423 55.2529L50.6891 55.3441L50.5337 55.4337L50.3761 55.5217L50.2163 55.608L50.0542 55.6928L49.8897 55.7761L49.7229 55.8577L49.5537 55.9378L49.3821 56.0163L49.2079 56.0933L49.0313 56.1687L48.852 56.2426L48.6701 56.315L48.4855 56.3858L48.2982 56.4551L48.108 56.5228L47.915 56.5891L47.719 56.6538L47.52 56.7171L47.3179 56.7788L47.1126 56.839L46.904 56.8978L46.6921 56.955L46.4767 57.0108L46.2576 57.0651L46.0349 57.1179L45.8084 57.1692L45.5779 57.219L45.3433 57.2674L45.1045 57.3143L44.8612 57.3597L44.6133 57.4037L44.3606 57.4462L44.1028 57.4872L43.8398 57.5268L43.5713 57.565L43.297 57.6017L43.0165 57.6369L42.7296 57.6707L42.4358 57.7031L42.1347 57.734L41.8258 57.7634L41.5086 57.7914L41.1824 57.818L40.8466 57.8431L40.5003 57.8668L40.1425 57.8891L39.7722 57.9099L39.3881 57.9293L38.9885 57.9473L38.5716 57.9638L38.1351 57.9789L37.6758 57.9926L37.1902 58.0049L36.6731 58.0157L36.1177 58.0251L35.514 58.033L34.8471 58.0396L34.0918 58.0447L33.1998 58.0483L32.0502 58.0506L29.8912 58.0514L26.3496 58.0508L25.1334 58.0488L24.2118 58.0453L23.4389 58.0405L22.76 58.0342L22.1475 58.0264L21.5851 58.0173L21.0624 58.0067L20.5721 57.9947L20.109 57.9812L19.669 57.9663L19.2492 57.95L18.847 57.9323L18.4605 57.9131L18.0881 57.8925L17.7284 57.8705L17.3804 57.847L17.0429 57.8221L16.7153 57.7958L16.3967 57.768L16.0865 57.7387L15.7842 57.7081L15.4893 57.676L15.2013 57.6424L14.9198 57.6074L14.6445 57.5709L14.3751 57.533L14.1112 57.4937L13.8526 57.4528L13.5991 57.4106L13.3505 57.3668L13.1065 57.3216L12.8669 57.275L12.6317 57.2268L12.4005 57.1772L12.1734 57.1261L11.9501 57.0736L11.7305 57.0195L11.5145 56.964L11.302 56.907L11.0929 56.8485L10.8871 56.7885L10.6845 56.727L10.485 56.664L10.2885 56.5995L10.095 56.5335L9.9044 56.466L9.71662 56.3969L9.5316 56.3263L9.34929 56.2542L9.16962 56.1806L8.99254 56.1054L8.81801 56.0287L8.64597 55.9504L8.47638 55.8706L8.3092 55.7892L8.14438 55.7062L7.98189 55.6217L7.82169 55.5355L7.66374 55.4478L7.50801 55.3585L7.35446 55.2676L7.20308 55.175L7.05382 55.0809L6.90666 54.9851L6.76157 54.8876L6.61853 54.7886L6.4775 54.6878L6.33848 54.5854L6.20143 54.4813L6.06634 54.3755L5.93317 54.2681L5.80192 54.1589L5.67256 54.048L5.54508 53.9353L5.41946 53.8209L5.29567 53.7048L5.17371 53.5868L5.05356 53.4671L4.9352 53.3456L4.81863 53.2222L4.70381 53.0971L4.59075 52.97L4.47942 52.8411L4.36983 52.7103L4.26194 52.5776L4.15576 52.443L4.05127 52.3064L3.94846 52.1678L3.84733 52.0273L3.74785 51.8847L3.65002 51.7402L3.55384 51.5935L3.45929 51.4447L3.36636 51.2939L3.27505 51.1408L3.18535 50.9856L3.09724 50.8282L3.01073 50.6686L2.92581 50.5066L2.84246 50.3424L2.76069 50.1757L2.68048 50.0067L2.60183 49.8353L2.52473 49.6613L2.44918 49.4849L2.37518 49.3058L2.30271 49.1242L2.23177 48.9398L2.16235 48.7527L2.09446 48.5627L2.02809 48.3699L1.96322 48.1742L1.89987 47.9754L1.83801 47.7736L1.77766 47.5685L1.7188 47.3602L1.66144 47.1485L1.60556 46.9334L1.55117 46.7147L1.49826 46.4923L1.44682 46.266L1.39686 46.0359L1.34838 45.8016L1.30136 45.5631L1.25581 45.3202L1.21172 45.0727L1.1691 44.8203L1.12793 44.563L1.08822 44.3004L1.04996 44.0324L1.01316 43.7585L0.9778 43.4785L0.943894 43.1921L0.911433 42.8989L0.880417 42.5984L0.850844 42.2901L0.822713 41.9736L0.796021 41.6482L0.770767 41.3131L0.74695 40.9677L0.72457 40.6109L0.703623 40.2417L0.684111 39.8587L0.666031 39.4604L0.649382 39.045L0.634165 38.6101L0.620377 38.1528L0.608018 37.6694L0.597089 37.155L0.587587 36.6029L0.579513 36.0036L0.572867 35.3425L0.567647 34.5955L0.563854 33.7172L0.561487 32.597L0.560547 30.6641L0.561033 26.9101L0.562945 25.6556L0.566284 24.7182L0.571049 23.936L0.577241 23.2508L0.584861 22.6337L0.593907 22.0678L0.604382 21.5422L0.616285 21.0496L0.629618 20.5844L0.64438 20.1427L0.660572 19.7214L0.678196 19.3178L0.697252 18.9302L0.717742 18.5567L0.739666 18.1961L0.763025 17.8471L0.78782 17.5089L0.814054 17.1805L0.841727 16.8612L0.870841 16.5503L0.901397 16.2474L0.933397 15.9519L0.966843 15.6634L1.00174 15.3814L1.03808 15.1056L1.07587 14.8357L1.11512 14.5714L1.15582 14.3125L1.19799 14.0586L1.24161 13.8096L1.28669 13.5652L1.33324 13.3253L1.38126 13.0897L1.43075 12.8582L1.48171 12.6308L1.53415 12.4072L1.58807 12.1873L1.64348 11.971L1.70037 11.7582L1.75875 11.5489L1.81863 11.3428L1.88 11.1399L1.94288 10.9402L2.00726 10.7435L2.07315 10.5497L2.14056 10.3589L2.20949 10.1709L2.27994 9.98567L2.35193 9.80314L2.42544 9.62326L2.5005 9.44598L2.5771 9.27125L2.65526 9.09901L2.73497 8.92923L2.81624 8.76186L2.89909 8.59685L2.98351 8.43418L3.06951 8.27379L3.15711 8.11567L3.2463 7.95976L3.3371 7.80605L3.42951 7.65449L3.52355 7.50506L3.61921 7.35773L3.71651 7.21248L3.81546 7.06928L3.91607 6.92809L4.01834 6.78891L4.1223 6.65171L4.22794 6.51646L4.33528 6.38314L4.44433 6.25174L4.5551 6.12223L4.66761 5.9946L4.78186 5.86883L4.89788 5.7449L5.01567 5.62279L5.13525 5.5025L5.25663 5.384L5.37983 5.26728L5.50487 5.15232L5.63176 5.03912L5.76051 4.92766L5.89116 4.81792L6.02371 4.7099L6.15819 4.60359L6.29461 4.49896L6.43301 4.39602L6.57339 4.29475L6.71578 4.19514L6.86022 4.09719L7.00672 4.00087L7.15531 3.90619L7.30601 3.81313L7.45886 3.72169L7.61389 3.63186L7.77113 3.54363L7.93061 3.457L8.09237 3.37194L8.25644 3.28847L8.42287 3.20657L8.59169 3.12624L8.76294 3.04747L8.93667 2.97025L9.11293 2.89458L9.29177 2.82045L9.47324 2.74785L9.65739 2.67679L9.84428 2.60726L10.034 2.53924L10.2266 2.47275L10.4221 2.40776L10.6206 2.34429L10.8222 2.28232L11.027 2.22184L11.235 2.16287L11.4464 2.10538L11.6613 2.04939L11.8797 1.99488L12.1018 1.94185L12.3278 1.89029L12.5576 1.84022L12.7915 1.79162L13.0297 1.74448L13.2723 1.69881L13.5194 1.65461L13.7713 1.61187L14.0283 1.57058L14.2904 1.53076L14.558 1.49238L14.8314 1.45546L15.1109 1.41999L15.3968 1.38597L15.6895 1.3534L15.9894 1.32227L16.297 1.29258L16.6128 1.26433L16.9375 1.23752L17.2718 1.21216L17.6164 1.18822L17.9722 1.16573L18.3404 1.14467L18.7222 1.12504L19.1192 1.10685L19.5332 1.09009L19.9665 1.07475L20.4219 1.06085L20.903 1.04838L21.4147 1.03734L21.9635 1.02772L22.5586 1.01953L23.2141 1.01277L23.9529 1.00744L24.8181 1.00353L25.9112 1.00105L27.692 1L31.5749 1.00037L32.8717 1.00217L33.8259 1.0054L34.6178 1.01005L35.3094 1.01613L35.9312 1.02363L36.5007 1.03257L37.0292 1.04293L37.5242 1.05472L37.9914 1.06793L38.4348 1.08258L38.8577 1.09866L39.2626 1.11617L39.6514 1.13511L40.026 1.15549L40.3876 1.1773L40.7374 1.20054L41.0765 1.22522L41.4057 1.25134L41.7257 1.2789L42.0371 1.3079L42.3407 1.33834L42.6367 1.37023L42.9258 1.40356L43.2083 1.43834L43.4846 1.47456L43.7549 1.51224L44.0197 1.55137L44.279 1.59196L44.5333 1.634L44.7827 1.67751L45.0275 1.72248L45.2677 1.76891L45.5036 1.81681L45.7354 1.86618L45.9632 1.91703L46.1871 1.96935L46.4073 2.02316L46.6238 2.07844L46.8369 2.13521L47.0465 2.19348L47.2529 2.25323L47.456 2.31449L47.656 2.37725L47.8529 2.44151L48.0469 2.50728L48.2379 2.57457L48.4262 2.64338L48.6116 2.71371L48.7944 2.78557L48.9745 2.85896L49.1519 2.9339L49.3269 3.01038L49.4993 3.08841L49.6693 3.168L49.8368 3.24915L50.002 3.33187L50.1649 3.41616L50.3255 3.50204L50.4838 3.58951L50.6398 3.67857L50.7937 3.76924L50.9455 3.86153L51.0951 3.95543L51.2426 4.05096L51.388 4.14813L51.5313 4.24695L51.6727 4.34743L51.812 4.44957L51.9494 4.55339L52.0848 4.65889L52.2183 4.7661L52.3498 4.87501L52.4795 4.98565L52.6072 5.09802L52.7332 5.21213L52.8572 5.32801L52.9795 5.44565L53.0999 5.56509L53.2186 5.68633L53.3354 5.80938L53.4505 5.93427L53.5639 6.06102L53.6755 6.18962L53.7853 6.32012L53.8935 6.45252L53.9999 6.58684L54.1047 6.72311L54.2078 6.86135L54.3092 7.00157L54.4089 7.1438L54.507 7.28808L54.6035 7.43441L54.6983 7.58283L54.7915 7.73337L54.883 7.88605L54.973 8.0409L55.0613 8.19796L55.1481 8.35726L55.2333 8.51884L55.3169 8.68273L55.3989 8.84896L55.4794 9.01759L55.5583 9.18864L55.6356 9.36218L55.7114 9.53824L55.7856 9.71687L55.8584 9.89812L55.9295 10.0821L55.9992 10.2687L56.0673 10.4582L56.134 10.6505L56.1991 10.8458L56.2627 11.0441L56.3247 11.2455L56.3853 11.45L56.4444 11.6578L56.502 11.8689L56.5581 12.0835L56.6128 12.3016L56.6659 12.5235L56.7176 12.7491L56.7678 12.9786L56.8165 13.2122L56.8638 13.45L56.9095 13.6922L56.9539 13.939L56.9967 14.1905L57.0381 14.4471L57.0781 14.7088L57.1166 14.976L57.1536 15.2489L57.1892 15.5279L57.2233 15.8132L57.256 16.1053L57.2872 16.4047L57.3171 16.7116L57.3454 17.0268L57.3723 17.3508L57.3978 17.6842L57.4219 18.0279L57.4445 18.3829L57.4656 18.75L57.4854 19.1307L57.5037 19.5265L57.5206 19.939L57.536 20.3707L57.55 20.8242L57.5626 21.3031L57.5738 21.8121L57.5835 22.3577L57.5918 22.9487L57.5987 23.5987L57.6041 24.3297L57.6081 25.1824L57.6107 26.2502L57.6119 27.9157L57.612 29.5257Z" fill="#767676"/>
<path fill-rule="evenodd" clip-rule="evenodd" d="M57.612 29.5257L57.6113 32.3782L57.6091 33.5597L57.6056 34.4661L57.6006 35.2301L57.5941 35.9029L57.5863 36.5109L57.577 37.0698L57.5663 37.5897L57.5542 38.0776L57.5406 38.5388L57.5256 38.9771L57.5092 39.3954L57.4914 39.7963L57.4721 40.1816L57.4514 40.553L57.4292 40.9117L57.4056 41.2588L57.3806 41.5955L57.3541 41.9224L57.3262 42.2403L57.2969 42.5498L57.2661 42.8515L57.2339 43.1459L57.2002 43.4333L57.1651 43.7143L57.1285 43.9891L57.0905 44.2581L57.051 44.5215L57.0101 44.7797L56.9677 45.0328L56.9238 45.2811L56.8785 45.5247L56.8317 45.7639L56.7835 45.9988L56.7337 46.2296L56.6825 46.4565L56.6299 46.6795L56.5757 46.8988L56.5201 47.1145L56.4629 47.3267L56.4043 47.5356L56.3442 47.7411L56.2826 47.9435L56.2195 48.1427L56.1549 48.339L56.0887 48.5322L56.0211 48.7226L55.9519 48.9102L55.8812 49.095L55.809 49.2771L55.7352 49.4565L55.6599 49.6334L55.5831 49.8077L55.5047 49.9796L55.4247 50.149L55.3432 50.316L55.2601 50.4806L55.1754 50.6429L55.0891 50.8029L55.0013 50.9607L54.9119 51.1163L54.8208 51.2696L54.7281 51.4208L54.6338 51.5699L54.5379 51.7169L54.4403 51.8619L54.3411 52.0047L54.2403 52.1456L54.1377 52.2845L54.0335 52.4214L53.9276 52.5563L53.82 52.6893L53.7107 52.8204L53.5996 52.9496L53.4868 53.077L53.3723 53.2024L53.256 53.3261L53.1379 53.4479L53.0181 53.5679L52.8964 53.6861L52.7729 53.8025L52.6476 53.9172L52.5204 54.0301L52.3913 54.1413L52.2604 54.2508L52.1275 54.3585L51.9927 54.4646L51.856 54.5689L51.7173 54.6716L51.5766 54.7726L51.4339 54.872L51.2891 54.9697L51.1423 55.0657L50.9933 55.1601L50.8423 55.2529L50.6891 55.3441L50.5337 55.4337L50.3761 55.5217L50.2163 55.608L50.0542 55.6928L49.8897 55.7761L49.7229 55.8577L49.5537 55.9378L49.3821 56.0163L49.2079 56.0933L49.0313 56.1687L48.852 56.2426L48.6701 56.315L48.4855 56.3858L48.2982 56.4551L48.108 56.5228L47.915 56.5891L47.719 56.6538L47.52 56.7171L47.3179 56.7788L47.1126 56.839L46.904 56.8978L46.6921 56.955L46.4767 57.0108L46.2576 57.0651L46.0349 57.1179L45.8084 57.1692L45.5779 57.219L45.3433 57.2674L45.1045 57.3143L44.8612 57.3597L44.6133 57.4037L44.3606 57.4462L44.1028 57.4872L43.8398 57.5268L43.5713 57.565L43.297 57.6017L43.0165 57.6369L42.7296 57.6707L42.4358 57.7031L42.1347 57.734L41.8258 57.7634L41.5086 57.7914L41.1824 57.818L40.8466 57.8431L40.5003 57.8668L40.1425 57.8891L39.7722 57.9099L39.3881 57.9293L38.9885 57.9473L38.5716 57.9638L38.1351 57.9789L37.6758 57.9926L37.1902 58.0049L36.6731 58.0157L36.1177 58.0251L35.514 58.033L34.8471 58.0396L34.0918 58.0447L33.1998 58.0483L32.0502 58.0506L29.8912 58.0514L26.3496 58.0508L25.1334 58.0488L24.2118 58.0453L23.4389 58.0405L22.76 58.0342L22.1475 58.0264L21.5851 58.0173L21.0624 58.0067L20.5721 57.9947L20.109 57.9812L19.669 57.9663L19.2492 57.95L18.847 57.9323L18.4605 57.9131L18.0881 57.8925L17.7284 57.8705L17.3804 57.847L17.0429 57.8221L16.7153 57.7958L16.3967 57.768L16.0865 57.7387L15.7842 57.7081L15.4893 57.676L15.2013 57.6424L14.9198 57.6074L14.6445 57.5709L14.3751 57.533L14.1112 57.4937L13.8526 57.4528L13.5991 57.4106L13.3505 57.3668L13.1065 57.3216L12.8669 57.275L12.6317 57.2268L12.4005 57.1772L12.1734 57.1261L11.9501 57.0736L11.7305 57.0195L11.5145 56.964L11.302 56.907L11.0929 56.8485L10.8871 56.7885L10.6845 56.727L10.485 56.664L10.2885 56.5995L10.095 56.5335L9.9044 56.466L9.71662 56.3969L9.5316 56.3263L9.34929 56.2542L9.16962 56.1806L8.99254 56.1054L8.81801 56.0287L8.64597 55.9504L8.47638 55.8706L8.3092 55.7892L8.14438 55.7062L7.98189 55.6217L7.82169 55.5355L7.66374 55.4478L7.50801 55.3585L7.35446 55.2676L7.20308 55.175L7.05382 55.0809L6.90666 54.9851L6.76157 54.8876L6.61853 54.7886L6.4775 54.6878L6.33848 54.5854L6.20143 54.4813L6.06634 54.3755L5.93317 54.2681L5.80192 54.1589L5.67256 54.048L5.54508 53.9353L5.41946 53.8209L5.29567 53.7048L5.17371 53.5868L5.05356 53.4671L4.9352 53.3456L4.81863 53.2222L4.70381 53.0971L4.59075 52.97L4.47942 52.8411L4.36983 52.7103L4.26194 52.5776L4.15576 52.443L4.05127 52.3064L3.94846 52.1678L3.84733 52.0273L3.74785 51.8847L3.65002 51.7402L3.55384 51.5935L3.45929 51.4447L3.36636 51.2939L3.27505 51.1408L3.18535 50.9856L3.09724 50.8282L3.01073 50.6686L2.92581 50.5066L2.84246 50.3424L2.76069 50.1757L2.68048 50.0067L2.60183 49.8353L2.52473 49.6613L2.44918 49.4849L2.37518 49.3058L2.30271 49.1242L2.23177 48.9398L2.16235 48.7527L2.09446 48.5627L2.02809 48.3699L1.96322 48.1742L1.89987 47.9754L1.83801 47.7736L1.77766 47.5685L1.7188 47.3602L1.66144 47.1485L1.60556 46.9334L1.55117 46.7147L1.49826 46.4923L1.44682 46.266L1.39686 46.0359L1.34838 45.8016L1.30136 45.5631L1.25581 45.3202L1.21172 45.0727L1.1691 44.8203L1.12793 44.563L1.08822 44.3004L1.04996 44.0324L1.01316 43.7585L0.9778 43.4785L0.943894 43.1921L0.911433 42.8989L0.880417 42.5984L0.850844 42.2901L0.822713 41.9736L0.796021 41.6482L0.770767 41.3131L0.74695 40.9677L0.72457 40.6109L0.703623 40.2417L0.684111 39.8587L0.666031 39.4604L0.649382 39.045L0.634165 38.6101L0.620377 38.1528L0.608018 37.6694L0.597089 37.155L0.587587 36.6029L0.579513 36.0036L0.572867 35.3425L0.567647 34.5955L0.563854 33.7172L0.561487 32.597L0.560547 30.6641L0.561033 26.9101L0.562945 25.6556L0.566284 24.7182L0.571049 23.936L0.577241 23.2508L0.584861 22.6337L0.593907 22.0678L0.604382 21.5422L0.616285 21.0496L0.629618 20.5844L0.64438 20.1427L0.660572 19.7214L0.678196 19.3178L0.697252 18.9302L0.717742 18.5567L0.739666 18.1961L0.763025 17.8471L0.78782 17.5089L0.814054 17.1805L0.841727 16.8612L0.870841 16.5503L0.901397 16.2474L0.933397 15.9519L0.966843 15.6634L1.00174 15.3814L1.03808 15.1056L1.07587 14.8357L1.11512 14.5714L1.15582 14.3125L1.19799 14.0586L1.24161 13.8096L1.28669 13.5652L1.33324 13.3253L1.38126 13.0897L1.43075 12.8582L1.48171 12.6308L1.53415 12.4072L1.58807 12.1873L1.64348 11.971L1.70037 11.7582L1.75875 11.5489L1.81863 11.3428L1.88 11.1399L1.94288 10.9402L2.00726 10.7435L2.07315 10.5497L2.14056 10.3589L2.20949 10.1709L2.27994 9.98567L2.35193 9.80314L2.42544 9.62326L2.5005 9.44598L2.5771 9.27125L2.65526 9.09901L2.73497 8.92923L2.81624 8.76186L2.89909 8.59685L2.98351 8.43418L3.06951 8.27379L3.15711 8.11567L3.2463 7.95976L3.3371 7.80605L3.42951 7.65449L3.52355 7.50506L3.61921 7.35773L3.71651 7.21248L3.81546 7.06928L3.91607 6.92809L4.01834 6.78891L4.1223 6.65171L4.22794 6.51646L4.33528 6.38314L4.44433 6.25174L4.5551 6.12223L4.66761 5.9946L4.78186 5.86883L4.89788 5.7449L5.01567 5.62279L5.13525 5.5025L5.25663 5.384L5.37983 5.26728L5.50487 5.15232L5.63176 5.03912L5.76051 4.92766L5.89116 4.81792L6.02371 4.7099L6.15819 4.60359L6.29461 4.49896L6.43301 4.39602L6.57339 4.29475L6.71578 4.19514L6.86022 4.09719L7.00672 4.00087L7.15531 3.90619L7.30601 3.81313L7.45886 3.72169L7.61389 3.63186L7.77113 3.54363L7.93061 3.457L8.09237 3.37194L8.25644 3.28847L8.42287 3.20657L8.59169 3.12624L8.76294 3.04747L8.93667 2.97025L9.11293 2.89458L9.29177 2.82045L9.47324 2.74785L9.65739 2.67679L9.84428 2.60726L10.034 2.53924L10.2266 2.47275L10.4221 2.40776L10.6206 2.34429L10.8222 2.28232L11.027 2.22184L11.235 2.16287L11.4464 2.10538L11.6613 2.04939L11.8797 1.99488L12.1018 1.94185L12.3278 1.89029L12.5576 1.84022L12.7915 1.79162L13.0297 1.74448L13.2723 1.69881L13.5194 1.65461L13.7713 1.61187L14.0283 1.57058L14.2904 1.53076L14.558 1.49238L14.8314 1.45546L15.1109 1.41999L15.3968 1.38597L15.6895 1.3534L15.9894 1.32227L16.297 1.29258L16.6128 1.26433L16.9375 1.23752L17.2718 1.21216L17.6164 1.18822L17.9722 1.16573L18.3404 1.14467L18.7222 1.12504L19.1192 1.10685L19.5332 1.09009L19.9665 1.07475L20.4219 1.06085L20.903 1.04838L21.4147 1.03734L21.9635 1.02772L22.5586 1.01953L23.2141 1.01277L23.9529 1.00744L24.8181 1.00353L25.9112 1.00105L27.692 1L31.5749 1.00037L32.8717 1.00217L33.8259 1.0054L34.6178 1.01005L35.3094 1.01613L35.9312 1.02363L36.5007 1.03257L37.0292 1.04293L37.5242 1.05472L37.9914 1.06793L38.4348 1.08258L38.8577 1.09866L39.2626 1.11617L39.6514 1.13511L40.026 1.15549L40.3876 1.1773L40.7374 1.20054L41.0765 1.22522L41.4057 1.25134L41.7257 1.2789L42.0371 1.3079L42.3407 1.33834L42.6367 1.37023L42.9258 1.40356L43.2083 1.43834L43.4846 1.47456L43.7549 1.51224L44.0197 1.55137L44.279 1.59196L44.5333 1.634L44.7827 1.67751L45.0275 1.72248L45.2677 1.76891L45.5036 1.81681L45.7354 1.86618L45.9632 1.91703L46.1871 1.96935L46.4073 2.02316L46.6238 2.07844L46.8369 2.13521L47.0465 2.19348L47.2529 2.25323L47.456 2.31449L47.656 2.37725L47.8529 2.44151L48.0469 2.50728L48.2379 2.57457L48.4262 2.64338L48.6116 2.71371L48.7944 2.78557L48.9745 2.85896L49.1519 2.9339L49.3269 3.01038L49.4993 3.08841L49.6693 3.168L49.8368 3.24915L50.002 3.33187L50.1649 3.41616L50.3255 3.50204L50.4838 3.58951L50.6398 3.67857L50.7937 3.76924L50.9455 3.86153L51.0951 3.95543L51.2426 4.05096L51.388 4.14813L51.5313 4.24695L51.6727 4.34743L51.812 4.44957L51.9494 4.55339L52.0848 4.65889L52.2183 4.7661L52.3498 4.87501L52.4795 4.98565L52.6072 5.09802L52.7332 5.21213L52.8572 5.32801L52.9795 5.44565L53.0999 5.56509L53.2186 5.68633L53.3354 5.80938L53.4505 5.93427L53.5639 6.06102L53.6755 6.18962L53.7853 6.32012L53.8935 6.45252L53.9999 6.58684L54.1047 6.72311L54.2078 6.86135L54.3092 7.00157L54.4089 7.1438L54.507 7.28808L54.6035 7.43441L54.6983 7.58283L54.7915 7.73337L54.883 7.88605L54.973 8.0409L55.0613 8.19796L55.1481 8.35726L55.2333 8.51884L55.3169 8.68273L55.3989 8.84896L55.4794 9.01759L55.5583 9.18864L55.6356 9.36218L55.7114 9.53824L55.7856 9.71687L55.8584 9.89812L55.9295 10.0821L55.9992 10.2687L56.0673 10.4582L56.134 10.6505L56.1991 10.8458L56.2627 11.0441L56.3247 11.2455L56.3853 11.45L56.4444 11.6578L56.502 11.8689L56.5581 12.0835L56.6128 12.3016L56.6659 12.5235L56.7176 12.7491L56.7678 12.9786L56.8165 13.2122L56.8638 13.45L56.9095 13.6922L56.9539 13.939L56.9967 14.1905L57.0381 14.4471L57.0781 14.7088L57.1166 14.976L57.1536 15.2489L57.1892 15.5279L57.2233 15.8132L57.256 16.1053L57.2872 16.4047L57.3171 16.7116L57.3454 17.0268L57.3723 17.3508L57.3978 17.6842L57.4219 18.0279L57.4445 18.3829L57.4656 18.75L57.4854 19.1307L57.5037 19.5265L57.5206 19.939L57.536 20.3707L57.55 20.8242L57.5626 21.3031L57.5738 21.8121L57.5835 22.3577L57.5918 22.9487L57.5987 23.5987L57.6041 24.3297L57.6081 25.1824L57.6107 26.2502L57.6119 27.9157L57.612 29.5257Z" stroke="black" stroke-opacity="0.04" stroke-width="0.594286"/>
</g>
<path d="M38.5957 29.526L39.4362 28.6855L40.2766 29.526L39.4362 30.3664L38.5957 29.526ZM20.7671 30.7145C20.1107 30.7145 19.5786 30.1824 19.5786 29.526C19.5786 28.8695 20.1107 28.3374 20.7671 28.3374V30.7145ZM32.3047 21.5541L39.4362 28.6855L37.7553 30.3664L30.6238 23.235L32.3047 21.5541ZM39.4362 30.3664L32.3047 37.4978L30.6238 35.8169L37.7553 28.6855L39.4362 30.3664ZM38.5957 30.7145H20.7671V28.3374H38.5957V30.7145Z" fill="white"/>
<defs>
<filter id="filter0_b_155_4839" x="-4.49061" y="-4.05116" width="67.1541" height="67.1541" filterUnits="userSpaceOnUse" color-interpolation-filters="sRGB">
<feFlood flood-opacity="0" result="BackgroundImageFix"/>
<feGaussianBlur in="BackgroundImageFix" stdDeviation="2.37714"/>
<feComposite in2="SourceAlpha" operator="in" result="effect1_backgroundBlur_155_4839"/>
<feBlend mode="normal" in="SourceGraphic" in2="effect1_backgroundBlur_155_4839" result="shape"/>
</filter>
</defs>
</svg>
