<svg width="167" height="50" viewBox="0 0 167 50" fill="none" xmlns="http://www.w3.org/2000/svg">
<rect x="0.713867" y="0.857422" width="165.857" height="49.1429" rx="6.14286" fill="white"/>
<path d="M84.4236 27.5802C81.534 27.5802 79.1789 29.7781 79.1789 32.8053C79.1789 35.8141 81.534 38.0305 84.4236 38.0305C87.3145 38.0305 89.6696 35.8141 89.6696 32.8053C89.6684 29.7781 87.3132 27.5802 84.4236 27.5802ZM84.4236 35.9738C82.84 35.9738 81.4751 34.6679 81.4751 32.8066C81.4751 30.9256 82.8412 29.6393 84.4236 29.6393C86.0073 29.6393 87.3722 30.9256 87.3722 32.8066C87.3722 34.6666 86.0073 35.9738 84.4236 35.9738ZM72.9807 27.5802C70.0911 27.5802 67.7359 29.7781 67.7359 32.8053C67.7359 35.8141 70.0911 38.0305 72.9807 38.0305C75.8715 38.0305 78.2267 35.8141 78.2267 32.8053C78.2267 29.7781 75.8715 27.5802 72.9807 27.5802ZM72.9807 35.9738C71.3971 35.9738 70.0321 34.6679 70.0321 32.8066C70.0321 30.9256 71.3983 29.6393 72.9807 29.6393C74.5643 29.6393 75.9293 30.9256 75.9293 32.8066C75.9305 34.6666 74.5643 35.9738 72.9807 35.9738ZM59.3706 29.1847V31.4011H64.6756C64.5171 32.6481 64.1018 33.5585 63.4679 34.1912C62.6963 34.9627 61.4887 35.8141 59.3706 35.8141C56.1051 35.8141 53.5521 33.1813 53.5521 29.9157C53.5521 26.6502 56.1051 24.0174 59.3706 24.0174C61.1324 24.0174 62.4187 24.7103 63.3684 25.601L64.9323 24.037C63.6055 22.7704 61.8449 21.801 59.3706 21.801C54.8974 21.801 51.1367 25.4425 51.1367 29.9157C51.1367 34.389 54.8974 38.0305 59.3706 38.0305C61.7847 38.0305 63.6067 37.238 65.0306 35.7539C66.4951 34.2895 66.9509 32.2304 66.9509 30.5681C66.9509 30.0546 66.9116 29.5791 66.8317 29.1835H59.3706V29.1847ZM115.035 30.906C114.6 29.7388 113.273 27.5802 110.561 27.5802C107.87 27.5802 105.632 29.6983 105.632 32.8053C105.632 35.7343 107.85 38.0305 110.818 38.0305C113.213 38.0305 114.599 36.566 115.174 35.7146L113.392 34.5266C112.799 35.3976 111.987 35.9714 110.818 35.9714C109.651 35.9714 108.819 35.4369 108.285 34.3877L115.272 31.4981L115.035 30.906ZM107.909 32.6481C107.85 30.6283 109.473 29.6 110.641 29.6C111.552 29.6 112.323 30.0558 112.581 30.7082L107.909 32.6481ZM102.229 37.7147H104.524V22.3563H102.229V37.7147ZM98.4674 28.7486H98.3888C97.874 28.1343 96.8838 27.5802 95.638 27.5802C93.0249 27.5802 90.6304 29.8764 90.6304 32.8262C90.6304 35.7551 93.0249 38.0317 95.638 38.0317C96.885 38.0317 97.874 37.4776 98.3888 36.8449H98.4674V37.5968C98.4674 39.5957 97.3986 40.6645 95.6773 40.6645C94.2719 40.6645 93.4008 39.6559 93.0445 38.8045L91.0456 39.6362C91.6194 41.0208 93.1428 42.7236 95.6773 42.7236C98.3691 42.7236 100.646 41.14 100.646 37.2798V27.8984H98.4687V28.7486H98.4674ZM95.8358 35.9738C94.2522 35.9738 92.9266 34.647 92.9266 32.8262C92.9266 30.9846 94.2522 29.6393 95.8358 29.6393C97.3986 29.6393 98.6259 30.9846 98.6259 32.8262C98.6259 34.647 97.3986 35.9738 95.8358 35.9738ZM125.79 22.3563H120.297V37.7147H122.588V31.8962H125.788C128.329 31.8962 130.828 30.057 130.828 27.1269C130.828 24.1967 128.33 22.3563 125.79 22.3563ZM125.849 29.7585H122.588V24.4941H125.849C127.562 24.4941 128.535 25.9131 128.535 27.1269C128.535 28.3161 127.562 29.7585 125.849 29.7585ZM140.016 27.5532C138.357 27.5532 136.638 28.2842 135.927 29.9047L137.961 30.7536C138.396 29.9047 139.207 29.627 140.056 29.627C141.241 29.627 142.447 30.3384 142.466 31.6026V31.7611C142.051 31.5239 141.162 31.1689 140.075 31.1689C137.882 31.1689 135.649 32.3741 135.649 34.6261C135.649 36.6815 137.448 38.0047 139.462 38.0047C141.003 38.0047 141.853 37.313 142.386 36.5021H142.465V37.6877H144.679V31.7991C144.68 29.0742 142.643 27.5532 140.016 27.5532ZM139.739 35.9701C138.989 35.9701 137.941 35.5942 137.941 34.6654C137.941 33.4798 139.246 33.0253 140.373 33.0253C141.379 33.0253 141.854 33.2427 142.466 33.5388C142.288 34.9627 141.063 35.9701 139.739 35.9701ZM152.741 27.8886L150.113 34.5475H150.034L147.307 27.8886H144.837L148.927 37.195L146.595 42.3722H148.986L155.29 27.8886H152.741ZM132.093 37.7147H134.385V22.3563H132.093V37.7147Z" fill="#001D26"/>
<path d="M58.9702 13.4416C58.9702 14.4712 58.6655 15.2906 58.0549 15.9025C57.362 16.6298 56.4578 16.9934 55.3472 16.9934C54.2832 16.9934 53.3778 16.6248 52.6345 15.8877C51.89 15.1493 51.5177 14.2353 51.5177 13.1443C51.5177 12.0521 51.89 11.1381 52.6345 10.4009C53.3778 9.66254 54.2832 9.29397 55.3472 9.29397C55.8754 9.29397 56.3804 9.39716 56.8595 9.60234C57.3399 9.80874 57.7244 10.0827 58.0119 10.4255L57.3645 11.0742C56.8767 10.4906 56.2047 10.1994 55.3459 10.1994C54.5695 10.1994 53.8987 10.4722 53.3323 11.0177C52.7659 11.5631 52.4834 12.272 52.4834 13.1431C52.4834 14.0141 52.7659 14.723 53.3323 15.2685C53.8987 15.814 54.5695 16.0867 55.3459 16.0867C56.1691 16.0867 56.8558 15.8128 57.405 15.2636C57.7613 14.9061 57.9677 14.4085 58.023 13.7709H55.3459V12.8851H58.9174C58.9542 13.078 58.9702 13.2635 58.9702 13.4416Z" fill="#001D26"/>
<path d="M64.634 10.3629H61.2776V12.6996H64.3048V13.5854H61.2776V15.9222H64.634V16.8289H60.3304V9.45743H64.634V10.3629Z" fill="#001D26"/>
<path d="M68.628 16.8289H67.6808V10.3629H65.6217V9.45743H70.6871V10.3629H68.628V16.8289Z" fill="#001D26"/>
<path d="M74.3519 16.8289V9.45743H75.2991V16.8289H74.3519Z" fill="#001D26"/>
<path d="M79.4998 16.8289H78.5525V10.3629H76.4935V9.45743H81.5589V10.3629H79.4998V16.8289Z" fill="#001D26"/>
<path d="M91.1476 15.8767C90.4227 16.6212 89.5222 16.9935 88.4447 16.9935C87.3673 16.9935 86.4667 16.6212 85.7431 15.8767C85.0182 15.1322 84.657 14.2206 84.657 13.1431C84.657 12.0657 85.0182 11.1541 85.7431 10.4096C86.4667 9.66505 87.3673 9.29156 88.4447 9.29156C89.516 9.29156 90.4154 9.66628 91.1427 10.4145C91.87 11.1627 92.2336 12.0718 92.2336 13.1431C92.2336 14.2206 91.8712 15.1322 91.1476 15.8767ZM86.4421 15.2587C86.9876 15.8116 87.6547 16.0868 88.4447 16.0868C89.2347 16.0868 89.903 15.8104 90.4473 15.2587C90.9928 14.7059 91.2668 14.0007 91.2668 13.1431C91.2668 12.2856 90.9928 11.5804 90.4473 11.0275C89.903 10.4747 89.2347 10.1995 88.4447 10.1995C87.6547 10.1995 86.9876 10.4759 86.4421 11.0275C85.8979 11.5804 85.6239 12.2856 85.6239 13.1431C85.6239 14.0007 85.8979 14.7059 86.4421 15.2587Z" fill="#001D26"/>
<path d="M93.563 16.8289V9.45743H94.7154L98.2979 15.1912H98.3384L98.2979 13.7709V9.45743H99.2451V16.8289H98.2561L94.5078 10.8162H94.4672L94.5078 12.2365V16.8289H93.563Z" fill="#001D26"/>
<path d="M58.9702 13.4416C58.9702 14.4712 58.6655 15.2906 58.0549 15.9025C57.362 16.6298 56.4578 16.9934 55.3472 16.9934C54.2832 16.9934 53.3778 16.6248 52.6345 15.8877C51.89 15.1493 51.5177 14.2353 51.5177 13.1443C51.5177 12.0521 51.89 11.1381 52.6345 10.4009C53.3778 9.66254 54.2832 9.29397 55.3472 9.29397C55.8754 9.29397 56.3804 9.39716 56.8595 9.60234C57.3399 9.80874 57.7244 10.0827 58.0119 10.4255L57.3645 11.0742C56.8767 10.4906 56.2047 10.1994 55.3459 10.1994C54.5695 10.1994 53.8987 10.4722 53.3323 11.0177C52.7659 11.5631 52.4834 12.272 52.4834 13.1431C52.4834 14.0141 52.7659 14.723 53.3323 15.2685C53.8987 15.814 54.5695 16.0867 55.3459 16.0867C56.1691 16.0867 56.8558 15.8128 57.405 15.2636C57.7613 14.9061 57.9677 14.4085 58.023 13.7709H55.3459V12.8851H58.9174C58.9542 13.078 58.9702 13.2635 58.9702 13.4416Z" stroke="#001D26" stroke-width="0.307143" stroke-miterlimit="10"/>
<path d="M64.634 10.3629H61.2776V12.6996H64.3048V13.5854H61.2776V15.9222H64.634V16.8289H60.3304V9.45743H64.634V10.3629Z" stroke="#001D26" stroke-width="0.307143" stroke-miterlimit="10"/>
<path d="M68.628 16.8289H67.6808V10.3629H65.6217V9.45743H70.6871V10.3629H68.628V16.8289Z" stroke="#001D26" stroke-width="0.307143" stroke-miterlimit="10"/>
<path d="M74.3519 16.8289V9.45743H75.2991V16.8289H74.3519Z" stroke="#001D26" stroke-width="0.307143" stroke-miterlimit="10"/>
<path d="M79.4998 16.8289H78.5525V10.3629H76.4935V9.45743H81.5589V10.3629H79.4998V16.8289Z" stroke="#001D26" stroke-width="0.307143" stroke-miterlimit="10"/>
<path d="M91.1476 15.8767C90.4227 16.6212 89.5222 16.9935 88.4447 16.9935C87.3673 16.9935 86.4667 16.6212 85.7431 15.8767C85.0182 15.1322 84.657 14.2206 84.657 13.1431C84.657 12.0657 85.0182 11.1541 85.7431 10.4096C86.4667 9.66505 87.3673 9.29156 88.4447 9.29156C89.516 9.29156 90.4154 9.66628 91.1427 10.4145C91.87 11.1627 92.2336 12.0718 92.2336 13.1431C92.2336 14.2206 91.8712 15.1322 91.1476 15.8767ZM86.4421 15.2587C86.9876 15.8116 87.6547 16.0868 88.4447 16.0868C89.2347 16.0868 89.903 15.8104 90.4473 15.2587C90.9928 14.7059 91.2668 14.0007 91.2668 13.1431C91.2668 12.2856 90.9928 11.5804 90.4473 11.0275C89.903 10.4747 89.2347 10.1995 88.4447 10.1995C87.6547 10.1995 86.9876 10.4759 86.4421 11.0275C85.8979 11.5804 85.6239 12.2856 85.6239 13.1431C85.6239 14.0007 85.8979 14.7059 86.4421 15.2587Z" stroke="#001D26" stroke-width="0.307143" stroke-miterlimit="10"/>
<path d="M93.563 16.8289V9.45743H94.7154L98.2979 15.1912H98.3384L98.2979 13.7709V9.45743H99.2451V16.8289H98.2561L94.5078 10.8162H94.4672L94.5078 12.2365V16.8289H93.563Z" stroke="#001D26" stroke-width="0.307143" stroke-miterlimit="10"/>
<g filter="url(#filter0_ii_37_1078)">
<path d="M13.5354 10.1184C13.1779 10.4968 12.9666 11.084 12.9666 11.8445V39.0156C12.9666 39.7773 13.1779 40.3633 13.5354 40.7417L13.6263 40.8302L28.8471 25.6094V25.4301V25.2507L13.6263 10.0287L13.5354 10.1184Z" fill="url(#paint0_linear_37_1078)"/>
<path d="M33.9198 30.6847L28.847 25.6095V25.4301V25.2508L33.921 20.1768L34.0353 20.2419L40.0467 23.6573C41.763 24.6328 41.763 26.2287 40.0467 27.2054L34.0353 30.6208L33.9198 30.6847Z" fill="url(#paint1_linear_37_1078)"/>
<g filter="url(#filter1_i_37_1078)">
<path d="M34.0356 30.6195L28.8461 25.4301L13.5356 40.7417C14.1008 41.3413 15.0357 41.415 16.0886 40.8179L34.0356 30.6195Z" fill="url(#paint2_linear_37_1078)"/>
</g>
<path d="M34.0356 20.2407L16.0886 10.0435C15.0357 9.44519 14.1008 9.52014 13.5356 10.1197L28.8473 25.4314L34.0356 20.2407Z" fill="url(#paint3_linear_37_1078)"/>
</g>
<defs>
<filter id="filter0_ii_37_1078" x="12.9666" y="9.63062" width="28.3674" height="31.5997" filterUnits="userSpaceOnUse" color-interpolation-filters="sRGB">
<feFlood flood-opacity="0" result="BackgroundImageFix"/>
<feBlend mode="normal" in="SourceGraphic" in2="BackgroundImageFix" result="shape"/>
<feColorMatrix in="SourceAlpha" type="matrix" values="0 0 0 0 0 0 0 0 0 0 0 0 0 0 0 0 0 0 127 0" result="hardAlpha"/>
<feOffset dy="-0.230357"/>
<feComposite in2="hardAlpha" operator="arithmetic" k2="-1" k3="1"/>
<feColorMatrix type="matrix" values="0 0 0 0 0 0 0 0 0 0 0 0 0 0 0 0 0 0 0.12 0"/>
<feBlend mode="normal" in2="shape" result="effect1_innerShadow_37_1078"/>
<feColorMatrix in="SourceAlpha" type="matrix" values="0 0 0 0 0 0 0 0 0 0 0 0 0 0 0 0 0 0 127 0" result="hardAlpha"/>
<feOffset dy="0.230357"/>
<feComposite in2="hardAlpha" operator="arithmetic" k2="-1" k3="1"/>
<feColorMatrix type="matrix" values="0 0 0 0 1 0 0 0 0 1 0 0 0 0 1 0 0 0 0.25 0"/>
<feBlend mode="normal" in2="effect1_innerShadow_37_1078" result="effect2_innerShadow_37_1078"/>
</filter>
<filter id="filter1_i_37_1078" x="13.5356" y="25.4301" width="20.5" height="15.8003" filterUnits="userSpaceOnUse" color-interpolation-filters="sRGB">
<feFlood flood-opacity="0" result="BackgroundImageFix"/>
<feBlend mode="normal" in="SourceGraphic" in2="BackgroundImageFix" result="shape"/>
<feColorMatrix in="SourceAlpha" type="matrix" values="0 0 0 0 0 0 0 0 0 0 0 0 0 0 0 0 0 0 127 0" result="hardAlpha"/>
<feOffset dy="-0.230357"/>
<feComposite in2="hardAlpha" operator="arithmetic" k2="-1" k3="1"/>
<feColorMatrix type="matrix" values="0 0 0 0 0 0 0 0 0 0 0 0 0 0 0 0 0 0 0.08 0"/>
<feBlend mode="normal" in2="shape" result="effect1_innerShadow_37_1078"/>
</filter>
<linearGradient id="paint0_linear_37_1078" x1="27.4978" y1="11.557" x2="6.87997" y2="32.1749" gradientUnits="userSpaceOnUse">
<stop stop-color="#00A0FF"/>
<stop offset="0.0066" stop-color="#00A1FF"/>
<stop offset="0.2601" stop-color="#00BEFF"/>
<stop offset="0.5122" stop-color="#00D2FF"/>
<stop offset="0.7604" stop-color="#00DFFF"/>
<stop offset="1" stop-color="#00E3FF"/>
</linearGradient>
<linearGradient id="paint1_linear_37_1078" x1="42.2809" y1="25.4301" x2="12.5545" y2="25.4301" gradientUnits="userSpaceOnUse">
<stop stop-color="#FFE000"/>
<stop offset="0.4087" stop-color="#FFBD00"/>
<stop offset="0.7754" stop-color="#FFA500"/>
<stop offset="1" stop-color="#FF9C00"/>
</linearGradient>
<linearGradient id="paint2_linear_37_1078" x1="31.2174" y1="28.2483" x2="3.25693" y2="56.2087" gradientUnits="userSpaceOnUse">
<stop stop-color="#FF3A44"/>
<stop offset="1" stop-color="#C31162"/>
</linearGradient>
<linearGradient id="paint3_linear_37_1078" x1="9.67965" y1="1.07469" x2="22.1648" y2="13.5598" gradientUnits="userSpaceOnUse">
<stop stop-color="#32A071"/>
<stop offset="0.0685" stop-color="#2DA771"/>
<stop offset="0.4762" stop-color="#15CF74"/>
<stop offset="0.8009" stop-color="#06E775"/>
<stop offset="1" stop-color="#00F076"/>
</linearGradient>
</defs>
</svg>
