<svg width="63" height="63" viewBox="0 0 63 63" fill="none" xmlns="http://www.w3.org/2000/svg">
<path fill-rule="evenodd" clip-rule="evenodd" d="M62.8265 31.8757L62.8257 34.9689L62.8234 36.25L62.8195 37.2329L62.8141 38.0613L62.8072 38.7908L62.7986 39.4502L62.7886 40.0562L62.777 40.6199L62.7638 41.149L62.7491 41.6491L62.7329 42.1243L62.7151 42.5779L62.6957 43.0126L62.6748 43.4304L62.6523 43.8331L62.6283 44.222L62.6027 44.5985L62.5756 44.9635L62.5469 45.318L62.5167 45.6627L62.4848 45.9984L62.4515 46.3255L62.4165 46.6447L62.38 46.9564L62.3419 47.2611L62.3022 47.5591L62.261 47.8507L62.2182 48.1364L62.1738 48.4163L62.1278 48.6908L62.0803 48.96L62.0311 49.2242L61.9804 49.4835L61.9281 49.7383L61.8742 49.9886L61.8187 50.2345L61.7615 50.4764L61.7028 50.7142L61.6425 50.9481L61.5805 51.1782L61.517 51.4046L61.4518 51.6275L61.385 51.847L61.3165 52.063L61.2465 52.2758L61.1748 52.4854L61.1014 52.6918L61.0264 52.8952L60.9497 53.0956L60.8714 53.293L60.7914 53.4876L60.7098 53.6794L60.6264 53.8685L60.5414 54.0548L60.4547 54.2385L60.3663 54.4196L60.2762 54.5981L60.1844 54.7741L60.0909 54.9476L59.9956 55.1187L59.8986 55.2873L59.7999 55.4536L59.6994 55.6176L59.5972 55.7793L59.4931 55.9387L59.3874 56.0958L59.2798 56.2508L59.1704 56.4035L59.0592 56.5541L58.9462 56.7025L58.8313 56.8488L58.7147 56.9931L58.5961 57.1352L58.4757 57.2753L58.3534 57.4134L58.2292 57.5495L58.1031 57.6835L57.9751 57.8156L57.8451 57.9457L57.7132 58.0739L57.5793 58.2002L57.4434 58.3245L57.3054 58.447L57.1655 58.5675L57.0235 58.6862L56.8794 58.8031L56.7333 58.9181L56.585 59.0312L56.4346 59.1426L56.282 59.2521L56.1273 59.3598L55.9703 59.4657L55.8111 59.5699L55.6496 59.6723L55.4858 59.7729L55.3197 59.8718L55.1512 59.9689L54.9803 60.0643L54.807 60.158L54.6312 60.2499L54.4529 60.3402L54.272 60.4287L54.0886 60.5155L53.9024 60.6007L53.7136 60.6842L53.522 60.7659L53.3277 60.8461L53.1304 60.9245L52.9303 61.0013L52.7272 61.0764L52.521 61.1499L52.3116 61.2218L52.0991 61.292L51.8833 61.3605L51.6642 61.4275L51.4416 61.4928L51.2154 61.5565L50.9856 61.6186L50.752 61.679L50.5145 61.7379L50.273 61.7951L50.0274 61.8508L49.7774 61.9048L49.5231 61.9573L49.264 62.0081L49.0002 62.0574L48.7314 62.1051L48.4574 62.1512L48.1779 62.1957L47.8928 62.2386L47.6016 62.28L47.3041 62.3198L47 62.358L46.6888 62.3946L46.3703 62.4297L46.0438 62.4632L45.7088 62.4951L45.3649 62.5255L45.0112 62.5543L44.647 62.5816L44.2715 62.6073L43.8836 62.6314L43.4821 62.654L43.0655 62.6751L42.6323 62.6945L42.1802 62.7125L41.7068 62.7288L41.2089 62.7437L40.6823 62.757L40.1215 62.7687L39.5193 62.7789L38.8647 62.7875L38.1415 62.7946L37.3225 62.8001L36.3553 62.8041L35.1087 62.8065L32.7677 62.8074L28.9274 62.8068L27.6085 62.8046L26.6092 62.8008L25.7711 62.7956L25.035 62.7887L24.3708 62.7803L23.761 62.7704L23.1942 62.7589L22.6626 62.7459L22.1604 62.7313L21.6833 62.7152L21.228 62.6975L20.7919 62.6783L20.3728 62.6575L19.969 62.6351L19.579 62.6112L19.2016 62.5858L18.8357 62.5588L18.4804 62.5302L18.1349 62.5001L17.7986 62.4684L17.4708 62.4351L17.151 62.4003L16.8387 62.3639L16.5335 62.3259L16.235 62.2864L15.9428 62.2453L15.6567 62.2026L15.3763 62.1584L15.1014 62.1125L14.8318 62.0651L14.5672 62.0161L14.3075 61.9655L14.0524 61.9133L13.8018 61.8595L13.5554 61.8041L13.3133 61.7471L13.0752 61.6885L12.841 61.6283L12.6106 61.5665L12.3838 61.5031L12.1606 61.438L11.9409 61.3713L11.7246 61.303L11.5116 61.2331L11.3018 61.1615L11.0951 61.0883L10.8915 61.0134L10.6908 60.9369L10.4931 60.8587L10.2983 60.7788L10.1063 60.6973L9.91706 60.6141L9.73051 60.5292L9.54662 60.4426L9.36533 60.3544L9.18662 60.2644L9.01042 60.1727L8.8367 60.0793L8.66543 59.9842L8.49657 59.8874L8.33008 59.7888L8.16592 59.6884L8.00407 59.5863L7.8445 59.4825L7.68717 59.3768L7.53207 59.2694L7.37915 59.1601L7.2284 59.0491L7.07979 58.9362L6.9333 58.8215L6.78891 58.705L6.64659 58.5866L6.50632 58.4663L6.36808 58.3442L6.23186 58.2201L6.09764 58.0942L5.96539 57.9663L5.83511 57.8365L5.70677 57.7047L5.58035 57.5709L5.45586 57.4352L5.33326 57.2975L5.21254 57.1577L5.0937 57.0158L4.97672 56.8719L4.86158 56.726L4.74828 56.5779L4.6368 56.4276L4.52713 56.2752L4.41927 56.1206L4.31319 55.9638L4.20889 55.8048L4.10637 55.6435L4.0056 55.4799L3.90659 55.314L3.80932 55.1457L3.71379 54.975L3.61998 54.8019L3.52789 54.6263L3.43752 54.4482L3.34884 54.2675L3.26187 54.0842L3.17659 53.8983L3.09299 53.7097L3.01107 53.5184L2.93082 53.3242L2.85223 53.1272L2.77531 52.9273L2.70004 52.7244L2.62642 52.5184L2.55445 52.3094L2.48412 52.0971L2.41542 51.8816L2.34835 51.6627L2.2829 51.4404L2.21908 51.2145L2.15688 50.985L2.09629 50.7517L2.03731 50.5145L1.97993 50.2733L1.92416 50.028L1.86999 49.7784L1.81741 49.5244L1.76643 49.2658L1.71704 49.0024L1.66923 48.734L1.62301 48.4604L1.57837 48.1814L1.53531 47.8966L1.49383 47.6059L1.45392 47.309L1.41558 47.0054L1.37881 46.6948L1.34362 46.3769L1.30998 46.051L1.27792 45.7168L1.24741 45.3736L1.21847 45.0207L1.19109 44.6574L1.16526 44.2828L1.14099 43.8959L1.11828 43.4955L1.09712 43.0802L1.07752 42.6484L1.05946 42.1979L1.04296 41.7263L1.02801 41.2305L1.01461 40.7063L1.00276 40.1485L0.992456 39.5499L0.983701 38.9L0.976494 38.1831L0.970834 37.3732L0.966721 36.4208L0.964154 35.2061L0.963135 33.1102L0.963662 29.0396L0.965735 27.6792L0.969356 26.6627L0.974523 25.8146L0.981237 25.0716L0.989499 24.4024L0.999309 23.7888L1.01067 23.2189L1.02357 22.6847L1.03803 22.1803L1.05404 21.7014L1.0716 21.2445L1.09071 20.8069L1.11137 20.3866L1.13359 19.9816L1.15736 19.5905L1.18269 19.2122L1.20958 18.8454L1.23802 18.4893L1.26803 18.143L1.2996 17.806L1.33273 17.4775L1.36743 17.1571L1.4037 16.8442L1.44154 16.5385L1.48094 16.2394L1.52193 15.9468L1.56448 15.6602L1.60862 15.3794L1.65434 15.1041L1.70164 14.8341L1.75052 14.5691L1.801 14.3089L1.85307 14.0535L1.90673 13.8025L1.96199 13.5558L2.01886 13.3134L2.07733 13.0749L2.1374 12.8404L2.19909 12.6097L2.2624 12.3827L2.32733 12.1592L2.39388 11.9392L2.46206 11.7227L2.53187 11.5094L2.60332 11.2993L2.67641 11.0924L2.75116 10.8885L2.82755 10.6876L2.90561 10.4897L2.98532 10.2947L3.06671 10.1024L3.14978 9.91297L3.23452 9.7262L3.32096 9.5421L3.40909 9.36061L3.49892 9.18169L3.59046 9.00529L3.68372 8.83138L3.7787 8.65992L3.87542 8.49086L3.97387 8.32418L4.07408 8.15984L4.17604 7.99781L4.27978 7.83806L4.38528 7.68056L4.49258 7.52527L4.60167 7.37218L4.71257 7.22126L4.82529 7.07248L4.93985 6.92582L5.05624 6.78126L5.17449 6.63878L5.2946 6.49835L5.4166 6.35995L5.54049 6.22357L5.66629 6.08919L5.79402 5.95679L5.92368 5.82634L6.0553 5.69785L6.18889 5.57128L6.32448 5.44664L6.46207 5.32389L6.60168 5.20302L6.74335 5.08403L6.88708 4.9669L7.0329 4.85162L7.18083 4.73817L7.3309 4.62655L7.48312 4.51674L7.63753 4.40872L7.79414 4.30251L7.953 4.19807L8.11412 4.0954L8.27754 3.99449L8.44328 3.89534L8.61139 3.79794L8.78189 3.70226L8.95482 3.60832L9.13022 3.51609L9.30813 3.42558L9.48859 3.33678L9.67165 3.24967L9.85735 3.16425L10.0457 3.08052L10.2369 2.99846L10.4308 2.91808L10.6276 2.83936L10.8272 2.76231L11.0299 2.68691L11.2356 2.61316L11.4444 2.54106L11.6564 2.47059L11.8717 2.40176L12.0903 2.33456L12.3124 2.26899L12.538 2.20504L12.7672 2.14271L13.0002 2.08199L13.237 2.02288L13.4779 1.96538L13.7228 1.90948L13.9721 1.85518L14.2257 1.80247L14.484 1.75136L14.747 1.70185L15.015 1.65391L15.2882 1.60757L15.5668 1.5628L15.851 1.51961L16.1412 1.47801L16.4377 1.43797L16.7407 1.39951L17.0507 1.36262L17.3681 1.32729L17.6933 1.29354L18.0268 1.26135L18.3693 1.23072L18.7214 1.20165L19.0838 1.17414L19.4575 1.14819L19.8434 1.1238L20.2426 1.10096L20.6567 1.07968L21.0871 1.05995L21.536 1.04178L22.0058 1.02515L22.4996 1.01008L23.0214 0.996553L23.5762 0.984578L24.1713 0.974152L24.8166 0.965274L25.5274 0.957943L26.3285 0.95216L27.2667 0.947924L28.452 0.945235L30.3829 0.944092L34.5933 0.944496L35.9995 0.946446L37.0343 0.949943L37.8929 0.954987L38.6428 0.961578L39.3171 0.969717L39.9346 0.979404L40.5077 0.990638L41.0445 1.00342L41.551 1.01776L42.0319 1.03364L42.4904 1.05107L42.9294 1.07006L43.3511 1.0906L43.7572 1.11269L44.1493 1.13634L44.5287 1.16155L44.8964 1.18831L45.2533 1.21663L45.6003 1.24652L45.938 1.27796L46.2671 1.31097L46.5882 1.34554L46.9017 1.38169L47.208 1.4194L47.5075 1.45868L47.8007 1.49954L48.0877 1.54197L48.369 1.58598L48.6447 1.63157L48.9152 1.67875L49.1805 1.72751L49.4411 1.77786L49.6969 1.8298L49.9482 1.88333L50.1952 1.93847L50.438 1.9952L50.6768 2.05354L50.9116 2.11349L51.1426 2.17505L51.3699 2.23823L51.5936 2.30303L51.8139 2.36945L52.0308 2.4375L52.2443 2.50718L52.4546 2.5785L52.6618 2.65147L52.8659 2.72608L53.067 2.80234L53.2652 2.88026L53.4604 2.95985L53.6529 3.0411L53.8426 3.12403L54.0296 3.20864L54.2139 3.29494L54.3956 3.38294L54.5747 3.47264L54.7513 3.56404L54.9254 3.65716L55.0971 3.75201L55.2663 3.84858L55.4332 3.9469L55.5977 4.04697L55.7599 4.14879L55.9198 4.25238L56.0775 4.35775L56.233 4.4649L56.3862 4.57385L56.5373 4.68461L56.6863 4.79719L56.8331 4.91159L56.9778 5.02784L57.1205 5.14594L57.2611 5.2659L57.3996 5.38775L57.5362 5.51149L57.6707 5.63714L57.8033 5.76471L57.9339 5.89422L58.0625 6.02568L58.1892 6.15912L58.314 6.29454L58.4369 6.43197L58.558 6.57143L58.6771 6.71293L58.7944 6.85649L58.9098 7.00215L59.0234 7.14991L59.1352 7.2998L59.2451 7.45185L59.3533 7.60609L59.4596 7.76253L59.5642 7.9212L59.667 8.08214L59.7681 8.24537L59.8674 8.41093L59.9649 8.57885L60.0607 8.74916L60.1548 8.92189L60.2472 9.0971L60.3378 9.27481L60.4268 9.45506L60.514 9.63791L60.5995 9.8234L60.6834 10.0116L60.7656 10.2025L60.8461 10.3962L60.925 10.5927L61.0022 10.7922L61.0777 10.9946L61.1516 11.2L61.2238 11.4086L61.2944 11.6203L61.3634 11.8353L61.4307 12.0537L61.4964 12.2755L61.5605 12.5008L61.6229 12.7297L61.6838 12.9624L61.743 13.199L61.8006 13.4395L61.8567 13.6841L61.9111 13.933L61.9639 14.1863L62.0152 14.4442L62.0648 14.7068L62.1129 14.9744L62.1593 15.2472L62.2042 15.5253L62.2475 15.8091L62.2893 16.0988L62.3294 16.3948L62.368 16.6973L62.405 17.0067L62.4405 17.3235L62.4744 17.648L62.5067 17.9809L62.5374 18.3227L62.5666 18.6739L62.5943 19.0355L62.6203 19.4082L62.6449 19.7931L62.6678 20.1912L62.6892 20.604L62.7091 21.0331L62.7274 21.4805L62.7441 21.9485L62.7593 22.4403L62.773 22.9596L62.7851 23.5116L62.7956 24.1031L62.8046 24.744L62.8121 25.4488L62.818 26.2415L62.8223 27.1661L62.8251 28.324L62.8264 30.13L62.8265 31.8757Z" fill="#F2F2F2"/>
<path d="M22.8733 31.8757L21.962 30.9644L21.0506 31.8757L21.962 32.7871L22.8733 31.8757ZM42.2056 33.1646C42.9174 33.1646 43.4944 32.5875 43.4944 31.8757C43.4944 31.1639 42.9174 30.5869 42.2056 30.5869V33.1646ZM29.6949 23.2315L21.962 30.9644L23.7846 32.7871L31.5175 25.0542L29.6949 23.2315ZM21.962 32.7871L29.6949 40.52L31.5175 38.6973L23.7846 30.9644L21.962 32.7871ZM22.8733 33.1646H42.2056V30.5869H22.8733V33.1646Z" fill="#001D26"/>
</svg>
