<svg width="58" height="59" viewBox="0 0 58 59" fill="none" xmlns="http://www.w3.org/2000/svg">
<g filter="url(#filter0_b_155_4839)">
<path fill-rule="evenodd" clip-rule="evenodd" d="M0.560875 29.5261L0.561589 26.6735L0.56373 25.492L0.567295 24.5856L0.572288 23.8217L0.578708 23.1488L0.586552 22.5408L0.595827 21.9819L0.606531 21.4621L0.618662 20.9741L0.63222 20.5129L0.647211 20.0747L0.663629 19.6563L0.681484 19.2554L0.700766 18.8701L0.721485 18.4988L0.743636 18.1401L0.767223 17.7929L0.792251 17.4563L0.818711 17.1294L0.846616 16.8115L0.875958 16.5019L0.906744 16.2002L0.938976 15.9059L0.972652 15.6184L1.00777 15.3374L1.04435 15.0626L1.08237 14.7936L1.12185 14.5302L1.16279 14.2721L1.20518 14.019L1.24904 13.7707L1.29435 13.527L1.34114 13.2878L1.38939 13.0529L1.43912 12.8221L1.49031 12.5953L1.54299 12.3723L1.59714 12.153L1.65279 11.9373L1.70991 11.725L1.76854 11.5162L1.82865 11.3106L1.89026 11.1083L1.95338 10.909L2.018 10.7128L2.08414 10.5195L2.15179 10.3291L2.22096 10.1416L2.29165 9.95678L2.36388 9.77468L2.43764 9.59522L2.51294 9.41834L2.5898 9.24401L2.6682 9.07217L2.74816 8.90277L2.82968 8.73578L2.91278 8.57115L2.99745 8.40884L3.08371 8.24882L3.17156 8.09105L3.26101 7.93549L3.35206 7.78212L3.44473 7.63091L3.53902 7.48182L3.63494 7.33482L3.73251 7.1899L3.83172 7.04702L3.93259 6.90615L4.03513 6.76729L4.13935 6.6304L4.24527 6.49545L4.35288 6.36244L4.4622 6.23135L4.57325 6.10214L4.68603 5.9748L4.80057 5.84933L4.91686 5.72569L5.03494 5.60387L5.1548 5.48386L5.27647 5.36565L5.39997 5.24921L5.5253 5.13454L5.65249 5.02161L5.78154 4.91043L5.91249 4.80097L6.04535 4.69322L6.18013 4.58717L6.31687 4.48282L6.45558 4.38014L6.59628 4.27914L6.739 4.17979L6.88376 4.0821L7.03059 3.98605L7.17951 3.89162L7.33056 3.79882L7.48376 3.70764L7.63914 3.61807L7.79673 3.53009L7.95657 3.44371L8.1187 3.35891L8.28314 3.27568L8.44994 3.19404L8.61915 3.11395L8.79079 3.03542L8.96492 2.95845L9.14159 2.88303L9.32084 2.80914L9.50274 2.7368L9.68732 2.66598L9.87465 2.59668L10.0648 2.52891L10.2578 2.46266L10.4538 2.39791L10.6528 2.33468L10.8549 2.27294L11.0603 2.21271L11.2688 2.15397L11.4808 2.09672L11.6962 2.04097L11.9152 1.98669L12.1379 1.9339L12.3644 1.88258L12.5949 1.83274L12.8295 1.78437L13.0684 1.73747L13.3117 1.69203L13.5596 1.64806L13.8123 1.60556L14.07 1.56451L14.333 1.52491L14.6015 1.48677L14.8759 1.45008L15.1563 1.41484L15.4433 1.38105L15.7371 1.3487L16.0382 1.3178L16.3471 1.28835L16.6643 1.26033L16.9905 1.23375L17.3263 1.20861L17.6726 1.18491L18.0303 1.16264L18.4006 1.14181L18.7848 1.12241L19.1843 1.10444L19.6012 1.08791L20.0378 1.07281L20.497 1.05913L20.9827 1.04689L21.4998 1.03607L22.0552 1.02668L22.6588 1.01872L23.3257 1.01219L24.0811 1.00708L24.9731 1.00341L26.1227 1.00115L28.2816 1.00032L31.8232 1.00093L33.0395 1.00295L33.961 1.00641L34.734 1.01129L35.4129 1.01759L36.0254 1.02532L36.5878 1.03448L37.1104 1.04507L37.6007 1.05709L38.0639 1.07053L38.5038 1.08541L38.9237 1.10172L39.3259 1.11945L39.7124 1.13863L40.0848 1.15923L40.4444 1.18127L40.7925 1.20474L41.1299 1.22965L41.4576 1.256L41.7762 1.28379L42.0864 1.31301L42.3887 1.34369L42.6836 1.3758L42.9716 1.40937L43.2531 1.44437L43.5284 1.48083L43.7978 1.51874L44.0617 1.55811L44.3202 1.59892L44.5737 1.6412L44.8224 1.68494L45.0664 1.73014L45.3059 1.77681L45.5412 1.82494L45.7723 1.87455L45.9995 1.92563L46.2228 1.97819L46.4424 2.03223L46.6584 2.08775L46.8708 2.14476L47.08 2.20326L47.2858 2.26325L47.4884 2.32475L47.6879 2.38774L47.8843 2.45225L48.0778 2.51826L48.2685 2.58579L48.4562 2.65484L48.6413 2.72542L48.8236 2.79752L49.0032 2.87116L49.1803 2.94634L49.3549 3.02307L49.5269 3.10134L49.6965 3.18118L49.8637 3.26258L50.0285 3.34555L50.191 3.4301L50.3512 3.51623L50.5091 3.60395L50.6648 3.69327L50.8184 3.7842L50.9698 3.87674L51.119 3.9709L51.2662 4.06669L51.4113 4.16413L51.5543 4.26321L51.6954 4.36395L51.8344 4.46636L51.9714 4.57044L52.1065 4.67622L52.2397 4.7837L52.3709 4.89288L52.5003 5.00379L52.6278 5.11644L52.7534 5.23083L52.8772 5.34699L52.9991 5.46492L53.1193 5.58464L53.2377 5.70617L53.3542 5.82952L53.469 5.9547L53.5821 6.08174L53.6934 6.21064L53.803 6.34144L53.9109 6.47415L54.0171 6.60878L54.1216 6.74536L54.2244 6.88391L54.3255 7.02445L54.425 7.16701L54.5228 7.31161L54.619 7.45827L54.7136 7.60703L54.8065 7.7579L54.8978 7.91093L54.9875 8.06613L55.0756 8.22355L55.1621 8.38321L55.247 8.54515L55.3304 8.70941L55.4122 8.87602L55.4924 9.04503L55.571 9.21648L55.6481 9.39041L55.7237 9.56688L55.7977 9.74592L55.8701 9.9276L55.9411 10.112L56.0105 10.2991L56.0784 10.489L56.1448 10.6818L56.2096 10.8776L56.273 11.0763L56.3348 11.2782L56.3952 11.4832L56.4541 11.6916L56.5114 11.9032L56.5673 12.1184L56.6217 12.3371L56.6746 12.5595L56.726 12.7857L56.776 13.0159L56.8245 13.2502L56.8715 13.4887L56.917 13.7316L56.9611 13.9791L57.0038 14.2314L57.0449 14.4888L57.0846 14.7513L57.1229 15.0194L57.1597 15.2933L57.1951 15.5732L57.229 15.8596L57.2614 16.1529L57.2924 16.4534L57.322 16.7616L57.3501 17.0782L57.3768 17.4036L57.4021 17.7386L57.4259 18.0841L57.4483 18.4409L57.4692 18.8101L57.4887 19.1931L57.5068 19.5914L57.5235 20.0068L57.5387 20.4417L57.5525 20.899L57.5648 21.3824L57.5758 21.8967L57.5853 22.4488L57.5933 23.0482L57.6 23.7093L57.6052 24.4562L57.609 25.3345L57.6114 26.4548L57.6123 28.3877L57.6118 32.1416L57.6099 33.3961L57.6066 34.3336L57.6018 35.1158L57.5956 35.801L57.588 36.4181L57.5789 36.984L57.5685 37.5095L57.5566 38.0022L57.5432 38.4673L57.5285 38.909L57.5123 39.3304L57.4947 39.7339L57.4756 40.1216L57.4551 40.4951L57.4332 40.8557L57.4098 41.2046L57.385 41.5429L57.3588 41.8713L57.3311 42.1906L57.302 42.5014L57.2715 42.8043L57.2395 43.0998L57.206 43.3884L57.1711 43.6704L57.1348 43.9461L57.097 44.216L57.0577 44.4803L57.017 44.7393L56.9749 44.9932L56.9312 45.2422L56.8862 45.4866L56.8396 45.7265L56.7916 45.9621L56.7421 46.1935L56.6911 46.421L56.6387 46.6446L56.5848 46.8645L56.5294 47.0807L56.4725 47.2935L56.4141 47.5029L56.3542 47.709L56.2929 47.9118L56.23 48.1116L56.1656 48.3083L56.0997 48.502L56.0323 48.6928L55.9634 48.8809L55.8929 49.0661L55.8209 49.2486L55.7474 49.4285L55.6724 49.6058L55.5957 49.7805L55.5176 49.9527L55.4379 50.1225L55.3566 50.2899L55.2738 50.4549L55.1893 50.6176L55.1033 50.778L55.0157 50.9361L54.9265 51.092L54.8358 51.2457L54.7433 51.3973L54.6493 51.5467L54.5536 51.694L54.4563 51.8393L54.3574 51.9825L54.2568 52.1237L54.1545 52.2628L54.0506 52.4001L53.9449 52.5353L53.8376 52.6686L53.7285 52.8L53.6178 52.9295L53.5052 53.0572L53.391 53.1829L53.275 53.3069L53.1572 53.429L53.0376 53.5493L52.9162 53.6678L52.793 53.7845L52.668 53.8994L52.5411 54.0126L52.4123 54.1241L52.2817 54.2338L52.1491 54.3419L52.0147 54.4482L51.8782 54.5528L51.7398 54.6557L51.5995 54.757L51.4571 54.8566L51.3126 54.9546L51.1661 55.0509L51.0175 55.1456L50.8668 55.2386L50.714 55.3301L50.559 55.4199L50.4017 55.5081L50.2422 55.5948L50.0805 55.6798L49.9164 55.7633L49.75 55.8452L49.5812 55.9255L49.4099 56.0043L49.2362 56.0815L49.0599 56.1572L48.8811 56.2313L48.6996 56.3039L48.5155 56.375L48.3286 56.4445L48.1389 56.5125L47.9463 56.579L47.7508 56.644L47.5523 56.7075L47.3507 56.7694L47.1459 56.8299L46.9378 56.8889L46.7264 56.9464L46.5115 57.0024L46.2931 57.0569L46.071 57.1099L45.8451 57.1615L45.6152 57.2115L45.3813 57.2601L45.1431 57.3073L44.9006 57.3529L44.6534 57.3971L44.4015 57.4399L44.1446 57.4812L43.8824 57.521L43.6148 57.5594L43.3414 57.5963L43.0619 57.6318L42.7761 57.6658L42.4834 57.6984L42.1835 57.7295L41.8759 57.7592L41.56 57.7874L41.2353 57.8142L40.9011 57.8396L40.5565 57.8635L40.2006 57.886L39.8324 57.9071L39.4506 57.9267L39.0536 57.9449L38.6396 57.9617L38.2064 57.977L37.751 57.9909L37.2698 58.0034L36.7582 58.0144L36.2094 58.024L35.6143 58.0322L34.9588 58.039L34.2199 58.0443L33.3547 58.0482L32.2616 58.0507L30.4809 58.0518L26.598 58.0514L25.3011 58.0496L24.3469 58.0464L23.5551 58.0417L22.8635 58.0356L22.2417 58.0281L21.6721 58.0192L21.1437 58.0088L20.6486 57.997L20.1814 57.9838L19.738 57.9692L19.3151 57.9531L18.9103 57.9356L18.5214 57.9166L18.1469 57.8963L17.7853 57.8745L17.4354 57.8512L17.0963 57.8265L16.7672 57.8004L16.4472 57.7729L16.1357 57.7439L15.8322 57.7134L15.5361 57.6815L15.247 57.6482L14.9645 57.6134L14.6883 57.5772L14.4179 57.5395L14.1532 57.5004L13.8938 57.4598L13.6395 57.4177L13.3901 57.3742L13.1454 57.3293L12.9051 57.2828L12.6692 57.2349L12.4374 57.1856L12.2096 57.1347L11.9857 57.0824L11.7656 57.0286L11.549 56.9733L11.336 56.9165L11.1263 56.8583L10.92 56.7985L10.7169 56.7373L10.5169 56.6745L10.3199 56.6102L10.126 56.5445L9.93491 56.4772L9.74669 56.4084L9.56123 56.338L9.37849 56.2662L9.1984 56.1928L9.02092 56.1179L8.84598 56.0414L8.67355 55.9633L8.50357 55.8838L8.33601 55.8026L8.17082 55.7199L8.00796 55.6356L7.84739 55.5497L7.68909 55.4622L7.53301 55.3732L7.37912 55.2825L7.22739 55.1902L7.07779 55.0963L6.9303 55.0008L6.78488 54.9036L6.64151 54.8048L6.50017 54.7043L6.36083 54.6022L6.22347 54.4984L6.08807 54.3929L5.9546 54.2857L5.82304 54.1767L5.69338 54.0661L5.56561 53.9537L5.43969 53.8396L5.31561 53.7237L5.19336 53.6061L5.07292 53.4867L4.95428 53.3654L4.83742 53.2424L4.72232 53.1175L4.60898 52.9907L4.49738 52.8621L4.38751 52.7316L4.27935 52.5992L4.17291 52.4649L4.06814 52.3286L3.96507 52.1904L3.86367 52.0502L3.76393 51.9079L3.66584 51.7637L3.56939 51.6173L3.47458 51.4689L3.3814 51.3184L3.28983 51.1657L3.19987 51.0109L3.11151 50.8538L3.02475 50.6945L2.93957 50.5329L2.85598 50.369L2.77395 50.2028L2.69349 50.0342L2.6146 49.8631L2.53726 49.6896L2.46146 49.5135L2.38721 49.3349L2.31449 49.1536L2.24331 48.9697L2.17365 48.783L2.10552 48.5935L2.0389 48.4012L1.9738 48.2059L1.9102 48.0077L1.84811 47.8063L1.78752 47.6018L1.72842 47.394L1.67082 47.1828L1.6147 46.9682L1.56007 46.7501L1.50693 46.5283L1.45526 46.3027L1.40507 46.0732L1.35635 45.8396L1.30909 45.6017L1.26331 45.3595L1.21899 45.1127L1.17613 44.8612L1.13473 44.6047L1.09479 44.343L1.0563 44.0758L1.01926 43.8029L0.98368 43.5239L0.949542 43.2385L0.916853 42.9464L0.885605 42.6471L0.855802 42.3401L0.82744 42.025L0.800519 41.701L0.775038 41.3675L0.750994 41.0238L0.728382 40.6689L0.707211 40.3017L0.687467 39.921L0.66916 39.5253L0.652284 39.1127L0.636837 38.6811L0.622821 38.2276L0.610238 37.7487L0.599082 37.2396L0.589349 36.6941L0.581049 36.1031L0.574176 35.4531L0.568731 34.7221L0.564709 33.8694L0.562115 32.8015L0.560948 31.136L0.560875 29.5261Z" fill="#767676"/>
<path fill-rule="evenodd" clip-rule="evenodd" d="M0.560875 29.5261L0.561589 26.6735L0.56373 25.492L0.567295 24.5856L0.572288 23.8217L0.578708 23.1488L0.586552 22.5408L0.595827 21.9819L0.606531 21.4621L0.618662 20.9741L0.63222 20.5129L0.647211 20.0747L0.663629 19.6563L0.681484 19.2554L0.700766 18.8701L0.721485 18.4988L0.743636 18.1401L0.767223 17.7929L0.792251 17.4563L0.818711 17.1294L0.846616 16.8115L0.875958 16.5019L0.906744 16.2002L0.938976 15.9059L0.972652 15.6184L1.00777 15.3374L1.04435 15.0626L1.08237 14.7936L1.12185 14.5302L1.16279 14.2721L1.20518 14.019L1.24904 13.7707L1.29435 13.527L1.34114 13.2878L1.38939 13.0529L1.43912 12.8221L1.49031 12.5953L1.54299 12.3723L1.59714 12.153L1.65279 11.9373L1.70991 11.725L1.76854 11.5162L1.82865 11.3106L1.89026 11.1083L1.95338 10.909L2.018 10.7128L2.08414 10.5195L2.15179 10.3291L2.22096 10.1416L2.29165 9.95678L2.36388 9.77468L2.43764 9.59522L2.51294 9.41834L2.5898 9.24401L2.6682 9.07217L2.74816 8.90277L2.82968 8.73578L2.91278 8.57115L2.99745 8.40884L3.08371 8.24882L3.17156 8.09105L3.26101 7.93549L3.35206 7.78212L3.44473 7.63091L3.53902 7.48182L3.63494 7.33482L3.73251 7.1899L3.83172 7.04702L3.93259 6.90615L4.03513 6.76729L4.13935 6.6304L4.24527 6.49545L4.35288 6.36244L4.4622 6.23135L4.57325 6.10214L4.68603 5.9748L4.80057 5.84933L4.91686 5.72569L5.03494 5.60387L5.1548 5.48386L5.27647 5.36565L5.39997 5.24921L5.5253 5.13454L5.65249 5.02161L5.78154 4.91043L5.91249 4.80097L6.04535 4.69322L6.18013 4.58717L6.31687 4.48282L6.45558 4.38014L6.59628 4.27914L6.739 4.17979L6.88376 4.0821L7.03059 3.98605L7.17951 3.89162L7.33056 3.79882L7.48376 3.70764L7.63914 3.61807L7.79673 3.53009L7.95657 3.44371L8.1187 3.35891L8.28314 3.27568L8.44994 3.19404L8.61915 3.11395L8.79079 3.03542L8.96492 2.95845L9.14159 2.88303L9.32084 2.80914L9.50274 2.7368L9.68732 2.66598L9.87465 2.59668L10.0648 2.52891L10.2578 2.46266L10.4538 2.39791L10.6528 2.33468L10.8549 2.27294L11.0603 2.21271L11.2688 2.15397L11.4808 2.09672L11.6962 2.04097L11.9152 1.98669L12.1379 1.9339L12.3644 1.88258L12.5949 1.83274L12.8295 1.78437L13.0684 1.73747L13.3117 1.69203L13.5596 1.64806L13.8123 1.60556L14.07 1.56451L14.333 1.52491L14.6015 1.48677L14.8759 1.45008L15.1563 1.41484L15.4433 1.38105L15.7371 1.3487L16.0382 1.3178L16.3471 1.28835L16.6643 1.26033L16.9905 1.23375L17.3263 1.20861L17.6726 1.18491L18.0303 1.16264L18.4006 1.14181L18.7848 1.12241L19.1843 1.10444L19.6012 1.08791L20.0378 1.07281L20.497 1.05913L20.9827 1.04689L21.4998 1.03607L22.0552 1.02668L22.6588 1.01872L23.3257 1.01219L24.0811 1.00708L24.9731 1.00341L26.1227 1.00115L28.2816 1.00032L31.8232 1.00093L33.0395 1.00295L33.961 1.00641L34.734 1.01129L35.4129 1.01759L36.0254 1.02532L36.5878 1.03448L37.1104 1.04507L37.6007 1.05709L38.0639 1.07053L38.5038 1.08541L38.9237 1.10172L39.3259 1.11945L39.7124 1.13863L40.0848 1.15923L40.4444 1.18127L40.7925 1.20474L41.1299 1.22965L41.4576 1.256L41.7762 1.28379L42.0864 1.31301L42.3887 1.34369L42.6836 1.3758L42.9716 1.40937L43.2531 1.44437L43.5284 1.48083L43.7978 1.51874L44.0617 1.55811L44.3202 1.59892L44.5737 1.6412L44.8224 1.68494L45.0664 1.73014L45.3059 1.77681L45.5412 1.82494L45.7723 1.87455L45.9995 1.92563L46.2228 1.97819L46.4424 2.03223L46.6584 2.08775L46.8708 2.14476L47.08 2.20326L47.2858 2.26325L47.4884 2.32475L47.6879 2.38774L47.8843 2.45225L48.0778 2.51826L48.2685 2.58579L48.4562 2.65484L48.6413 2.72542L48.8236 2.79752L49.0032 2.87116L49.1803 2.94634L49.3549 3.02307L49.5269 3.10134L49.6965 3.18118L49.8637 3.26258L50.0285 3.34555L50.191 3.4301L50.3512 3.51623L50.5091 3.60395L50.6648 3.69327L50.8184 3.7842L50.9698 3.87674L51.119 3.9709L51.2662 4.06669L51.4113 4.16413L51.5543 4.26321L51.6954 4.36395L51.8344 4.46636L51.9714 4.57044L52.1065 4.67622L52.2397 4.7837L52.3709 4.89288L52.5003 5.00379L52.6278 5.11644L52.7534 5.23083L52.8772 5.34699L52.9991 5.46492L53.1193 5.58464L53.2377 5.70617L53.3542 5.82952L53.469 5.9547L53.5821 6.08174L53.6934 6.21064L53.803 6.34144L53.9109 6.47415L54.0171 6.60878L54.1216 6.74536L54.2244 6.88391L54.3255 7.02445L54.425 7.16701L54.5228 7.31161L54.619 7.45827L54.7136 7.60703L54.8065 7.7579L54.8978 7.91093L54.9875 8.06613L55.0756 8.22355L55.1621 8.38321L55.247 8.54515L55.3304 8.70941L55.4122 8.87602L55.4924 9.04503L55.571 9.21648L55.6481 9.39041L55.7237 9.56688L55.7977 9.74592L55.8701 9.9276L55.9411 10.112L56.0105 10.2991L56.0784 10.489L56.1448 10.6818L56.2096 10.8776L56.273 11.0763L56.3348 11.2782L56.3952 11.4832L56.4541 11.6916L56.5114 11.9032L56.5673 12.1184L56.6217 12.3371L56.6746 12.5595L56.726 12.7857L56.776 13.0159L56.8245 13.2502L56.8715 13.4887L56.917 13.7316L56.9611 13.9791L57.0038 14.2314L57.0449 14.4888L57.0846 14.7513L57.1229 15.0194L57.1597 15.2933L57.1951 15.5732L57.229 15.8596L57.2614 16.1529L57.2924 16.4534L57.322 16.7616L57.3501 17.0782L57.3768 17.4036L57.4021 17.7386L57.4259 18.0841L57.4483 18.4409L57.4692 18.8101L57.4887 19.1931L57.5068 19.5914L57.5235 20.0068L57.5387 20.4417L57.5525 20.899L57.5648 21.3824L57.5758 21.8967L57.5853 22.4488L57.5933 23.0482L57.6 23.7093L57.6052 24.4562L57.609 25.3345L57.6114 26.4548L57.6123 28.3877L57.6118 32.1416L57.6099 33.3961L57.6066 34.3336L57.6018 35.1158L57.5956 35.801L57.588 36.4181L57.5789 36.984L57.5685 37.5095L57.5566 38.0022L57.5432 38.4673L57.5285 38.909L57.5123 39.3304L57.4947 39.7339L57.4756 40.1216L57.4551 40.4951L57.4332 40.8557L57.4098 41.2046L57.385 41.5429L57.3588 41.8713L57.3311 42.1906L57.302 42.5014L57.2715 42.8043L57.2395 43.0998L57.206 43.3884L57.1711 43.6704L57.1348 43.9461L57.097 44.216L57.0577 44.4803L57.017 44.7393L56.9749 44.9932L56.9312 45.2422L56.8862 45.4866L56.8396 45.7265L56.7916 45.9621L56.7421 46.1935L56.6911 46.421L56.6387 46.6446L56.5848 46.8645L56.5294 47.0807L56.4725 47.2935L56.4141 47.5029L56.3542 47.709L56.2929 47.9118L56.23 48.1116L56.1656 48.3083L56.0997 48.502L56.0323 48.6928L55.9634 48.8809L55.8929 49.0661L55.8209 49.2486L55.7474 49.4285L55.6724 49.6058L55.5957 49.7805L55.5176 49.9527L55.4379 50.1225L55.3566 50.2899L55.2738 50.4549L55.1893 50.6176L55.1033 50.778L55.0157 50.9361L54.9265 51.092L54.8358 51.2457L54.7433 51.3973L54.6493 51.5467L54.5536 51.694L54.4563 51.8393L54.3574 51.9825L54.2568 52.1237L54.1545 52.2628L54.0506 52.4001L53.9449 52.5353L53.8376 52.6686L53.7285 52.8L53.6178 52.9295L53.5052 53.0572L53.391 53.1829L53.275 53.3069L53.1572 53.429L53.0376 53.5493L52.9162 53.6678L52.793 53.7845L52.668 53.8994L52.5411 54.0126L52.4123 54.1241L52.2817 54.2338L52.1491 54.3419L52.0147 54.4482L51.8782 54.5528L51.7398 54.6557L51.5995 54.757L51.4571 54.8566L51.3126 54.9546L51.1661 55.0509L51.0175 55.1456L50.8668 55.2386L50.714 55.3301L50.559 55.4199L50.4017 55.5081L50.2422 55.5948L50.0805 55.6798L49.9164 55.7633L49.75 55.8452L49.5812 55.9255L49.4099 56.0043L49.2362 56.0815L49.0599 56.1572L48.8811 56.2313L48.6996 56.3039L48.5155 56.375L48.3286 56.4445L48.1389 56.5125L47.9463 56.579L47.7508 56.644L47.5523 56.7075L47.3507 56.7694L47.1459 56.8299L46.9378 56.8889L46.7264 56.9464L46.5115 57.0024L46.2931 57.0569L46.071 57.1099L45.8451 57.1615L45.6152 57.2115L45.3813 57.2601L45.1431 57.3073L44.9006 57.3529L44.6534 57.3971L44.4015 57.4399L44.1446 57.4812L43.8824 57.521L43.6148 57.5594L43.3414 57.5963L43.0619 57.6318L42.7761 57.6658L42.4834 57.6984L42.1835 57.7295L41.8759 57.7592L41.56 57.7874L41.2353 57.8142L40.9011 57.8396L40.5565 57.8635L40.2006 57.886L39.8324 57.9071L39.4506 57.9267L39.0536 57.9449L38.6396 57.9617L38.2064 57.977L37.751 57.9909L37.2698 58.0034L36.7582 58.0144L36.2094 58.024L35.6143 58.0322L34.9588 58.039L34.2199 58.0443L33.3547 58.0482L32.2616 58.0507L30.4809 58.0518L26.598 58.0514L25.3011 58.0496L24.3469 58.0464L23.5551 58.0417L22.8635 58.0356L22.2417 58.0281L21.6721 58.0192L21.1437 58.0088L20.6486 57.997L20.1814 57.9838L19.738 57.9692L19.3151 57.9531L18.9103 57.9356L18.5214 57.9166L18.1469 57.8963L17.7853 57.8745L17.4354 57.8512L17.0963 57.8265L16.7672 57.8004L16.4472 57.7729L16.1357 57.7439L15.8322 57.7134L15.5361 57.6815L15.247 57.6482L14.9645 57.6134L14.6883 57.5772L14.4179 57.5395L14.1532 57.5004L13.8938 57.4598L13.6395 57.4177L13.3901 57.3742L13.1454 57.3293L12.9051 57.2828L12.6692 57.2349L12.4374 57.1856L12.2096 57.1347L11.9857 57.0824L11.7656 57.0286L11.549 56.9733L11.336 56.9165L11.1263 56.8583L10.92 56.7985L10.7169 56.7373L10.5169 56.6745L10.3199 56.6102L10.126 56.5445L9.93491 56.4772L9.74669 56.4084L9.56123 56.338L9.37849 56.2662L9.1984 56.1928L9.02092 56.1179L8.84598 56.0414L8.67355 55.9633L8.50357 55.8838L8.33601 55.8026L8.17082 55.7199L8.00796 55.6356L7.84739 55.5497L7.68909 55.4622L7.53301 55.3732L7.37912 55.2825L7.22739 55.1902L7.07779 55.0963L6.9303 55.0008L6.78488 54.9036L6.64151 54.8048L6.50017 54.7043L6.36083 54.6022L6.22347 54.4984L6.08807 54.3929L5.9546 54.2857L5.82304 54.1767L5.69338 54.0661L5.56561 53.9537L5.43969 53.8396L5.31561 53.7237L5.19336 53.6061L5.07292 53.4867L4.95428 53.3654L4.83742 53.2424L4.72232 53.1175L4.60898 52.9907L4.49738 52.8621L4.38751 52.7316L4.27935 52.5992L4.17291 52.4649L4.06814 52.3286L3.96507 52.1904L3.86367 52.0502L3.76393 51.9079L3.66584 51.7637L3.56939 51.6173L3.47458 51.4689L3.3814 51.3184L3.28983 51.1657L3.19987 51.0109L3.11151 50.8538L3.02475 50.6945L2.93957 50.5329L2.85598 50.369L2.77395 50.2028L2.69349 50.0342L2.6146 49.8631L2.53726 49.6896L2.46146 49.5135L2.38721 49.3349L2.31449 49.1536L2.24331 48.9697L2.17365 48.783L2.10552 48.5935L2.0389 48.4012L1.9738 48.2059L1.9102 48.0077L1.84811 47.8063L1.78752 47.6018L1.72842 47.394L1.67082 47.1828L1.6147 46.9682L1.56007 46.7501L1.50693 46.5283L1.45526 46.3027L1.40507 46.0732L1.35635 45.8396L1.30909 45.6017L1.26331 45.3595L1.21899 45.1127L1.17613 44.8612L1.13473 44.6047L1.09479 44.343L1.0563 44.0758L1.01926 43.8029L0.98368 43.5239L0.949542 43.2385L0.916853 42.9464L0.885605 42.6471L0.855802 42.3401L0.82744 42.025L0.800519 41.701L0.775038 41.3675L0.750994 41.0238L0.728382 40.6689L0.707211 40.3017L0.687467 39.921L0.66916 39.5253L0.652284 39.1127L0.636837 38.6811L0.622821 38.2276L0.610238 37.7487L0.599082 37.2396L0.589349 36.6941L0.581049 36.1031L0.574176 35.4531L0.568731 34.7221L0.564709 33.8694L0.562115 32.8015L0.560948 31.136L0.560875 29.5261Z" stroke="black" stroke-opacity="0.04" stroke-width="0.594286"/>
</g>
<path d="M19.5771 29.5258L18.7367 30.3662L17.8963 29.5258L18.7367 28.6854L19.5771 29.5258ZM37.4057 28.3372C38.0621 28.3372 38.5943 28.8694 38.5943 29.5258C38.5943 30.1822 38.0621 30.7144 37.4057 30.7144L37.4057 28.3372ZM25.8681 37.4977L18.7367 30.3662L20.4176 28.6854L27.549 35.8168L25.8681 37.4977ZM18.7367 28.6854L25.8681 21.5539L27.549 23.2348L20.4176 30.3662L18.7367 28.6854ZM19.5771 28.3372L37.4057 28.3372L37.4057 30.7144L19.5771 30.7144L19.5771 28.3372Z" fill="white"/>
<defs>
<filter id="filter0_b_155_4839" x="-4.49061" y="-4.05116" width="67.1541" height="67.1541" filterUnits="userSpaceOnUse" color-interpolation-filters="sRGB">
<feFlood flood-opacity="0" result="BackgroundImageFix"/>
<feGaussianBlur in="BackgroundImageFix" stdDeviation="2.37714"/>
<feComposite in2="SourceAlpha" operator="in" result="effect1_backgroundBlur_155_4839"/>
<feBlend mode="normal" in="SourceGraphic" in2="effect1_backgroundBlur_155_4839" result="shape"/>
</filter>
</defs>
</svg>
