<svg width="54" height="47" viewBox="0 0 54 47" fill="none" xmlns="http://www.w3.org/2000/svg">
<path opacity="0.2" d="M53.1089 0.414359C45.6746 -0.787284 40.0838 0.62465 36.3365 4.65016C32.5891 8.67566 30.7154 14.6238 30.7154 22.4946V46.5575H53.1089V23.3958H41.5042C41.0207 19.3102 41.5646 15.9456 43.1361 13.302C44.768 10.6584 47.6692 9.48677 51.8396 9.78718L53.1089 0.414359ZM22.7372 0.414359C15.3029 -0.787284 9.71213 0.62465 5.96478 4.65016C2.21743 8.67566 0.34375 14.6238 0.34375 22.4946V46.5575H22.7372V23.3958H11.1325C10.649 19.3102 11.1929 15.9456 12.7644 13.302C14.3963 10.6584 17.2975 9.48677 21.4679 9.78718L22.7372 0.414359Z" fill="#9C9C9C"/>
</svg>
